<svg xmlns="http://www.w3.org/2000/svg" xmlns:xlink="http://www.w3.org/1999/xlink" width="278.16" height="205.952" viewBox="0 0 278.16 205.952">
    <defs>
        <linearGradient id="linear-gradient" x1=".699" x2=".199" y1="-.862" y2="1.404" gradientUnits="objectBoundingBox">
            <stop offset="0" stop-color="#cfcbc7"/>
            <stop offset="1" stop-color="#b6b2ae"/>
        </linearGradient>
        <linearGradient id="linear-gradient-2" x1="0" x2="1" y1=".5" y2=".5" xlink:href="#linear-gradient"/>
        <linearGradient id="linear-gradient-3" x1="-2.62" x2="-1.801" y1="7.53" y2="7.53" xlink:href="#linear-gradient"/>
        <linearGradient id="linear-gradient-4" x1=".006" x2="1.006" y1=".505" y2=".505" gradientUnits="objectBoundingBox">
            <stop offset="0" stop-color="#e3dfda"/>
            <stop offset="1" stop-color="#fffaf5"/>
        </linearGradient>
        <clipPath id="clip-path"/>
        <style>
            .cls-35{fill:#0052a3}.cls-36{fill:#ea5353}.cls-37{fill:#0067e0}.cls-38{fill:#ff7676}.cls-41{fill:#2c272b}.cls-42{fill:#3d373b}.cls-44{fill:#ef3737}
        </style>
    </defs>
    <g id="clock" transform="translate(0 -.038)">
        <g id="_0">
            <g id="_1">
                <g id="_2">
                    <g id="Group_98">
                        <ellipse id="Ellipse_35" cx="138.29" cy="79.84" fill="#fcfcfc" opacity="0.04" rx="138.29" ry="79.84" transform="translate(.79 45.74)"/>
                        <ellipse id="Ellipse_36" cx="137.5" cy="79.39" fill="#f9f9f8" opacity="0.08" rx="137.5" ry="79.39" transform="translate(1.58 46.08)"/>
                        <ellipse id="Ellipse_37" cx="136.72" cy="78.93" fill="#f6f6f5" opacity="0.12" rx="136.72" ry="78.93" transform="translate(2.36 46.43)"/>
                        <ellipse id="Ellipse_38" cx="135.93" cy="78.48" fill="#f3f3f2" opacity="0.15" rx="135.93" ry="78.48" transform="translate(3.15 46.77)"/>
                        <ellipse id="Ellipse_39" cx="135.14" cy="78.02" fill="#f0efee" opacity="0.19" rx="135.14" ry="78.02" transform="translate(3.94 47.12)"/>
                        <ellipse id="Ellipse_40" cx="134.35" cy="77.57" fill="#edeceb" opacity="0.23" rx="134.35" ry="77.57" transform="translate(4.73 47.46)"/>
                        <ellipse id="Ellipse_41" cx="133.56" cy="77.11" fill="#eae9e8" opacity="0.27" rx="133.56" ry="77.11" transform="translate(5.52 47.81)"/>
                        <ellipse id="Ellipse_42" cx="132.77" cy="76.66" fill="#e7e6e4" opacity="0.31" rx="132.77" ry="76.66" transform="translate(6.31 48.15)"/>
                        <ellipse id="Ellipse_43" cx="131.98" cy="76.2" fill="#e4e3e1" opacity="0.35" rx="131.98" ry="76.2" transform="translate(7.1 48.5)"/>
                        <ellipse id="Ellipse_44" cx="131.19" cy="75.75" fill="#e1e0de" opacity="0.38" rx="131.19" ry="75.75" transform="translate(7.89 48.84)"/>
                        <ellipse id="Ellipse_45" cx="130.41" cy="75.29" fill="#deddda" opacity="0.42" rx="130.41" ry="75.29" transform="translate(8.67 49.19)"/>
                        <ellipse id="Ellipse_46" cx="129.62" cy="74.84" fill="#dbdad7" opacity="0.46" rx="129.62" ry="74.84" transform="translate(9.46 49.54)"/>
                        <ellipse id="Ellipse_47" cx="128.83" cy="74.38" fill="#d9d7d4" opacity="0.5" rx="128.83" ry="74.38" transform="translate(10.25 49.89)"/>
                        <ellipse id="Ellipse_48" cx="128.04" cy="73.93" fill="#d6d3d0" opacity="0.54" rx="128.04" ry="73.93" transform="translate(11.04 50.23)"/>
                        <ellipse id="Ellipse_49" cx="127.25" cy="73.47" fill="#d3d0cd" opacity="0.58" rx="127.25" ry="73.47" transform="translate(11.83 50.58)"/>
                        <ellipse id="Ellipse_50" cx="126.46" cy="73.01" fill="#d0cdc9" opacity="0.62" rx="126.46" ry="73.01" transform="translate(12.62 50.93)"/>
                        <ellipse id="Ellipse_51" cx="125.67" cy="72.56" fill="#cdcac6" opacity="0.65" rx="125.67" ry="72.56" transform="translate(13.41 51.27)"/>
                        <ellipse id="Ellipse_52" cx="124.89" cy="72.1" fill="#cac7c3" opacity="0.69" rx="124.89" ry="72.1" transform="translate(14.19 51.62)"/>
                        <ellipse id="Ellipse_53" cx="124.1" cy="71.65" fill="#c7c4bf" opacity="0.73" rx="124.1" ry="71.65" transform="translate(14.98 51.96)"/>
                        <ellipse id="Ellipse_54" cx="123.31" cy="71.19" fill="#c4c1bc" opacity="0.77" rx="123.31" ry="71.19" transform="translate(15.77 52.31)"/>
                        <ellipse id="Ellipse_55" cx="122.52" cy="70.74" fill="#c1beb9" opacity="0.81" rx="122.52" ry="70.74" transform="translate(16.56 52.65)"/>
                        <ellipse id="Ellipse_56" cx="121.73" cy="70.28" fill="#bebab5" opacity="0.85" rx="121.73" ry="70.28" transform="translate(17.35 53)"/>
                        <ellipse id="Ellipse_57" cx="120.94" cy="69.83" fill="#bbb7b2" opacity="0.88" rx="120.94" ry="69.83" transform="translate(18.14 53.34)"/>
                        <ellipse id="Ellipse_58" cx="120.15" cy="69.37" fill="#b8b4af" opacity="0.92" rx="120.15" ry="69.37" transform="translate(18.93 53.69)"/>
                        <ellipse id="Ellipse_59" cx="119.36" cy="68.92" fill="#b5b1ab" opacity="0.96" rx="119.36" ry="68.92" transform="translate(19.72 54.03)"/>
                        <ellipse id="Ellipse_60" cx="118.58" cy="68.46" fill="#b2aea8" rx="118.58" ry="68.46" transform="translate(20.5 54.38)"/>
                    </g>
                    <path id="Path_1152" fill="url(#linear-gradient)" d="M354.62 206.21c.05 19.33-12.7 38.69-38.25 53.44-50.78 29.32-132.81 29.3-183.27 0-25-14.57-37.6-33.62-37.65-52.71l-.07-23.69 259.17-.72z" transform="translate(-85.92 -107.82)"/>
                    <path id="Path_1153" fill="#ede8e4" d="M316.31 236c22.21-12.82 34.75-29.13 37.61-45.88 3.68-21.53-8.65-43.78-37-60.28-50.44-29.31-132.49-29.31-183.25 0S82.6 206.64 133 236s132.53 29.28 183.31 0z" transform="translate(-85.92 -107.82)"/>
                    <path id="Path_1154" fill="#fff7f0" d="M312.32 234.25c21.31-12.3 33.34-27.95 36.08-44 3.53-20.65-8.3-42-35.52-57.82-48.38-28.12-127.09-28.12-175.78 0s-49 73.7-.58 101.82 127.09 28.12 175.8 0z" transform="translate(-85.92 -107.82)"/>
                    <path id="Path_1155" fill="#f66" d="M323 139.06l-97.23 47.63 29.08 66.44c21-3.07 41-9.35 57.48-18.88 21.31-12.3 33.34-27.95 36.08-44 3.05-17.9-5.41-36.25-25.41-51.19z" transform="translate(-85.92 -107.82)"/>
                    <path id="Path_1156" fill="#d8d3cf" d="M169.17 251.47c-8.1-2-19.83-6.43-36.13-15.52 81.57 43.65 207 16.75 220.88-45.87-10.81 60.31-117.16 81.73-184.75 61.39z" transform="translate(-85.92 -107.82)"/>
                    <path id="Path_1157" fill="url(#linear-gradient-2)" d="M137.1 136.32c48.69-28.11 127.4-28.11 175.78 0 23.24 13.51 35.25 31 36.08 48.74.88-19-11.13-38.14-36.08-52.64-48.38-28.12-127.09-28.12-175.78 0-25.3 14.6-37.52 33.91-36.65 53 .85-17.79 13.07-35.49 36.65-49.1z" transform="translate(-85.92 -107.82)"/>
                    <g id="Group_99" clip-path="url(#clip-path)">
                        <path id="Path_1158" d="M170.25 13.7v-.81l-3.09 6.77-2.94-.42v.81l2.93.42z" class="cls-35"/>
                        <path id="Path_1159" d="M111.59 20.05l.01-.81-2.94.41-3.16-6.76-.01.81 3.17 6.76z" class="cls-35"/>
                        <path id="Path_1160" d="M253.86 63.26l.01-.81-11.67 1.81-.73-1.7-.01.81.74 1.7z" class="cls-36"/>
                        <path id="Path_1161" d="M253.35 98.25l-11.69-1.81v.81l11.69 1.81.7-1.69.01-.81z" class="cls-36"/>
                        <path id="Path_1162" d="M22.63 96.56v.81l.72 1.7 11.67-1.82v-.81l-11.67 1.82z" class="cls-35"/>
                        <path id="Path_1163" d="M106.25 146.12l-.01.81 2.93.41 3.1-6.76v-.81l-3.09 6.76z" class="cls-35"/>
                        <path id="Path_1164" d="M164.9 139.77l-.01.81 3.17 6.76 2.94-.42v-.81l-2.94.42z" class="cls-36"/>
                        <path id="Path_1165" d="M34.83 63.37v-.81l-.71 1.7-11.69-1.81v.81l11.69 1.81z" class="cls-35"/>
                        <path id="Path_1166" d="M223.5 32.01v-.81l-8.53 4.96-2.14-1.24v.81l2.14 1.24z" class="cls-35"/>
                        <path id="Path_1167" d="M213.33 124.09v.81l8.58 4.95 2.13-1.23v-.81l-2.13 1.23z" class="cls-36"/>
                        <path id="Path_1168" d="M63.16 35.73v-.81l-2.13 1.24-8.59-4.96v.81l8.59 4.96z" class="cls-35"/>
                        <path id="Path_1169" d="M52.99 127.81v.81l2.14 1.23 8.53-4.95v-.81l-8.53 4.95z" class="cls-35"/>
                        <path id="Path_1170" d="M223.5 31.2l-2.14-1.24-8.53 4.96 2.14 1.24z" class="cls-37"/>
                        <path id="Path_1171" d="M170.25 12.89l-2.93-.41-3.1 6.76 2.94.42z" class="cls-37"/>
                        <path id="Path_1172" d="M111.6 19.24l-3.17-6.76-2.93.41 3.16 6.76z" class="cls-37"/>
                        <path id="Path_1173" d="M253.87 62.45l-.73-1.7-11.67 1.81.73 1.7z" class="cls-38"/>
                        <path id="Path_1174" d="M242.37 94.74l-.71 1.7 11.69 1.81.71-1.69z" class="cls-38"/>
                        <path id="Path_1175" d="M213.33 124.09l8.58 4.95 2.13-1.23-8.58-4.96z" class="cls-38"/>
                        <path id="Path_1176" d="M63.16 34.92l-8.59-4.96-2.13 1.24 8.59 4.96z" class="cls-37"/>
                        <path id="Path_1177" d="M22.63 96.56l.72 1.7 11.67-1.82-.72-1.69z" class="cls-37"/>
                        <path id="Path_1178" d="M106.25 146.12l2.93.41 3.09-6.76-2.93-.42z" class="cls-37"/>
                        <path id="Path_1179" d="M164.9 139.77l3.16 6.76 2.94-.42-3.16-6.76z" class="cls-38"/>
                        <path id="Path_1180" d="M34.83 62.56l-11.69-1.81-.71 1.7 11.69 1.81z" class="cls-37"/>
                        <path id="Path_1181" d="M52.99 127.81l2.14 1.23 8.53-4.95-2.14-1.24z" class="cls-37"/>
                    </g>
                    <path id="Path_1182" fill="#cec3bc" d="M297.79 226.17l-59.93-34.58-3.86-4.93h.07l72.08-39.15-75.78 35.09L227 181v3l-1.37-3.7-51-24.34 45.47 31.75-5.62 5.75 12.52-3.41 9.85 2.56 59.6 34.4a1.16 1.16 0 0 0 .83.05 1.22 1.22 0 0 0 .37-.16c.4-.23.44-.55.14-.73z" transform="translate(-85.92 -107.82)"/>
                    <path id="Path_1183" fill="#282326" d="M222.19 183.14V187a2.07 2.07 0 0 0 1.2 1.65 6.44 6.44 0 0 0 5.8 0 2 2 0 0 0 1.2-1.7v-3.8z" transform="translate(-85.92 -107.82)"/>
                    <path id="Path_1184" d="M88.73 44.94v.32l46.7 33.62 17.75 4.6.01-1.32z" class="cls-41"/>
                    <path id="Path_1185" d="M145.19 71.89l8 10.27-17.75-4.6-46.71-32.62z" class="cls-42"/>
                    <path id="Path_1186" fill="#2c272b" d="M145.19 71.89l-.57-.27-6.69 3.09-2.98 2.51.49.34 5.61 1.45 2.32-.66 4.81-2.61z" opacity="0.8"/>
                    <g id="Group_100">
                        <path id="Path_1187" d="M128.59 80.2l-.01 1.2 14.79-4.22 76.88-42.59.01-.37z" class="cls-41"/>
                        <path id="Path_1188" d="M137.93 72.34l82.33-38.12-76.89 41.76-14.78 4.22z" class="cls-42"/>
                    </g>
                    <path id="Path_1189" d="M229.21 181.11a1.47 1.47 0 0 0-.86-1.18 4.53 4.53 0 0 0-4.12 0 1.48 1.48 0 0 0-.86 1.24v1a1.47 1.47 0 0 0 .86 1.18 4.53 4.53 0 0 0 4.12 0 1.45 1.45 0 0 0 .86-1.21v-1.06z" class="cls-44" transform="translate(-85.92 -107.82)"/>
                    <path id="Path_1190" d="M218.07 178.56l.71-.4L296.49 223a1.16 1.16 0 0 0 .83.05 1.22 1.22 0 0 0 .37-.16c.36-.23.4-.55.1-.73l-77.64-44.8.72-.42-12.87-7.4-2.8 1.62z" class="cls-44" transform="translate(-85.92 -107.82)"/>
                    <path id="Path_1191" fill="#c62828" d="M229.14 182.55a1.16 1.16 0 0 0 .07-.37v-1.06a1.47 1.47 0 0 0-.86-1.19 4.59 4.59 0 0 0-3.92-.1l-1.27-.72a3.65 3.65 0 0 0-.72 1.16l1 .57a1.261 1.261 0 0 0 0 .33v1a1.47 1.47 0 0 0 .86 1.18 4.56 4.56 0 0 0 3.84.13l.34.19a4.291 4.291 0 0 0 1-.39 3.131 3.131 0 0 0 .5-.34z" opacity="0.6" transform="translate(-85.92 -107.82)"/>
                    <path id="Path_1192" fill="url(#linear-gradient-3)" d="M228.72 177.66h-4.65a3.76 3.76 0 0 0-2 3.26 2.1 2.1 0 0 0 1.18 1.69 6.61 6.61 0 0 0 6 .07 2.18 2.18 0 0 0 1.31-1.81 3.73 3.73 0 0 0-1.84-3.21z" transform="translate(-85.92 -107.82)"/>
                    <path id="Path_1193" fill="url(#linear-gradient-4)" d="M224 180.17c-1.22-.73-1.18-1.9.09-2.6a4.94 4.94 0 0 1 4.49 0c1.22.73 1.18 1.9-.09 2.6a4.94 4.94 0 0 1-4.49 0z" transform="translate(-85.92 -107.82)"/>
                </g>
            </g>
        </g>
    </g>
</svg>
