<svg xmlns="http://www.w3.org/2000/svg" id="sone_illustration" width="426.961" height="522.295" viewBox="0 0 426.961 522.295">
    <defs>
        <style>
            .cls-1{fill:#dba48d}.cls-2{fill:#f1c40f}.cls-3{fill:#c68d1a}.cls-4{fill:#efb135}.cls-5{fill:#fcc34f}.cls-6{fill:#846c5d}.cls-7{fill:#f3f6f9}.cls-8{fill:#ccc}.cls-10{fill:#333;opacity:.2}.cls-14{fill:#39354c}
        </style>
    </defs>
    <g id="OBJECTS">
        <path id="Path_207" d="M287.615 181.129c4.087-7.383 10.311-15.62-4.227-23.258-2.342-1.273-7.88-.28-10.083-.382-1.527-.064-1.707 1.564-3.081 1.769a25.728 25.728 0 0 0-15.7 9.37s9.191 14-18.154 31.9c-3.2 2.088 19.617 37.822 21.871 24.6 7.645-44.941 26.93-39.528 29.374-43.999z" class="cls-1" transform="translate(-30.525 -12.155)"/>
        <path id="Path_208" d="M288.168 61.08c1.617 3.145 6.175 2.546 9.244.242a9.013 9.013 0 0 0 3.285-8.912c-1.273-8.007-10.667-11.52-19.413-7.422-11.152 5.232-13.914 15.964-14.222 25.458-.153 4.672 1.872 13.227-5.27 15.391-4.506 1.362-6.773-2.342-7.751-5.333-.649-2-.56-5.092 2.623-5.856s5.27 2.724 1.426 2.648c.191 1.107.369 2.215.56 3.322l.675-.343c2.482-1.273.255-4.239-2.228-2.966l-.662.343a1.744 1.744 0 0 0 .56 3.322c2.992.064 6.963-.725 7.868-3.819s-1.948-5.665-4.965-6.225a9.51 9.51 0 0 0-9.306 3.911c-2.381 3.514-.929 7.524.98 10.528a8.912 8.912 0 0 0 9.535 4.366 12.043 12.043 0 0 0 9.217-6.773c1.808-4.163.917-8.747 1.057-12.934.178-5.689.891-12.081 5.283-17.046 4.061-4.57 11.967-8.555 17.209-4.354a7.638 7.638 0 0 1 2.674 5.856 5.487 5.487 0 0 1-.751 3.106c-.293.446-3.233 2.546-3.475 2.126-1.057-2.062-5.22-.7-4.15 1.387z" class="cls-2" transform="translate(-26.902 -43.267)"/>
        <path id="Path_209" d="M324 102.828L316.783 81.3l-2.3-6.874-7.21-21.526a2.966 2.966 0 0 0-5.537 1.82l.089.255a24.506 24.506 0 0 0-12.667 9.37 26.568 26.568 0 0 0-4.227 10.388c-.878 5.513-5.258 10.465-11.457 12.527l-.407.142a17.823 17.823 0 0 1-11.967-.1l-4.124-1.6a8.708 8.708 0 0 0-5.856 0l3.017 8.911 2.3 6.874 3.017 8.988a8.644 8.644 0 0 0 4.634-3.565l2.33-3.819a17.734 17.734 0 0 1 9.5-7.295l.395-.142c6.149-2.062 12.629-.751 16.651 3.119a26.453 26.453 0 0 0 9.637 5.742 24.391 24.391 0 0 0 15.836-.142l.076.255a2.966 2.966 0 0 0 5.537-1.849z" class="cls-2" transform="translate(-26.415 -41.056)"/>
        <path id="Path_210" d="M285.059 84.506c2.113-2.139 5.7-7.027 7.728-9.37A29.191 29.191 0 0 1 304.13 67.5c.548-.213 13.813 37.476 14.385 37.287l-12.729-37.9-.064-.191c-.319-.968.662-2.164 2.19-2.673s3.03-.153 3.348.815l-4.01-11.979a2.966 2.966 0 0 0-5.513 1.859l.089.255a24.506 24.506 0 0 0-12.667 9.37 26.568 26.568 0 0 0-4.227 10.388c-.878 5.513-5.258 10.465-11.457 12.527l-.407.142a17.823 17.823 0 0 1-11.967-.1l-4.124-1.6a8.707 8.707 0 0 0-5.856 0l2.992 8.912a74.68 74.68 0 0 1 9.229-1.579s18.242-4.975 21.717-8.527z" class="cls-3" transform="translate(-26.416 -41.054)"/>
        <path id="Path_211" d="M302.7 99.039c-.611-3.475 3.425-5.716 7.231-5.767a9.013 9.013 0 0 1 8.022 5.17c3.819 7.182-1.579 15.633-11.022 17.619-12.055 2.546-20.725-4.354-26.734-11.763-2.94-3.641-6.48-11.686-13.481-9.115-4.417 1.629-4 5.958-2.966 8.911.688 1.986 2.546 4.354 5.614 3.093s2.546-5.347-.458-2.966l-1.553-2.992.738-.127c2.763-.484 2.763 3.221 0 3.692l-.738.127a1.732 1.732 0 0 1-1.553-2.979c2.355-1.859 6-3.615 8.58-1.707s1.808 5.729-.191 7.982a9.548 9.548 0 0 1-9.79 2.546c-4.01-1.362-5.283-5.436-5.563-8.988a8.912 8.912 0 0 1 4.978-9.23 11.992 11.992 0 0 1 11.457-.153c3.947 2.228 6.009 6.365 8.631 9.688 3.578 4.43 8 9.1 14.5 10.413 6 1.2 14.716-.382 16.356-6.9a7.638 7.638 0 0 0-1.387-6.289 5.678 5.678 0 0 0-2.546-2.024c-.5-.166-4.137-.127-4.048.395.407 2.291-3.743 3.717-4.15 1.4z" class="cls-2" transform="translate(-24.335 -30.23)"/>
        <path id="Path_212" d="M297.27 73.965a2.381 2.381 0 0 0 2.024-2.049.9.9 0 0 0-.089-.509c-.331-.484-2.3-2.546-4.01-2.546a.929.929 0 0 0-.242-.585 5.525 5.525 0 0 0-4.15-1.146.9.9 0 0 0-.293-.331.523.523 0 0 0-.142-.089 4.85 4.85 0 0 0-3.947.624 1.094 1.094 0 0 0-.407-.191h-.127a4.774 4.774 0 0 0-3.373 2.139 1.274 1.274 0 0 0-.306 0h-.1a.641.641 0 0 0-.166 0 5.423 5.423 0 0 0-2.442 3.538h-.166a.4.4 0 0 0-.127 0 .726.726 0 0 0-.229.153 6.8 6.8 0 0 0-1.171 4.9 1.417 1.417 0 0 0 .1.382 2.7 2.7 0 0 0 2.241 1.935 2.214 2.214 0 0 0 .522.267 2.317 2.317 0 0 0 2.546-.331 6.109 6.109 0 0 0 1.375-2.546v-.076a.942.942 0 0 0 .089-.56.39.39 0 0 1 0-.1 5.868 5.868 0 0 0 1.451-1.375 1 1 0 0 0 .28-.522 5.232 5.232 0 0 0 1.693-.64.84.84 0 0 0 .42-.343 5.766 5.766 0 0 0 1.808.089.967.967 0 0 0 .56-.166 7.259 7.259 0 0 0 1.82.841 1.031 1.031 0 0 0 .649 0 9.307 9.307 0 0 0 1.655 1.6l.089.076a.981.981 0 0 0 .891.267.955.955 0 0 0 .548-.343 2.852 2.852 0 0 0 .728-2.367zM290.1 93.06a.878.878 0 0 0 .229-.2 4.765 4.765 0 0 0 3.982-.319v-.064a1 1 0 0 0 .213-.395 4.863 4.863 0 0 0 3.526-1.884 1.048 1.048 0 0 0 0-.153.839.839 0 0 0 0-.433 5.538 5.538 0 0 0 2.928-3.271 1.019 1.019 0 0 0-.153-.64c1.273-1.067 1.668-3.819 1.642-4.456v-.111a1 1 0 0 0-.242-.5 2.355 2.355 0 0 0-1.005-.586 2.177 2.177 0 0 0-1.833.191 2.928 2.928 0 0 0-2.228-1.655.955.955 0 0 0-.649.064 1 1 0 0 0-.56.751v.114a9.472 9.472 0 0 0-.343 2.276 1.019 1.019 0 0 0-.509.5 6.746 6.746 0 0 0-.917 1.719.98.98 0 0 0-.865.675.943.943 0 0 1 .293-.446 5.3 5.3 0 0 0-1.362 1.133 1 1 0 0 0-.611 0 5.6 5.6 0 0 0-1.693.509 1.018 1.018 0 0 0-.586-.255 5.525 5.525 0 0 0-1.935-.2.383.383 0 0 0 0-.1.9.9 0 0 0-.408-.407h-.063a6 6 0 0 0-2.546-1.158 2.291 2.291 0 0 0-2.215 1.273 3.82 3.82 0 0 0-.255.522 2.7 2.7 0 0 0-.611 2.89 1.163 1.163 0 0 0 .142.382 6.849 6.849 0 0 0 3.9 3.208 1 1 0 0 0 .28 0h.127l.166-.076a5.385 5.385 0 0 0 4.087 1.351h.153zm3.109-8.224zm-2.238 1.064a.4.4 0 0 1 .076-.166.4.4 0 0 0-.076.166z" class="cls-3" transform="translate(-19.148 -36.915)"/>
        <path id="Path_213" d="M284.966 70.532a2.291 2.291 0 0 1-.076-2.381c.777-1.018 3.129-.8 3.119-.738a9.485 9.485 0 0 0-3.043 3.119z" class="cls-4" transform="translate(-17.284 -36.692)"/>
        <path id="Path_214" d="M287.466 69.628a6.874 6.874 0 0 1-2.546.891 9.485 9.485 0 0 1 3.044-3.119 2.24 2.24 0 0 1-.5 2.228z" class="cls-5" transform="translate(-17.187 -36.678)"/>
        <path id="Path_215" d="M284.94 70a3.2 3.2 0 0 0 1.171 2.075 4.048 4.048 0 0 0 2.215.293A10.337 10.337 0 0 0 284.94 70z" class="cls-5" transform="translate(-17.182 -35.968)"/>
        <path id="Path_216" d="M287.571 70.173a2.773 2.773 0 0 0-2.661-.089 10.337 10.337 0 0 1 3.386 2.368 2.852 2.852 0 0 0-.725-2.279z" class="cls-4" transform="translate(-17.19 -36.026)"/>
        <path id="Path_217" d="M287.586 70.061s-.509-1.564.56-2.164 3.4.548 3.373.6a8.186 8.186 0 0 0-3.934 1.566z" class="cls-4" transform="translate(-16.492 -36.589)"/>
        <path id="Path_218" d="M290.437 70.151a8.784 8.784 0 0 1-2.877-.255 8.185 8.185 0 0 1 3.934-1.564s.038 1.542-1.057 1.819z" class="cls-5" transform="translate(-16.466 -36.425)"/>
        <path id="Path_219" d="M287.575 69.74a3.17 3.17 0 0 0 .624 2.318 5.8 5.8 0 0 0 2.177 1.184 13.06 13.06 0 0 0-2.801-3.502z" class="cls-5" transform="translate(-16.469 -36.039)"/>
        <path id="Path_220" d="M290.244 70.887a3.386 3.386 0 0 0-2.673-1.146 13.061 13.061 0 0 1 2.8 3.5 2.546 2.546 0 0 0-.127-2.355z" class="cls-4" transform="translate(-16.464 -36.04)"/>
        <path id="Path_221" d="M290.36 70.753s-.1-1.617 1.158-1.693 3.4 2.049 3.361 2.1a8.391 8.391 0 0 0-4.519-.407z" class="cls-4" transform="translate(-15.702 -36.225)"/>
        <path id="Path_222" d="M293.276 71.935a13 13 0 0 1-2.916-1.515 8.391 8.391 0 0 1 4.519.407 1.362 1.362 0 0 1-1.6 1.107z" class="cls-5" transform="translate(-15.702 -35.892)"/>
        <path id="Path_223" d="M290.376 70.56a2.75 2.75 0 0 0 0 2.33 8.161 8.161 0 0 0 1.973 2.049 15.275 15.275 0 0 0-1.973-4.379z" class="cls-5" transform="translate(-15.768 -35.815)"/>
        <path id="Path_224" d="M292.8 72.788a4.659 4.659 0 0 0-2.482-2.228 15.277 15.277 0 0 1 1.973 4.379 2 2 0 0 0 .509-2.151z" class="cls-4" transform="translate(-15.713 -35.815)"/>
        <path id="Path_225" d="M280.177 77.887a1.8 1.8 0 0 1-1.668-1.591 6.454 6.454 0 0 1 .853-3.982 18.7 18.7 0 0 0 .814 5.574z" class="cls-4" transform="translate(-18.948 -35.338)"/>
        <path id="Path_226" d="M280.507 74.322a15.786 15.786 0 0 1-.522 3.565 18.7 18.7 0 0 1-.815-5.576 2.393 2.393 0 0 1 1.337 2.011z" class="cls-5" transform="translate(-18.757 -35.338)"/>
        <path id="Path_227" d="M280 77.228s1.146.789 1.92.089A6.492 6.492 0 0 0 283.058 75 6.442 6.442 0 0 0 280 77.228z" class="cls-5" transform="translate(-18.531 -34.603)"/>
        <path id="Path_228" d="M281.193 74.444c-1.018.471-1.273 2.953-1.273 2.966a6.442 6.442 0 0 1 3.157-2.228s-.929-1.21-1.884-.738z" class="cls-4" transform="translate(-18.552 -34.785)"/>
        <path id="Path_229" d="M281.064 74.585a2.228 2.228 0 0 1-1.273-2.075 4.609 4.609 0 0 1 1.849-3.03 15.277 15.277 0 0 0-.573 5.105z" class="cls-4" transform="translate(-18.588 -36.111)"/>
        <path id="Path_230" d="M282.208 71.794a10.325 10.325 0 0 1-1.413 2.788 15.278 15.278 0 0 1 .6-5.092 2.673 2.673 0 0 1 .813 2.304z" class="cls-5" transform="translate(-18.319 -36.108)"/>
        <path id="Path_231" d="M280.92 73.72s.929 1.184 1.859.942 1.707-1.439 1.732-1.426a6.365 6.365 0 0 0-3.591.484z" class="cls-5" transform="translate(-18.279 -35.105)"/>
        <path id="Path_232" d="M282.855 72.05c-1.12 0-1.986 1.961-1.935 1.973a6.365 6.365 0 0 1 3.59-.484s-.585-1.552-1.655-1.489z" class="cls-4" transform="translate(-18.28 -35.409)"/>
        <path id="Path_233" d="M282.714 72.1a2.418 2.418 0 0 1-.7-2.33c.458-1.413 2.61-2.024 2.61-1.961a12.106 12.106 0 0 0-1.91 4.291z" class="cls-4" transform="translate(-17.998 -36.567)"/>
        <path id="Path_234" d="M284.663 70.2a7.357 7.357 0 0 1-2.113 1.9 12.107 12.107 0 0 1 1.909-4.29 2.546 2.546 0 0 1 .2 2.394z" class="cls-5" transform="translate(-17.834 -36.566)"/>
        <path id="Path_235" d="M282.65 71.34s.611 1.426 1.591 1.591a3.819 3.819 0 0 0 2.088-.56 8.045 8.045 0 0 0-3.679-1.031z" class="cls-5" transform="translate(-17.807 -35.603)"/>
        <path id="Path_236" d="M285.069 70.6c-1.108-.446-2.457.942-2.418.968a8.046 8.046 0 0 1 3.679 1.031s-.204-1.58-1.261-1.999z" class="cls-4" transform="translate(-17.807 -35.829)"/>
        <path id="Path_237" d="M289.71 84.23s.127 1.6 1.362 1.948 2.992-1.273 2.94-1.273a9.523 9.523 0 0 1-4.3-.675z" class="cls-4" transform="translate(-15.879 -32.083)"/>
        <path id="Path_238" d="M292.3 83.56a7.206 7.206 0 0 0-2.546.853 9.522 9.522 0 0 0 4.3.675s-.612-1.477-1.754-1.528z" class="cls-5" transform="translate(-15.868 -32.266)"/>
        <path id="Path_239" d="M289.74 84.9a3.119 3.119 0 0 1-.318-2.355c.395-.955 1.591-1.527 1.591-1.579a10.351 10.351 0 0 1-1.273 3.934z" class="cls-5" transform="translate(-15.986 -32.972)"/>
        <path id="Path_240" d="M291.725 83.236c-.293 1.273-2.088 1.719-2.075 1.668a10.35 10.35 0 0 0 1.273-3.934 2.864 2.864 0 0 1 .8 2.266z" class="cls-4" transform="translate(-15.895 -32.973)"/>
        <path id="Path_241" d="M292 83.1s.535 1.553 1.744 1.4 2.381-2.546 2.33-2.546A7.957 7.957 0 0 1 292 83.1z" class="cls-4" transform="translate(-15.254 -32.706)"/>
        <path id="Path_242" d="M294.164 81.362a8.2 8.2 0 0 0-2.164 1.92 7.957 7.957 0 0 0 4.074-1.12s-.866-1.235-1.91-.8z" class="cls-5" transform="translate(-15.254 -32.892)"/>
        <path id="Path_243" d="M292.114 83.659a3.157 3.157 0 0 1-.9-2.228 5.347 5.347 0 0 1 1.031-2.241 13.239 13.239 0 0 1-.131 4.469z" class="cls-5" transform="translate(-15.469 -33.459)"/>
        <path id="Path_244" d="M293.359 81.12a3.413 3.413 0 0 1-1.439 2.546 13.237 13.237 0 0 0 .128-4.466 2.546 2.546 0 0 1 1.311 1.92z" class="cls-4" transform="translate(-15.275 -33.456)"/>
        <path id="Path_245" d="M293.75 81.153s.891 1.351 1.948.662 1.477-3.692 1.413-3.7a8.427 8.427 0 0 1-3.361 3.043z" class="cls-4" transform="translate(-14.776 -33.754)"/>
        <path id="Path_246" d="M295.163 78.265a13.357 13.357 0 0 0-1.413 2.966 8.427 8.427 0 0 0 3.361-3.043 1.375 1.375 0 0 0-1.948.076z" class="cls-5" transform="translate(-14.776 -33.832)"/>
        <path id="Path_247" d="M293.926 81.4a2.737 2.737 0 0 1-1.4-1.872 8.592 8.592 0 0 1 .319-2.826 15.174 15.174 0 0 1 1.082 4.7z" class="cls-5" transform="translate(-15.116 -34.139)"/>
        <path id="Path_248" d="M294.476 78.126a4.608 4.608 0 0 1-.624 3.271 15.176 15.176 0 0 0-1.082-4.7 2 2 0 0 1 1.706 1.426z" class="cls-4" transform="translate(-15.044 -34.139)"/>
        <path id="Path_249" d="M281.676 81.829a1.8 1.8 0 0 0-.382 2.276 6.365 6.365 0 0 0 3.081 2.661 18.575 18.575 0 0 1-2.7-4.939z" class="cls-4" transform="translate(-18.245 -32.737)"/>
        <path id="Path_250" d="M284.1 84.366a16.093 16.093 0 0 0-2.546-2.546 18.572 18.572 0 0 0 2.7 4.939 2.394 2.394 0 0 0-.156-2.394z" class="cls-5" transform="translate(-18.107 -32.741)"/>
        <path id="Path_251" d="M281.62 81.973s.433-1.273 1.477-1.273a6.62 6.62 0 0 1 2.317 1.1 6.365 6.365 0 0 1-3.794.178z" class="cls-5" transform="translate(-18.088 -33.046)"/>
        <path id="Path_252" d="M284.382 83.38c-1.107.229-2.8-1.6-2.763-1.629a6.365 6.365 0 0 0 3.819-.142s-.012 1.541-1.056 1.771z" class="cls-4" transform="translate(-18.088 -32.798)"/>
        <path id="Path_253" d="M284.29 83.8a2.254 2.254 0 0 0 .255 2.406 4.8 4.8 0 0 0 3.31 1.273 15.644 15.644 0 0 1-3.565-3.679z" class="cls-4" transform="translate(-17.423 -32.2)"/>
        <path id="Path_254" d="M287.056 85.175a10.643 10.643 0 0 0-2.816-1.375 15.645 15.645 0 0 0 3.565 3.717 2.687 2.687 0 0 0-.751-2.342z" class="cls-5" transform="translate(-17.373 -32.2)"/>
        <path id="Path_255" d="M284.28 84.054s0-1.5.917-1.872a4.379 4.379 0 0 1 2.254.089 6.454 6.454 0 0 1-3.17 1.782z" class="cls-5" transform="translate(-17.361 -32.671)"/>
        <path id="Path_256" d="M287.017 84.47c-.891.688-2.763-.369-2.737-.407a6.455 6.455 0 0 0 3.17-1.782s.42 1.489-.433 2.189z" class="cls-4" transform="translate(-17.362 -32.615)"/>
        <path id="Path_257" d="M287.007 84.57a2.444 2.444 0 0 0 .853 2.291 3.819 3.819 0 0 0 3.259 0 12.184 12.184 0 0 1-4.112-2.291z" class="cls-4" transform="translate(-16.626 -31.99)"/>
        <path id="Path_258" d="M289.866 84.832a7.982 7.982 0 0 0-2.826-.255 12.183 12.183 0 0 0 4.112 2.291 2.546 2.546 0 0 0-1.286-2.036z" class="cls-5" transform="translate(-16.608 -31.997)"/>
        <path id="Path_259" d="M287.023 85.04a2.788 2.788 0 0 1 .306-2.241 3.666 3.666 0 0 1 2-.789 8.058 8.058 0 0 1-2.3 3.03z" class="cls-5" transform="translate(-16.643 -32.689)"/>
        <path id="Path_260" d="M289.546 84.355c-.611 1.018-2.546.738-2.546.688A8.058 8.058 0 0 0 289.342 82a2.715 2.715 0 0 1 .204 2.355z" class="cls-4" transform="translate(-16.619 -32.692)"/>
        <path id="Rectangle_28" d="M0 0H51.889V8.606H0z" class="cls-6" transform="rotate(71.456 88.878 170.38)"/>
        <path id="Rectangle_29" d="M0 0H64.874V19.045H0z" class="cls-6" transform="rotate(-108.544 143.261 -31.136)"/>
        <path id="Rectangle_30" d="M0 0H43.27V10.375H0z" class="cls-2" transform="rotate(-108.544 139.698 -37.582)"/>
        <path id="Path_261" d="M324.989 261.169a16.664 16.664 0 0 1-9.742-6.123l-8.262 11.636-7.637-32.246c-2.266-9.1-12.221-16.308-21.82-21.311-21.515 6.365-20.8-13.151-20.368-16.982-4.176-25.168 14.258-46.568 30.374-66.694l-18.077-6.187C200.84 185.895 194.5 290.029 194.5 290.029l83.219 12.348c-12.922-15.48 1.719-23.972-5.689-24.837-1.579-.178 2.241-3.233 2.546-4.646s-1.273-2.444-.942-3.641a31.827 31.827 0 0 1 9.217-14.4c.484 40.241 25.894 49.229 25.894 49.229z" class="cls-7" transform="translate(-41.875 -21.427)"/>
        <path id="Path_264" d="M297.947 234.263L281.4 265.452c-17.186-23.233-16.231-45.193-16.231-45.193-7.638 37.237 23.869 55.7 23.869 55.7L302.72 238.4z" class="cls-8" transform="translate(-22.907 5.059)"/>
        <path id="Path_265" d="M199.49 257.416c.42 5.092 5.513-2.113 5.513-2.113s.853-20.8.433-23.348-5.946 25.461-5.946 25.461z" class="cls-8" transform="translate(-40.513 8.207)"/>
        <path id="Path_266" d="M265.043 274.3c-.509-4.557-86.987-46.033 1.909-129.214 0 0-20.521 6.607-20.152 1.707a29.4 29.4 0 0 1 4.812-14.13c-14.423 15.824-42.329 61.22-34.372 99.106 8.8 42.112 34.474 42.748 34.474 42.748a36.409 36.409 0 0 1-22.7-29.916s8.442 20.366 36.029 29.699z" class="cls-8" transform="translate(-36.049 -18.86)"/>
        <path id="Path_267" d="M252.272 203.045c1.273.42-4.214-4.379-4.927-6.849a7.511 7.511 0 0 1 .343-5.207 23.335 23.335 0 0 1-1.414-9.089c-3.03 3.335-12.616 14.628-12.616 24.009 0 0 5.563-15.76 11.292-17.033.001 0-2.544 10.824 7.322 14.169z" class="cls-8" transform="translate(-31.183 -5.415)"/>
        <path id="Path_268" d="M267.03 222.1c-9.548 13.369-23.87 3.819-23.87 3.819l15.595 18.459s4.137-12.412 10.5-18.141l4.774-12.729s-5.001 5.782-6.999 8.592z" class="cls-8" transform="translate(-28.589 3.215)"/>
        <path id="Path_269" d="M230.133 210.987l8.912-4.137-12.094 2.864 2.549 11.776z" class="cls-8" transform="translate(25.162 35.655)"/>
        <path id="Path_270" d="M252.319 194.131l.8-1.591 4.29-1.909 5.333 1.986 3.425 5.092s-9.637.242-12.26-1.031-1.588-2.547-1.588-2.547z" class="cls-8" transform="translate(-26.14 -3.031)"/>
        <path id="Path_271" d="M204.45 168.316l7.218-3.817 2.648 10.083 9.4-2.864-.484-7.32-11.346-1.377z" class="cls-8" transform="translate(19.019 23.688)"/>
        <path id="Path_274" d="M248.41 193.271s3.819-2.966 5.932-1.693a13.661 13.661 0 0 1 3.718 3.7l-2.546 2.444a9.561 9.561 0 0 1-7.1-4.456z" class="cls-8" transform="translate(-27.156 -2.859)"/>
        <path id="Path_275" d="M246.975 188.09a8.224 8.224 0 0 0 4.252 6.684s3.285 1.808 1.477 2.126-4.659-1.808-5.932-5.207.203-3.603.203-3.603z" class="cls-8" transform="translate(-27.745 -3.725)"/>
        <path id="Path_276" d="M249.5 197.264l3.921-7.218-8.472-10.286-1.273.64s-1.17 13.468 5.824 16.864z" class="cls-8" transform="translate(-28.47 -5.999)"/>
        <path id="Path_277" d="M253.994 131.062l18.077 6.187a263.642 263.642 0 0 1 18.662-20.916l7.765-1.2 2.966-3.45h2.177s1.273-1.031 1.005-1.909c-.955-2.864-2.9-1.833-3.654-3.348-1.413-2.826-2.966-5.983-3.5-7.253-.828-1.986-.777-4.8-3.6-4.456-16.231 1.909-9.548 12.729-13.545 16.448a173.035 173.035 0 0 0-29.5 22.762c1.034-.917 2.091-1.927 3.147-2.865z" class="cls-1" transform="translate(-26.489 -29.229)"/>
        <path id="Path_278" d="M306.12 206.26h-17.5l-4.456 5.729s.319 3.5 3.182 4.137c1.273.28 1.986-.586 2.381-1.629.56 3.9 4.9 8.8 6.365 10.35l-5.358 7.54a16.664 16.664 0 0 0 9.742 6.123l4.71-12.373c3.162-7.475.934-19.877.934-19.877z" class="cls-1" transform="translate(-17.394 1.236)"/>
        <path id="Path_279" fill="#00152d" d="M195.841 252.339s24.188-23.755 82.659-2.3l-2.457 6.556s55.609 25.458 69.8 69.126l-78.611 31.914 7.435 22.836s-3.129 4.469-9.306-2.139-17.046-31.189-17.046-31.189l59.985-34.465s-31.661-28.415-66.5-20.776c0 0-37.351 56.37-22.329 130.729 0 0 1.477 36.267-8.911 34.461s-4.252-34.2-4.252-34.2-32.908-71.944-10.467-170.553z" transform="translate(-43.649 10.739)"/>
        <path id="Path_280" d="M258.857 118.3s9.764-11.876 19.1 9.331l-8.058 11.89s-8.911-14.856-22.074-10.618z" class="cls-8" transform="translate(-27.317 -23.685)"/>
        <path id="Path_281" d="M289.509 225.42s6.913 7.855 14.589 7l-6.531 17.823s-11.139.213-15.748-15.913z" class="cls-8" transform="translate(-18.033 6.467)"/>
        <path id="Path_282" d="M236.46 463.708a316.454 316.454 0 0 1-10.923-33.264c-3.081-11.267-5.537-22.712-7.549-34.219l-1.273-8.656-1.031-8.708c-.395-2.9-.6-5.818-.815-8.733s-.522-5.818-.548-8.747a213.87 213.87 0 0 1 1.363-34.97l-.535 8.733c0 1.451-.229 2.9-.229 4.366v13.1l.382 8.72a317.262 317.262 0 0 0 4.01 34.692c1.9 11.457 4.366 22.915 7.231 34.168 1.439 5.653 2.966 11.279 4.646 16.853s3.362 11.157 5.271 16.665z" class="cls-10" transform="translate(-36.517 34.042)"/>
        <path id="Path_283" d="M237.652 428.533a142 142 0 0 1-5.4-13.609c-1.579-4.609-2.966-9.306-4.267-14s-2.3-9.5-3.145-14.309A136.373 136.373 0 0 1 223.05 372c.484 2.406.789 4.825 1.273 7.206L225 382.8l.777 3.565c1.031 4.748 2.113 9.5 3.413 14.182s2.546 9.382 3.959 14q1.057 3.5 2.177 6.976c.76 2.404 1.549 4.708 2.326 7.01z" class="cls-10" transform="translate(-34.08 46.49)"/>
        <ellipse id="Ellipse_4" cx="43.538" cy="4.481" fill="#333" opacity="0.3" rx="43.538" ry="4.481" transform="translate(179.741 513.332)"/>
        <g id="Group_10" opacity="0.3" transform="translate(277.981 317.92)">
            <path id="Path_284" fill="#333" d="M320.136 293c2.648 4.214 5.092 8.5 7.562 12.807s4.786 8.656 7.1 13.036l.6 1.133-1.2.548c-3.386 1.515-6.747 3.081-10.185 4.545s-6.827 2.953-10.248 4.379c-6.862 2.839-13.761 5.614-20.8 8.046 6.518-3.59 13.2-6.849 19.911-10.044 3.361-1.591 6.721-3.157 10.121-4.672s6.785-3 10.185-4.494l-.585 1.68q-3.3-6.594-6.492-13.341c-2.038-4.495-4.084-9.001-5.969-13.623z" transform="translate(-292.969 -293)"/>
        </g>
        <path id="Path_285" d="M160.287 47.178c-2.443-2.433-4.32-4.526-4.423-8.134-.092-3.093.7-6.187.752-9.279a1.547 1.547 0 0 0-3.093 0c-.071 4.031-1.392 8.249-.433 12.238.742 3.093 2.835 5.237 5.01 7.413a1.564 1.564 0 0 0 2.186-2.237z" class="cls-7" transform="translate(-42.394 -17.961)"/>
        <path id="Path_286" d="M169.1 99.3c-.412 1.031-1.9 1.9-2.784 2.5-1.1.732-2.248 1.392-3.381 2.062-1.7 1.031-.142 3.711 1.557 2.681 2.691-1.629 6.382-3.319 7.588-6.423.72-1.86-2.272-2.664-2.98-.82z" class="cls-7" transform="translate(-42.101 -15.793)"/>
        <path id="Path_287" d="M111.7 86.382c-1.165 1.485-2.062 3.351-1.031 5.155s2.6 1.712 4.33 1.835c-.175 1.6-1.351 3.289-1.515 4.836a4.33 4.33 0 0 0 1.28 3.763c1.371 1.454 3.546-.732 2.186-2.186-1.165-1.227.433-3.639.8-4.887a6.381 6.381 0 0 0 .206-3.289 1.515 1.515 0 0 0-1.031-1.031c-1.4-.3-3.969.34-2.938-1.938.587-1.309 3.536-3.753 4.949-2.423s3.627-.814 2.186-2.186c-3.211-3.02-7.17-.505-9.422 2.351z" class="cls-7" transform="translate(-43.711 -16.276)"/>
        <path id="Path_288" d="M349.334 49.673l.649.206a1.361 1.361 0 0 0 .949-.051l.154.082h.062l.213.213a1.547 1.547 0 0 0 2.186-2.186 4.267 4.267 0 0 0-4.217-1.289 1.557 1.557 0 0 0 0 3.021z" class="cls-7" transform="translate(-36.338 -17.395)"/>
        <path id="Path_289" d="M354.192 89.088c-1.907.732-4.732 2.145-7.217 2.588a16.789 16.789 0 0 1 6.784-4.474c1.948-.484 1.114-3.464-.825-2.98-2.475.619-4.2 2.31-6.187 3.8a12.288 12.288 0 0 0-4.124 4.361 1.564 1.564 0 0 0 .924 2.268c2.475.64 5.227-.134 7.8-1.1a17.136 17.136 0 0 0-2.31 2.619 12.792 12.792 0 0 0-2.062 6.044 1.546 1.546 0 0 0 3.093 0c-.2-4.978 6.187-7.062 6.093-11.63a1.557 1.557 0 0 0-1.98-1.493z" class="cls-7" transform="translate(-36.515 -16.229)"/>
        <path id="Path_290" d="M376.592 145.274v-7.557a1.546 1.546 0 1 0-3.093 0v7.557a1.546 1.546 0 1 0 3.093 0z" class="cls-7" transform="translate(-35.553 -14.618)"/>
        <path id="Path_291" d="M386.417 169.5a3.2 3.2 0 0 0-2.464 1.144 1.6 1.6 0 0 0 0 2.186 1.557 1.557 0 0 0 2.186 0 2.063 2.063 0 0 1 .2-.227h.082a1.547 1.547 0 1 0 0-3.093z" class="cls-7" transform="translate(-35.243 -13.585)"/>
        <path id="Path_292" d="M107.076 191.723a3.342 3.342 0 0 0-1.722-1.68 11.125 11.125 0 0 0-2.711-.619 22.212 22.212 0 0 0-3.6-.6 1.547 1.547 0 0 0 0 3.093 29.682 29.682 0 0 1 3.649.629c.835.134 1.856.082 1.691 1.175-.2 1.32 1.493 2.866 2.588 1.505a13.556 13.556 0 0 0 .969-1.32 1.444 1.444 0 0 0-.866-2.186z" class="cls-7" transform="translate(-44.104 -12.985)"/>
        <path id="Path_293" d="M159.324 156.622l-1.371 1.371a1.577 1.577 0 0 0 0 2.186 1.557 1.557 0 0 0 2.186 0l1.371-1.371a1.547 1.547 0 0 0-2.186-2.186z" class="cls-7" transform="translate(-42.246 -13.997)"/>
        <path id="Path_294" d="M426.188 43.557c-3.351 1.268-7.217 3.381-8.372 7.1s2.711 5.526 5.629 6.187c1.939.433 2.763-2.546.825-2.987a7.659 7.659 0 0 1-2.681-.959c-1.165-.794-.846-1.557-.113-2.619a11.258 11.258 0 0 1 5.537-3.743c1.845-.693 1.051-3.683-.825-2.979z" class="cls-7" transform="translate(-34.187 -17.492)"/>
        <path id="Path_295" d="M433.851 79.706a1.588 1.588 0 0 0-2.124.557L431 81.644a1.588 1.588 0 0 0 .557 2.062 1.557 1.557 0 0 0 2.113-.557c.227-.454.454-.917.69-1.371a1.6 1.6 0 0 0-.516-2.072z" class="cls-7" transform="translate(-33.777 -16.374)"/>
        <path id="Path_296" d="M421.047 169.5a1.547 1.547 0 1 0 1.547 1.547 1.547 1.547 0 0 0-1.547-1.547z" class="cls-7" transform="translate(-34.129 -13.585)"/>
        <path id="Path_297" d="M406.285 231.964c-.227 1.289-.3 2.6-.484 3.9-.154 1.124-.268 2.866-1.175 3.67-1.493 1.33.7 3.505 2.186 2.186 2.34-2.062 1.959-6.116 2.454-8.928.349-1.952-2.63-2.818-2.981-.828z" class="cls-7" transform="translate(-34.605 -11.685)"/>
        <path id="Path_298" d="M348.21 216.7h.051z" class="cls-7" transform="translate(-36.338 -12.123)"/>
        <path id="Path_299" d="M350.021 217.385c-.474-.134-.949-.309-1.422-.412a.846.846 0 0 1-.237-.113c.237.237-.722.213-.051 0a1.032 1.032 0 0 0-.268-.154.938.938 0 0 1 .278.142 9.345 9.345 0 0 0 1.371-1.031 15.175 15.175 0 0 1 1.588-.794c1.825-.773.247-3.443-1.557-2.67-2.062.887-5.99 3.093-4.3 5.918a5.206 5.206 0 0 0 3.319 1.948c1.124.319 2.454.309 2.268 1.722-.247 1.969 2.844 1.948 3.093 0 .358-2.731-1.783-3.927-4.082-4.556z" class="cls-7" transform="translate(-36.437 -12.262)"/>
        <path id="Path_300" d="M139.426 265.953c-.835.763-2.691.258-3.711.238-1.991-.051-1.991 3.041 0 3.093s4.206.412 5.9-1.144c1.471-1.352-.724-3.54-2.189-2.187z" class="cls-7" transform="translate(-42.967 -10.61)"/>
        <path id="Path_301" d="M209.971 136.222a1.536 1.536 0 0 0 .681 2.987h.114a3.094 3.094 0 0 1 .649.443c.443.371.853.794 1.309 1.165a1.6 1.6 0 0 0 2.186 0 1.557 1.557 0 0 0 0-2.186c-1.462-1.151-2.805-2.842-4.939-2.409z" class="cls-7" transform="translate(-40.663 -14.618)"/>
        <path id="Path_302" d="M227.872 28.034a1.557 1.557 0 0 0-1.493-1.134 6.815 6.815 0 0 0-4.124 1.505 1.588 1.588 0 0 0-.557 2.113 1.564 1.564 0 0 0 2.124.557 7.052 7.052 0 0 1 1.4-.825l.186-.062a1.691 1.691 0 0 0 1.474.361 1.6 1.6 0 0 0 1.082-1.907z" class="cls-7" transform="translate(-40.264 -18.004)"/>
        <path id="Path_303" d="M60.1 44.181c-1.938-.071-3.711.732-5.67.711-2.237-.031-4.371.142-6.361-.887-1.505-.8-3.216 1.185-1.877 2.423l.454.422a1.505 1.505 0 0 0 1.2.412 14.436 14.436 0 0 0 4.9.722 26.744 26.744 0 0 0 3.856 0 19.331 19.331 0 0 1 3.516-.629c1.974-.019 1.974-3.112-.018-3.174z" class="cls-7" transform="translate(-45.711 -17.48)"/>
        <path id="Path_304" d="M53.789 143c-2.454 1.66-5.689 2.815-6.9 5.732a1.557 1.557 0 0 0 1.031 1.907 1.6 1.6 0 0 0 1.907-1.031c.371-.907 1.7-1.588 2.475-2.062 1.031-.619 2.062-1.155 3-1.815 1.683-1.131.137-3.755-1.513-2.731z" class="cls-7" transform="translate(-45.676 -14.413)"/>
        <path id="Path_305" d="M71.624 250.934c-2.062-.278-3.794-1.691-5.907-1.433a1.6 1.6 0 0 0-1.547 1.547 1.547 1.547 0 0 0 1.547 1.547c1.763-.213 3.361 1.082 5.083 1.32a1.619 1.619 0 0 0 1.907-1.082 1.557 1.557 0 0 0-1.083-1.9z" class="cls-7" transform="translate(-45.138 -11.108)"/>
        <path id="Path_306" d="M379.273 292.17c-2.258.3-3.433 2.062-4.918 3.567a14.114 14.114 0 0 0-3.278 4.794c-1.65.546-.825 3.271 1.031 2.916l.557-.1a1.536 1.536 0 0 0 1.082-1.082 9.011 9.011 0 0 1 2.485-4.053c.711-.722 1.959-2.815 3.021-2.948 1.966-.264 1.99-3.364.02-3.094z" class="cls-7" transform="translate(-35.657 -9.785)"/>
        <path id="Path_307" d="M386.571 341.747l-2.743-1.371a1.6 1.6 0 0 0-2.124.557 1.577 1.577 0 0 0 .557 2.062l2.753 1.382a1.588 1.588 0 0 0 2.062-.557 1.564 1.564 0 0 0-.506-2.072z" class="cls-7" transform="translate(-35.305 -8.297)"/>
        <path id="Path_308" d="M423.849 283.6a45.456 45.456 0 0 1-4.567 5.866c-1.268 1.515.907 3.722 2.186 2.186a50.382 50.382 0 0 0 5.062-6.5 1.55 1.55 0 1 0-2.681-1.557z" class="cls-7" transform="translate(-34.147 -10.074)"/>
        <path id="Path_309" d="M457.308 153.954c-1.618 1.609-1.155 3.856-1.134 5.907a1.547 1.547 0 1 0 3.093 0c0-1.031-.557-2.938.227-3.722 1.421-1.402-.764-3.588-2.186-2.185z" class="cls-7" transform="translate(-32.995 -14.081)"/>
        <path id="Path_310" d="M69.232 335.5h-6.186a1.546 1.546 0 1 0 0 3.093h6.187a1.546 1.546 0 1 0 0-3.093z" class="cls-7" transform="translate(-45.221 -8.441)"/>
        <path id="Path_311" d="M113.562 331.047c0 5.32 1.031 10.908-1.856 15.716a1.557 1.557 0 0 0 2.681 1.564c3.2-5.351 2.3-11.341 2.268-17.28a1.546 1.546 0 1 0-3.093 0z" class="cls-7" transform="translate(-43.671 -8.628)"/>
        <path id="Path_312" d="M109.047 381.5a1.547 1.547 0 1 0 1.547 1.547 1.547 1.547 0 0 0-1.547-1.547z" class="cls-7" transform="translate(-43.796 -7.017)"/>
    </g>
    <g id="DESIGNED_BY_FREEPIK" transform="translate(220.808 129.168)">
        <path id="Path_313" d="M278.32 150.91c-.114-.306-5.092-10.4-14.857-1.68s-6.111 15.644-6.111 15.644l20.368-5.958z" class="cls-14" transform="translate(-245.705 -144.471)"/>
        <path id="Path_314" d="M261.9 156.987s-17.5 17.454-13.138 22.673c6.442 7.817 16 9.663 20.368 8.619 0 0 23.984-10.541 11.762-27.46-9.485-13.219-18.992-3.832-18.992-3.832z" class="cls-1" transform="translate(-248.06 -142.269)"/>
        <path id="Path_315" d="M269.7 156.861s-2.33 7.295.891 13c0 0 1.5.356 2.241-2.546 0 0-1.057 5.245.662 8.479 0 0-11.585 8.351-9.281 10.821s6.518-1.273 6.518-1.273-5.653 6.2-9.306 5.537c0 0 1.553 5.5 8.262 4.48s15.7-4.329 22.087-15.7c0 0 7.868 4.786.942-4.748 0 0 5.461-1.719 5.945-5.092s-5.882 1.2-5.882 1.2-5.679-34.857-12.179-18.308c0 0-4.646-13.813-6.3-5.092z" class="cls-14" transform="translate(-244.41 -144.732)"/>
        <path id="Path_316" d="M269.429 176.137s6.721-1.158 6.827 2.877-7.715 8.462-12.729 1.961z" class="cls-1" transform="translate(-243.841 -136.201)"/>
    </g>
</svg>
