<svg xmlns="http://www.w3.org/2000/svg" width="102.485" height="133.081" viewBox="0 0 102.485 133.081">
    <defs>
        <style>
            .cls-1{fill:#38324c}.cls-2{fill:#eea78e}
        </style>
    </defs>
    <g id="head" transform="translate(.001 .001)">
        <path id="Path_142" d="M302.985 184.33c-.7-.222-25.48-6.023-24.316 23.17s18.477 32.649 18.477 32.649l19.031-43.532z" class="cls-1" data-name="Path 142" transform="translate(-278.63 -166.231)"/>
        <path id="Path_143" d="M298.191 228.657c.406.333-5.377 21.9-4.342 34.219 0 0-35.7-.868-34.7-1.035s4.3-25.72 4.3-25.72 25.892-14.577 34.742-7.464z" class="cls-2" data-name="Path 143" transform="translate(-224.632 -129.796)"/>
        <path id="Path_144" d="M296.279 228.657a35.643 35.643 0 0 1-.905 5.007c-6.319 6.707-18.994 17.516-36.233 19.382 1.183-7.391 2.4-16.925 2.4-16.925s25.887-14.577 34.738-7.464z" class="cls-2" data-name="Path 144" transform="translate(-222.719 -129.796)"/>
        <path id="Path_145" d="M255.93 220.438s5.192 54.729 20.694 54.729c22.93 0 39.91-13.821 44.455-22.911 0 0 16.13-56.151-31.023-59.126-36.732-2.311-34.126 27.308-34.126 27.308z" class="cls-2" data-name="Path 145" transform="translate(-244.175 -158.364)"/>
        <path id="Path_146" d="M256.005 212.992s9.386 14.338 24.02 16.888c0 0 2.772-2.088-1.164-7.391 0 0 7.631 9.238 15.742 10.883 0 0-2.088 31.725 5.543 31.263s7.169-12.934 7.169-12.934 2.716 18.477-3.7 23.835c0 0 11.825 5.1 19.7-7.853s15.059-33.129 4.4-60.216c0 0 19.7-6.707-6.947-8.333 0 0 4.878-11.807-.222-17.368s-6.375 11.807-6.375 11.807-69.344-39.836-49.666-5.1c0 0-30.8-11.567-17.83 3.7z" class="cls-1" data-name="Path 146" transform="translate(-232.241 -174.255)"/>
        <path id="Path_147" d="M249.711 220.389s7.649-13.193 14.782-7.631 3.7 25.24-14.782 24.537z" class="cls-2" data-name="Path 147" transform="translate(-176.964 -142.775)"/>
    </g>
</svg>
