<svg xmlns="http://www.w3.org/2000/svg" width="1177.092" height="610.003" viewBox="0 0 1177.092 610.003">
    <defs>
        <linearGradient id="linear-gradient" x1=".55" x2=".55" y1=".255" y2="1.093" gradientUnits="objectBoundingBox">
            <stop offset="0" stop-color="#fff"/>
            <stop offset="1" stop-color="#fff" stop-opacity="0"/>
        </linearGradient>
        <linearGradient id="linear-gradient-2" x1="-2.614" x2="-2.614" y1="-.245" y2=".814" gradientUnits="objectBoundingBox">
            <stop offset=".33" stop-color="#fff"/>
            <stop offset=".39" stop-color="#fff" stop-opacity=".98"/>
            <stop offset=".48" stop-color="#fff" stop-opacity=".922"/>
            <stop offset=".57" stop-color="#fff" stop-opacity=".82"/>
            <stop offset=".67" stop-color="#fff" stop-opacity=".678"/>
            <stop offset=".77" stop-color="#fff" stop-opacity=".502"/>
            <stop offset=".88" stop-color="#fff" stop-opacity=".278"/>
            <stop offset=".99" stop-color="#fff" stop-opacity=".02"/>
            <stop offset="1" stop-color="#fff" stop-opacity="0"/>
        </linearGradient>
        <style>
            .cls-3{fill:#89caef}.cls-4{fill:#41364f}.cls-5,.cls-6{fill:none;stroke-miterlimit:10;stroke:#fff;stroke-width:.5px}.cls-6{stroke:#38324c}.cls-7{fill:#f1c40f}.cls-8{fill:#0067e0}.cls-10{fill:#1bc5bd}.cls-11{fill:#333}.cls-12{fill:#38324c}.cls-13{fill:#eea78e}.cls-16{fill:#e6e6e6}.cls-17{fill:#cddbe6}
        </style>
    </defs>
    <g id="illustration_login" data-name="illustration login" transform="translate(.04 .002)">
        <g id="OBJECTS" transform="translate(-.04 -.002)">
            <path id="Path_97" fill="url(#linear-gradient)" d="M58 683.58h1061.37s65.778-169.3-126.844-206.48C689.3 418.583 810.806 122.01 488.808 123.322c-76.421.314-173.24 13.654-264.922 267.916C157.258 576.007 90.63 645.739 58 683.58z" data-name="Path 97" transform="translate(-58 -123.318)"/>
            <path id="Path_98" fill="url(#linear-gradient-2)" d="M832.09 491.3H533.41s26.108-55.1 69.6-53.583 60.826-55.172 105.836-52.271 49.3 47.744 73.908 52.863S832.09 491.3 832.09 491.3z" data-name="Path 98" transform="translate(345.002 98.799)"/>
            <path id="Rectangle_21" d="M0 0H190.571V16.796H0z" class="cls-3" data-name="Rectangle 21" transform="translate(634.35 322.279)"/>
            <path id="Path_99" d="M504.516 331.444h-61.473a5.081 5.081 0 0 1-4.176-2.162l-9.756-14.56a5.044 5.044 0 0 1 4.194-7.853h80.984a5.044 5.044 0 0 1 4.194 7.853l-9.793 14.56a5.026 5.026 0 0 1-4.174 2.162z" class="cls-3" data-name="Path 99" transform="translate(255.865 32.279)"/>
            <path id="Path_100" d="M451.188 291.87h-66.85L367.82 316.5h99.886z" class="cls-4" data-name="Path 100" transform="translate(311.873 247.421)"/>
            <path id="Rectangle_22" d="M0 0H29.489V175.568H0z" class="cls-4" data-name="Rectangle 22" transform="translate(714.891 363.723)"/>
            <path id="Line_1" d="M0 0L29.489 0" class="cls-5" data-name="Line 1" transform="translate(714.891 363.723)"/>
            <path id="Line_2" d="M0 0L83.738 0" class="cls-6" data-name="Line 2" transform="translate(686.4 339.075)"/>
            <path id="Line_3" d="M0 0L29.489 0" class="cls-5" data-name="Line 3" transform="translate(714.891 539.291)"/>
            <path id="Path_101" d="M366.46 146.73l8 51.163h36.474l7.982-51.163z" class="cls-7" data-name="Path 101" transform="translate(310.72 124.386)"/>
            <path id="Path_102" d="M453.73 308.089a16.627 16.627 0 0 1-4.49-.61l1.219-4.379a12.028 12.028 0 1 0 3.27-23.6v-4.54a16.629 16.629 0 1 1 0 33.129z" class="cls-7" data-name="Path 102" transform="translate(273.652 5.173)"/>
            <path id="Path_103" d="M210.276 425.584c.24-4.157-47.56-185.231 95.36-189.647s103.822 92.385 113.134 123.278 14.042 68.845 115.444 72.467c0 0 69.492-10.107 52.881 82.869l-9.534 91.276s-208.586 44.1-329.832-.573z" class="cls-8" data-name="Path 103" transform="translate(64.734 -27.975)"/>
            <path id="Path_104" fill="#004f9e" d="M518.668 431.682c-101.4-3.7-106.113-41.647-115.444-72.467s29.785-127.694-113.134-123.278a123.685 123.685 0 0 0-42.682 8.259c-13.913 14.689-27.715 35.568-26.163 61.861 3.215 51.735 12.176 88.08 25.295 114.224 14.578 29.064 40.3 60.124 118.252 54.267 58.812-4.416 159.789-9.109 205.852-11.086-12.195-37.545-51.976-31.78-51.976-31.78z" data-name="Path 104" transform="translate(80.28 -27.975)"/>
            <path id="Path_105" d="M418.086 438l39.245 26.921s-48.169 3.7-71.081 0L389.336 438z" class="cls-10" data-name="Path 105" transform="translate(220.256 143.437)"/>
            <path id="Path_106" d="M454.02 427.49l47.578.961s-38.247 29.563-59.422 39.023L430 443.214z" class="cls-10" data-name="Path 106" transform="translate(257.342 134.527)"/>
            <path id="Path_107" d="M320.422 319.823s116.22-5.284 140.425-4.915 28.381 24.334 30.413 36.437c2.531 14.56 22.653 191.015 22.653 191.015s-39.855 2.938-41.277 0C432.282 459.4 434.3 380.834 434.3 380.834s-101.235 12.527-127.01.37-31.965-48.594-31.965-48.594 26.565-10.126 45.097-12.787z" class="cls-11" data-name="Path 107" transform="translate(126.221 39.077)"/>
            <path id="Path_108" d="M295.82 248s21.507 28.159 25.313 64.983l4.675 28.824s28.491-4.859 38.136 5.913 2.808 20.62-10.495 20.842l-49.093 7.76z" class="cls-8" data-name="Path 108" transform="translate(143.599 -17.625)"/>
            <path id="Path_109" d="M291.823 184.33c.7-.222 25.48-6.023 24.316 23.17s-18.477 32.649-18.477 32.649l-19.032-43.531z" class="cls-12" data-name="Path 109" transform="translate(129.027 -72.116)"/>
            <path id="Path_110" d="M259.149 228.657c-.406.333 5.377 21.9 4.342 34.219 0 0 35.7-.868 34.7-1.035s-4.3-25.72-4.3-25.72-25.891-14.577-34.742-7.464z" class="cls-13" data-name="Path 110" transform="translate(112.496 -35.68)"/>
            <path id="Path_111" d="M259.14 228.657a35.643 35.643 0 0 0 .9 5.007c6.319 6.707 18.994 17.516 36.233 19.382-1.183-7.391-2.4-16.925-2.4-16.925s-25.883-14.577-34.733-7.464z" class="cls-13" data-name="Path 111" transform="translate(112.505 -35.68)"/>
            <path id="Path_112" d="M323.7 220.438s-5.192 54.729-20.694 54.729c-22.93 0-39.91-13.821-44.456-22.911 0 0-16.13-56.151 31.023-59.126 36.733-2.311 34.127 27.308 34.127 27.308z" class="cls-13" data-name="Path 112" transform="translate(109.75 -64.248)"/>
            <path id="Path_113" d="M322.2 212.992s-9.386 14.338-24.02 16.888c0 0-2.772-2.088 1.164-7.391 0 0-7.631 9.238-15.742 10.883 0 0 2.088 31.725-5.543 31.263S270.89 251.7 270.89 251.7s-2.716 18.477 3.7 23.835c0 0-11.825 5.1-19.7-7.853s-15.059-33.129-4.4-60.216c0 0-19.7-6.707 6.947-8.333 0 0-4.878-11.807.222-17.368s6.375 11.807 6.375 11.807 69.344-39.836 49.666-5.1c0 0 30.8-11.567 17.83 3.7z" class="cls-12" data-name="Path 113" transform="translate(99.236 -80.139)"/>
            <path id="Path_114" d="M267.946 220.389s-7.649-13.193-14.782-7.631-3.7 25.24 14.782 24.537z" class="cls-13" data-name="Path 114" transform="translate(104.512 -48.66)"/>
            <path id="Path_115" d="M233.372 278.343S225.981 253.325 250 249.63s84.717-4.416 84.717-4.416 19.253-.924 19.253 16.629 4.176 116.83 4.176 116.83-43.66 19.327-88.005 13.155z" class="cls-8" data-name="Path 115" transform="translate(89.753 -19.994)"/>
            <path id="Path_116" d="M254.392 329.872S235.121 389 290.718 393.47a709.156 709.156 0 0 0 106.021-.111s58.9 43.957 173 148.924c1.09 1 33.7-18.68 42.5-22.727L447.495 345.614s-20.879-24.02-35.7-24.02c-16.74 0-51.44-3.4-82.961-1.552a565.635 565.635 0 0 0-74.444 9.83z" class="cls-11" data-name="Path 116" transform="translate(105.742 42.978)"/>
            <path id="Path_117" d="M496.282 434.048l-84.4-89.428S391 320.6 376.181 320.6c-16.74 0-51.44 1.663-82.961 3.511" class="cls-5" data-name="Path 117" transform="translate(141.395 43.917)"/>
            <path id="Path_118" d="M367.51 389.61c20.2 17.2 45.065 39 75.016 66.221" class="cls-5" data-name="Path 118" transform="translate(204.37 102.417)"/>
            <path id="Path_120" fill="none" stroke="#000" stroke-miterlimit="10" d="M254.63 319.7s4.508-13.895 18.477-17.017" data-name="Path 120" transform="translate(108.682 28.727)"/>
            <path id="Path_121" d="M333.809 305.1s-16.408 9.423-9.7 13.581 24.556.924 24.556.924 7.132-.794 3.936-9.423c-3.714-10.033-18.792-5.082-18.792-5.082z" class="cls-13" data-name="Path 121" transform="translate(166.214 29.743)"/>
            <path id="Path_122" d="M374.873 233.241H277.61l33.7-94.861h97.263z" class="cls-16" data-name="Path 122" transform="translate(235.402 117.308)"/>
            <path id="Path_123" d="M374.873 233.241H277.61l33.7-94.861h97.263z" class="cls-17" data-name="Path 123" transform="translate(235.402 117.308)"/>
            <path id="Path_124" d="M463.109 261.7h-90.537l-33.7 94.787h97.263l31.411-88.523a4.749 4.749 0 0 0-4.434-6.264z" class="cls-17" data-name="Path 124" transform="translate(180.092 -6.012)"/>
            <path id="Path_125" d="M309 313v10.144h147.816a5.1 5.1 0 0 0 5.1-5.081V313z" class="cls-16" data-name="Path 125" transform="translate(154.771 37.475)"/>
            <path id="Path_126" d="M309 313v10.144h147.816a5.1 5.1 0 0 0 5.1-5.081V313z" class="cls-17" data-name="Path 126" transform="translate(154.771 37.475)"/>
            <path id="Path_127" d="M312.536 306.87s20.158-5.211 27.087 2.273 6.615 10.236 4.878 10.938-9.035 1.035-10.772 0-18.07 6.245-25.018 4.508 3.825-17.719 3.825-17.719z" class="cls-13" data-name="Path 127" transform="translate(152.547 30.782)"/>
            <path id="Path_128" d="M227.959 267.7s5.543-15.742 16.851-17.941 45.324 45.028 52.271 97.928c0 0 59.4-7.982 83.368 6.245a17.461 17.461 0 0 1 0 22.93s-105.6 44.714-117.717 21.784-44.159-106.274-34.773-130.946z" class="cls-8" data-name="Path 128" transform="translate(84.634 -16.193)"/>
            <path id="Path_129" d="M248.15 260.1a187.891 187.891 0 0 1 30.376 78.675s54.692-7.834 81.982 4.9a8.074 8.074 0 0 1 3.511 4.453" class="cls-6" data-name="Path 129" transform="translate(103.189 -7.368)"/>
            <path id="Path_130" d="M309.868 249.471a8.2 8.2 0 0 0-1.238-4.231c-8.074.129-29.157.554-49.019 1.589a7.6 7.6 0 0 0-.48 2.642c0 7.612 11.363 13.784 25.369 13.784s25.368-6.171 25.368-13.784z" class="cls-8" data-name="Path 130" transform="translate(112.497 -19.965)"/>
            <path id="Path_131" d="M283.109 260.191c13.156 0 22.339-5.672 22.339-10.754a6.227 6.227 0 0 0-1.977-4.157c-9.109.166-25.591.554-41.795 1.33a5.357 5.357 0 0 0-.905 2.827c-.001 5.081 9.164 10.754 22.338 10.754z" class="cls-13" data-name="Path 131" transform="translate(113.887 -19.931)"/>
            <path id="Path_132" d="M287.445 259.615s-13.193 4.527-12.324 16.629c0 0-15.983-14.412-20.491-25.535a21.008 21.008 0 0 1 12.453-9.719z" class="cls-12" data-name="Path 132" transform="translate(108.682 -23.568)"/>
            <path id="Path_133" d="M278.63 261.011s2.531-11.53 1.33-19.4a9.959 9.959 0 0 1 9.553 6.707s3.825 17.387 1.737 26.071c0 0-4.897-15.577-12.62-13.378z" class="cls-12" data-name="Path 133" transform="translate(129.027 -23.042)"/>
            <path id="Path_134" d="M260.14 231.01s-6.43-.462-3.307-5.876 3.1-11.456-3.123-11.474" class="cls-6" data-name="Path 134" transform="translate(107.902 -46.735)"/>
            <path id="Path_135" d="M252.58 217.7s5.728-4.009 6.116 3.16" class="cls-6" data-name="Path 135" transform="translate(106.944 -44.255)"/>
            <path id="Path_136" d="M298.38 263.37s11.179 48.04 8.074 73.908" class="cls-6" data-name="Path 136" transform="translate(145.769 -4.596)"/>
            <path id="Path_137" d="M305.66 302.385s3.566-2.716 11.807-3.7" class="cls-6" data-name="Path 137" transform="translate(151.94 25.344)"/>
            <path id="Path_138" d="M305.66 297.857a10.735 10.735 0 0 1 9.774 2.143" class="cls-6" data-name="Path 138" transform="translate(151.94 24.311)"/>
            <path id="Path_139" d="M252.11 317.942s5.543-11.585 24.02-15.262" class="cls-6" data-name="Path 139" transform="translate(106.546 28.727)"/>
            <path id="Path_140" d="M299.73 272.577s.776-4.545 3.381-6.1" class="cls-6" data-name="Path 140" transform="translate(146.913 -1.96)"/>
            <path id="Path_141" d="M323.26 306.39s11.308 5.8 7.576 12.121" class="cls-6" data-name="Path 141" transform="translate(166.859 31.872)"/>
        </g>
    </g>
</svg>
