<svg xmlns="http://www.w3.org/2000/svg" xmlns:xlink="http://www.w3.org/1999/xlink" id="Illustration-pic" width="348.495" height="281.853" viewBox="0 0 348.495 281.853">
    <defs>
        <linearGradient id="linear-gradient" x1=".489" x2=".624" y1="1.063" y2=".212" gradientUnits="objectBoundingBox">
            <stop offset="0" stop-color="#8bbaff" stop-opacity=".102"/>
            <stop offset=".13" stop-color="#8bbaff" stop-opacity=".188"/>
            <stop offset=".42" stop-color="#8bbaff" stop-opacity=".439"/>
            <stop offset=".82" stop-color="#8bbaff" stop-opacity=".82"/>
            <stop offset="1" stop-color="#8bbaff"/>
        </linearGradient>
        <linearGradient id="linear-gradient-2" x1="1.314" x2="1.314" y1="1" y2=".001" gradientUnits="objectBoundingBox">
            <stop offset="0" stop-color="#9adeff" stop-opacity=".102"/>
            <stop offset=".13" stop-color="#9adeff" stop-opacity=".188"/>
            <stop offset=".42" stop-color="#9adeff" stop-opacity=".439"/>
            <stop offset=".82" stop-color="#9adeff" stop-opacity=".82"/>
            <stop offset="1" stop-color="#9adeff"/>
        </linearGradient>
        <linearGradient id="linear-gradient-3" x1="3.153" x2="3.153" y1=".997" y2=".001" xlink:href="#linear-gradient-2"/>
        <linearGradient id="linear-gradient-4" x1="9.219" x2="9.219" y1="1" y2="0" xlink:href="#linear-gradient-2"/>
        <linearGradient id="linear-gradient-5" x1="12.613" x2="12.613" y1=".999" y2="-.002" xlink:href="#linear-gradient-2"/>
        <linearGradient id="linear-gradient-6" x1=".247" x2=".724" y1="1.03" y2=".029" gradientUnits="objectBoundingBox">
            <stop offset="0" stop-color="#ffe189" stop-opacity=".102"/>
            <stop offset=".13" stop-color="#ffe189" stop-opacity=".188"/>
            <stop offset=".42" stop-color="#ffe189" stop-opacity=".439"/>
            <stop offset=".82" stop-color="#ffe189" stop-opacity=".82"/>
            <stop offset="1" stop-color="#ffe189"/>
        </linearGradient>
        <linearGradient id="linear-gradient-7" x1=".209" x2=".758" y1="1.111" y2="-.043" xlink:href="#linear-gradient-6"/>
        <linearGradient id="linear-gradient-8" x1="-.3" x2="1.224" y1="1.555" y2="-.428" xlink:href="#linear-gradient-6"/>
        <linearGradient id="linear-gradient-9" x1=".248" x2=".724" y1="1.03" y2=".029" xlink:href="#linear-gradient-6"/>
        <linearGradient id="linear-gradient-10" x1=".21" x2=".759" y1="1.111" y2="-.042" xlink:href="#linear-gradient-6"/>
        <linearGradient id="linear-gradient-11" x1="-.299" x2="1.222" y1="1.551" y2="-.426" xlink:href="#linear-gradient-6"/>
        <linearGradient id="linear-gradient-12" x1=".248" x2=".724" y1="1.029" y2=".029" xlink:href="#linear-gradient-6"/>
        <linearGradient id="linear-gradient-13" x1=".209" x2=".759" y1="1.11" y2="-.043" xlink:href="#linear-gradient-6"/>
        <linearGradient id="linear-gradient-14" x1="-.293" x2="1.229" y1="1.55" y2="-.427" xlink:href="#linear-gradient-6"/>
        <linearGradient id="linear-gradient-15" x1=".248" x2=".724" y1="1.029" y2=".029" xlink:href="#linear-gradient-6"/>
        <linearGradient id="linear-gradient-16" x1=".209" x2=".758" y1="1.111" y2="-.043" xlink:href="#linear-gradient-6"/>
        <linearGradient id="linear-gradient-17" x1="-.298" x2="1.22" y1="1.55" y2="-.427" xlink:href="#linear-gradient-6"/>
        <linearGradient id="linear-gradient-18" x1=".248" x2=".725" y1="1.03" y2=".029" xlink:href="#linear-gradient-6"/>
        <linearGradient id="linear-gradient-19" x1=".209" x2=".759" y1="1.111" y2="-.043" xlink:href="#linear-gradient-6"/>
        <linearGradient id="linear-gradient-20" x1="-.295" x2="1.219" y1="1.553" y2="-.429" xlink:href="#linear-gradient-6"/>
        <linearGradient id="linear-gradient-21" x1=".246" x2=".722" y1="1.03" y2=".029" xlink:href="#linear-gradient-6"/>
        <linearGradient id="linear-gradient-22" x1=".208" x2=".758" y1="1.111" y2="-.043" xlink:href="#linear-gradient-6"/>
        <linearGradient id="linear-gradient-23" x1="-.297" x2="1.224" y1="1.549" y2="-.426" xlink:href="#linear-gradient-6"/>
        <linearGradient id="linear-gradient-24" x1=".248" x2=".724" y1="1.029" y2=".029" xlink:href="#linear-gradient-6"/>
        <linearGradient id="linear-gradient-25" x1=".209" x2=".758" y1="1.111" y2="-.043" xlink:href="#linear-gradient-6"/>
        <linearGradient id="linear-gradient-26" x1="-.295" x2="1.225" y1="1.554" y2="-.428" xlink:href="#linear-gradient-6"/>
        <style>
            .cls-6{fill:#d4e1ef;opacity:.8}.cls-18{fill:#e0ac45}.cls-19,.cls-20{fill:#f8c245}.cls-20{opacity:.5}.cls-43{fill:#1e3b5b}.cls-44,.cls-45{fill:#3c4371}.cls-45{opacity:.2}.cls-46{fill:#efe3cb}.cls-49{fill:#3c4f84}.cls-50{fill:#fdfdfd}.cls-51{fill:#92baf9}
        </style>
    </defs>
    <g id="Layer_2" data-name="Layer 2">
        <g id="OBJECTS">
            <path id="Tracé_5" fill="url(#linear-gradient)" d="M64.768 160.555H45.657v-55.636h19.111zm28.1-74.117H73.761v74.117h19.111zm28.1 6.262h-19.103v67.855h19.111zm28.1-23.147H129.97v91h19.111zm28.048-33.141h-19.098v124.143h19.111zM171.778 0l-15.289 8.656 6.138 3.62-51.532 63.044L82.9 56.591 53.885 91.643l2.563 2.125 27.1-32.747 27.9 18.47 54.039-65.528 6.138 3.609zm20.112 165.692H30.66v1.585h161.229z" data-name="Tracé 5" transform="translate(3.807)"/>
            <path id="Tracé_6" fill="url(#linear-gradient-2)" d="M231.79 64.258v3.373a2.17 2.17 0 0 0 1.7 2.113l.652.146a2.158 2.158 0 0 1 1.585 1.405 15.1 15.1 0 0 0 .854 2.068 2.181 2.181 0 0 1-.124 2.113l-.36.562a2.181 2.181 0 0 0 .292 2.7l2.383 2.3a2.158 2.158 0 0 0 2.7.292l.54-.337a2.147 2.147 0 0 1 2.113-.112 17.478 17.478 0 0 0 2.113.888 2.17 2.17 0 0 1 1.405 1.574l.135.6a2.147 2.147 0 0 0 2.113 1.7h3.316a2.147 2.147 0 0 0 2.113-1.7l.124-.54a2.181 2.181 0 0 1 1.416-1.585 16.932 16.932 0 0 0 2.192-.9 2.158 2.158 0 0 1 2.1.124l.472.292a2.147 2.147 0 0 0 2.687-.292l2.361-2.35a2.248 2.248 0 0 0 .292-2.7l-.27-.427a2.158 2.158 0 0 1-.112-2.136 16.553 16.553 0 0 0 .922-2.248 2.147 2.147 0 0 1 1.574-1.428l.495-.1a2.17 2.17 0 0 0 1.7-2.113v-3.372a2.17 2.17 0 0 0-1.7-2.113l-.495-.112a2.136 2.136 0 0 1-1.574-1.428 17.045 17.045 0 0 0-.922-2.192 2.158 2.158 0 0 1 .112-2.136l.27-.438a2.17 2.17 0 0 0-.292-2.687l-2.361-2.35a2.158 2.158 0 0 0-2.721-.236l-.472.3a2.125 2.125 0 0 1-2.1.112 18.687 18.687 0 0 0-2.192-.9 2.158 2.158 0 0 1-1.416-1.574l-.124-.551a2.158 2.158 0 0 0-2.113-1.7h-3.316a2.158 2.158 0 0 0-2.091 1.72l-.135.607a2.181 2.181 0 0 1-1.405 1.574 17.416 17.416 0 0 0-2.113.877 2.125 2.125 0 0 1-2.113-.1l-.54-.348a2.181 2.181 0 0 0-2.7.3l-2.349 2.35a2.158 2.158 0 0 0-.292 2.687l.36.573a2.181 2.181 0 0 1 .124 2.113 14.963 14.963 0 0 0-.854 2.057A2.17 2.17 0 0 1 234.162 62l-.652.146a2.17 2.17 0 0 0-1.72 2.112zm10.039 1.664a9.769 9.769 0 1 1 9.758 9.758 9.769 9.769 0 0 1-9.758-9.758z" data-name="Tracé 6" transform="translate(28.783 5.733)"/>
            <path id="Tracé_7" fill="url(#linear-gradient-3)" d="M222.46 37.656v2.136a1.394 1.394 0 0 0 1.124 1.36l.427.09a1.394 1.394 0 0 1 1.012.9 10.614 10.614 0 0 0 .551 1.327 1.394 1.394 0 0 1-.079 1.36l-.225.371a1.394 1.394 0 0 0 .191 1.731l1.461 1.551a1.394 1.394 0 0 0 1.731.191l.337-.214a1.394 1.394 0 0 1 1.371-.079 9.534 9.534 0 0 0 1.349.573 1.349 1.349 0 0 1 .9 1.012l.09.382a1.394 1.394 0 0 0 1.36 1.124h2.14a1.394 1.394 0 0 0 1.36-1.124l.079-.349a1.36 1.36 0 0 1 .911-1.012 12.773 12.773 0 0 0 1.405-.585 1.371 1.371 0 0 1 1.349.079l.3.191a1.394 1.394 0 0 0 1.7-.191l1.506-1.506a1.394 1.394 0 0 0 .19-1.729l-.18-.281a1.416 1.416 0 0 1-.067-1.372 9.9 9.9 0 0 0 .6-1.416 1.383 1.383 0 0 1 1.012-.911l.315-.067a1.394 1.394 0 0 0 1.124-1.36V37.7a1.394 1.394 0 0 0-1.124-1.36l-.315-.067a1.416 1.416 0 0 1-1.012-.922 10.326 10.326 0 0 0-.6-1.405 1.439 1.439 0 0 1 .067-1.383l.18-.27a1.394 1.394 0 0 0-.191-1.731L243.3 29a1.383 1.383 0 0 0-1.731-.18l-.3.191a1.371 1.371 0 0 1-1.349.067 10.838 10.838 0 0 0-1.405-.573 1.383 1.383 0 0 1-.911-1.012l-.079-.36a1.405 1.405 0 0 0-1.36-1.124h-2.136a1.405 1.405 0 0 0-1.36 1.124l-.09.393a1.372 1.372 0 0 1-.9 1.012 11 11 0 0 0-1.349.562 1.394 1.394 0 0 1-1.371-.067l-.337-.214a1.383 1.383 0 0 0-1.731.18l-1.473 1.5a1.394 1.394 0 0 0-.191 1.731l.225.36a1.394 1.394 0 0 1 .079 1.36 10.611 10.611 0 0 0-.551 1.327 1.405 1.405 0 0 1-1.012.911l-.427.09a1.394 1.394 0 0 0-1.079 1.383zm6.442 1.124a6.35 6.35 0 1 0 0-.056z" data-name="Tracé 7" transform="translate(27.624 3.23)"/>
            <path id="Tracé_8" fill="url(#linear-gradient-4)" d="M50.11 149.8v4.159a2.72 2.72 0 0 0 2.125 2.653l.821.18a2.687 2.687 0 0 1 1.979 1.765 19.246 19.246 0 0 0 1.068 2.586 2.7 2.7 0 0 1-.146 2.642l-.461.719a2.732 2.732 0 0 0 .371 3.373l2.945 2.945a2.709 2.709 0 0 0 3.373.371l.674-.416a2.664 2.664 0 0 1 2.653-.146 21.868 21.868 0 0 0 2.642 1.124 2.675 2.675 0 0 1 1.754 1.967l.169.753a2.732 2.732 0 0 0 2.653 2.125h4.159a2.732 2.732 0 0 0 2.653-2.125l.146-.686a2.709 2.709 0 0 1 1.776-2 20.065 20.065 0 0 0 2.743-1.124 2.7 2.7 0 0 1 2.642.146l.585.371a2.709 2.709 0 0 0 3.373-.371l2.934-2.934a2.709 2.709 0 0 0 .371-3.373l-.337-.551a2.709 2.709 0 0 1-.135-2.676 19.6 19.6 0 0 0 1.124-2.743 2.7 2.7 0 0 1 1.979-1.787l.618-.135a2.721 2.721 0 0 0 2.147-2.653V149.8a2.721 2.721 0 0 0-2.125-2.653l-.618-.135a2.721 2.721 0 0 1-1.979-1.787 20.324 20.324 0 0 0-1.124-2.754 2.709 2.709 0 0 1 .169-2.676l.337-.54a2.709 2.709 0 0 0-.371-3.373l-2.934-2.945a2.732 2.732 0 0 0-3.373-.371l-.585.382a2.7 2.7 0 0 1-2.642.146 20.067 20.067 0 0 0-2.743-1.124 2.709 2.709 0 0 1-1.776-1.979l-.144-.691a2.721 2.721 0 0 0-2.653-2.125h-4.162a2.721 2.721 0 0 0-2.653 2.125l-.169.753a2.676 2.676 0 0 1-1.754 1.967 21.863 21.863 0 0 0-2.642 1.124 2.664 2.664 0 0 1-2.653-.144l-.674-.427a2.732 2.732 0 0 0-3.373.371l-2.945 2.945a2.732 2.732 0 0 0-.371 3.373l.461.719a2.7 2.7 0 0 1 .146 2.642 19.246 19.246 0 0 0-1.068 2.586 2.709 2.709 0 0 1-1.979 1.765l-.821.18a2.721 2.721 0 0 0-2.18 2.646zm12.568 2.08a12.231 12.231 0 1 1 12.231 12.2 12.231 12.231 0 0 1-12.231-12.2z" data-name="Tracé 8" transform="translate(6.222 15.793)"/>
            <path id="Tracé_9" fill="url(#linear-gradient-5)" d="M78.61 116.468v2.676a1.742 1.742 0 0 0 1.36 1.709l.528.112a1.731 1.731 0 0 1 1.27 1.124 14.365 14.365 0 0 0 .686 1.664 1.731 1.731 0 0 1-.09 1.7l-.292.461a1.731 1.731 0 0 0 .236 2.158l1.9 1.9a1.731 1.731 0 0 0 2.158.236l.427-.281a1.72 1.72 0 0 1 1.709-.079 15.008 15.008 0 0 0 1.7.708 1.742 1.742 0 0 1 1.124 1.259l.09.54a1.754 1.754 0 0 0 1.709 1.36H95.8a1.754 1.754 0 0 0 1.72-1.36l.1-.45a1.731 1.731 0 0 1 1.124-1.27 11.961 11.961 0 0 0 1.754-.719 1.72 1.72 0 0 1 1.7.1l.382.236a1.754 1.754 0 0 0 2.17-.236l1.889-1.9a1.731 1.731 0 0 0 .236-2.158l-.225-.348a1.743 1.743 0 0 1-.079-1.72 15.537 15.537 0 0 0 .742-1.776 1.743 1.743 0 0 1 1.27-1.124l.393-.079a1.742 1.742 0 0 0 1.36-1.709v-2.676a1.742 1.742 0 0 0-1.36-1.7l-.393-.09a1.731 1.731 0 0 1-1.27-1.124 15.366 15.366 0 0 0-.742-1.765 1.742 1.742 0 0 1 .079-1.72l.225-.348a1.754 1.754 0 0 0-.236-2.17l-1.889-1.889a1.754 1.754 0 0 0-2.17-.236l-.382.236a1.72 1.72 0 0 1-1.7.09 15.086 15.086 0 0 0-1.754-.719 1.709 1.709 0 0 1-1.124-1.27l-.1-.438a1.742 1.742 0 0 0-1.7-1.383h-2.674a1.742 1.742 0 0 0-1.731 1.3l-.1.483a1.731 1.731 0 0 1-1.124 1.27 15.01 15.01 0 0 0-1.7.708 1.754 1.754 0 0 1-1.709-.09l-.427-.27a1.731 1.731 0 0 0-2.158.236l-1.9 1.889a1.754 1.754 0 0 0-.236 2.17l.292.461a1.731 1.731 0 0 1 .09 1.7 13.591 13.591 0 0 0-.686 1.664 1.731 1.731 0 0 1-1.27 1.124l-.528.112a1.742 1.742 0 0 0-1.349 1.709zm8.072 1.338a7.869 7.869 0 1 1 7.869 7.869 7.869 7.869 0 0 1-7.869-7.869z" data-name="Tracé 9" transform="translate(9.761 12.666)"/>
            <ellipse id="Ellipse_1" cx="97.208" cy="58.603" class="cls-6" data-name="Ellipse 1" rx="97.208" ry="58.603" transform="translate(64.157 164.647)"/>
            <ellipse id="Ellipse_2" cx="80.952" cy="23.99" class="cls-6" data-name="Ellipse 2" rx="80.952" ry="23.99" transform="translate(149.144 222.25)"/>
            <g id="Groupe_1" data-name="Groupe 1" transform="translate(102.795 114.419)">
                <path id="Tracé_10" fill="#255aa8" d="M140.32 102.94v106.932l25.88 23.506V126.447z" data-name="Tracé 10" transform="translate(-85.37 -101.636)"/>
                <path id="Tracé_11" fill="#3568be" d="M140.32 103.084l25.856 23.507L210.3 146.68c16.66-4.632 27.306-11.7 27.306-19.617 0-13.962-33.1-25.283-73.915-25.283a206.085 206.085 0 0 0-23.372 1.3z" data-name="Tracé 11" transform="translate(-85.37 -101.78)"/>
                <path id="Tracé_12" fill="#2563af" d="M163.34 123.85v106.932l44.124 20.089V143.939z" data-name="Tracé 12" transform="translate(-82.512 -99.039)"/>
                <path id="Tracé_13" fill="#3a79c7" d="M204.243 143.4l1.63-.483 1.383-.461 1.529-.506c.719-.247 1.416-.506 2.1-.776l.45-.157c.832-.326 1.641-.652 2.428-.989l.675-.3c.54-.236 1.124-.483 1.608-.731l.8-.393c.461-.225.911-.45 1.338-.686l.8-.438c.4-.225.809-.45 1.192-.686s.495-.292.731-.45.764-.483 1.124-.731l.63-.427c.4-.292.776-.573 1.124-.866l.427-.337c.495-.393.956-.809 1.383-1.214l.259-.27c.326-.326.641-.652.944-.989l.36-.45c.225-.281.45-.562.641-.843s.236-.337.337-.506.337-.54.483-.809a5.859 5.859 0 0 0 .27-.528c.135-.281.247-.562.36-.843l.18-.506c.1-.315.169-.618.236-.922s.079-.3.1-.45a9.556 9.556 0 0 0 .112-1.383V231.2a9.558 9.558 0 0 1-.112 1.383 2.061 2.061 0 0 1-.1.438 8.521 8.521 0 0 1-.236.922 1.77 1.77 0 0 1-.18.517c-.056.169-.225.562-.36.843a5.7 5.7 0 0 1-.27.517 8.708 8.708 0 0 1-.483.821q-.157.247-.337.506c-.191.281-.416.562-.641.832l-.371.461c-.281.326-.607.663-.933.989-.09.09-.169.18-.259.259-.427.416-.888.821-1.383 1.225l-.427.337c-.371.292-.753.573-1.124.866l-.63.427c-.36.247-.731.495-1.124.731l-.731.45c-.382.236-.787.461-1.192.686l-.8.438-1.338.675-.8.4c-.517.247-1.068.483-1.608.731l-.675.3c-.787.326-1.6.663-2.428.978l-.45.169c-.607.236-1.225.461-1.866.686l-.236.09-1.529.506-1.383.45-1.608.483-1.237.371-.438.124V143.887z" data-name="Tracé 13" transform="translate(-77.638 -98.987)"/>
                <path id="Tracé_14" fill="#5286d6" d="M91.44 135.97v85.786l67.361 4.722V140.7z" data-name="Tracé 14" transform="translate(-91.44 -97.534)"/>
                <path id="Tracé_15" fill="#3578cd" d="M91.44 137.914l67.361 4.733-24.238-22.057c-21.336 3.069-37.536 9.454-43.123 17.324z" data-name="Tracé 15" transform="translate(-91.44 -99.444)"/>
                <path id="Tracé_16" fill="#73a5ff" d="M165.332 168.327l-67.99-4.767a9.578 9.578 0 0 0-1.012 4.126c0 7.869 10.635 14.974 27.261 19.606z" data-name="Tracé 16" transform="translate(-90.833 -94.108)"/>
                <path id="Tracé_17" fill="#a3b9ff" d="M96.381 167.848a8.657 8.657 0 0 0 .157 1.192 5.746 5.746 0 0 0 .146.6c.09.326.2.652.326.978s.169.416.259.618.315.607.483.911a6.458 6.458 0 0 0 .36.6c.2.315.427.618.663.922s.27.371.416.551c.3.36.641.719.989 1.124.124.112.225.236.348.348a19.852 19.852 0 0 0 1.6 1.416l.427.326c.472.371.967.731 1.5 1.124l.686.45c.528.337 1.124.675 1.63 1.012l.764.438c.888.495 1.821.989 2.81 1.461.708.348 1.45.686 2.248 1.012.236.112.483.2.719.3l1.6.652 1.563.6 1.248.45 1.7.573 1.259.416c1.124.337 2.248.675 3.373.989v62.673c-1.124-.315-2.248-.652-3.373-.989l-.259-.079-1-.337-1.7-.573-1.248-.45-1.563-.6-.416-.157c-.4-.157-.787-.326-1.124-.495l-.719-.292c-.753-.337-1.5-.663-2.248-1.012-.989-.472-1.922-.967-2.81-1.461l-.337-.18-.427-.259c-.562-.337-1.124-.674-1.63-1.012l-.461-.292-.225-.169a18.719 18.719 0 0 1-1.515-1.127 3.991 3.991 0 0 1-.348-.259l-.067-.056a19.848 19.848 0 0 1-1.6-1.416 3.873 3.873 0 0 0-.292-.315 11.787 11.787 0 0 1-.989-1.124l-.112-.124c-.112-.146-.2-.281-.3-.427s-.461-.607-.663-.922a2.246 2.246 0 0 1-.146-.2 4.383 4.383 0 0 1-.214-.393c-.18-.3-.337-.607-.483-.911l-.146-.281a1 1 0 0 0-.112-.337c-.124-.326-.236-.652-.326-.978 0-.124-.09-.236-.112-.36a1.71 1.71 0 0 1 0-.236 8.656 8.656 0 0 1-.157-1.192v-.371a1.744 1.744 0 0 1 0-.247V167.23a.691.691 0 0 0-.152.618z" data-name="Tracé 17" transform="translate(-90.828 -93.653)"/>
                <path id="Tracé_18" fill="#5c86da" d="M120.58 186.776v62.673l41.741-18.976V167.8z" data-name="Tracé 18" transform="translate(-87.822 -93.582)"/>
                <path id="Tracé_19" fill="#a6d2f9" d="M125.6 207.37c1.787.427 3.654.821 5.553 1.2l2.248.4c.967.18 1.934.36 2.923.517.663.112 1.338.2 2.012.3q2.248.36 4.587.641l1.99.247c1.967.225 3.957.427 5.992.6l.641.067q3.2.247 6.509.427l2.912.112c.978 0 1.945.079 2.923.1 1.821 0 3.654.079 5.508.079s3.912 0 5.846-.079h1.225c1.428 0 2.855-.1 4.261-.169l1.844-.112q1.787-.1 3.541-.236l1.922-.157c1.124-.1 2.248-.2 3.373-.326l1.787-.18 3.744-.461 1.315-.169c1.675-.236 3.316-.483 4.935-.764l1.259-.225c1.214-.214 2.428-.427 3.609-.663s2.024-.438 3.013-.663l1.967-.427v41.224l-.236.056-1.731.382c-.989.214-1.99.45-3.013.652h-.2c-1.124.214-2.248.416-3.373.618l-1.259.236h-.067c-1.518.259-3.047.495-4.62.708h-.247l-1.315.169-3.013.393-.731.067-1.776.191-2.091.214-1.349.112-1.922.146c-.461 0-.922.09-1.394.112-.708.056-1.428.09-2.147.135l-1.844.1h-.787c-1.124.056-2.248.09-3.474.124H175c-1.7 0-3.373.067-5.149.067h-5.981l-2.9-.112-2.451-.079h-.483c-2.248-.112-4.373-.247-6.509-.427h-.1l-.54-.056c-2.035-.169-4.025-.371-5.992-.607-.675-.067-1.327-.157-1.99-.236q-2.327-.3-4.587-.641c-.393-.056-.809-.1-1.2-.169l-.809-.146c-.989-.157-1.956-.337-2.923-.506l-1.653-.292-.562-.124c-1.9-.371-3.766-.764-5.553-1.192z" data-name="Tracé 19" transform="translate(-87.198 -88.668)"/>
                <path id="Tracé_20" fill="#b7e1ff" d="M213.061 209.589l-43.7-19.909-43.761 19.887a192.56 192.56 0 0 0 43.764 4.7 192.887 192.887 0 0 0 43.7-4.677z" data-name="Tracé 20" transform="translate(-87.198 -90.865)"/>
            </g>
            <ellipse id="Ellipse_3" cx="24.642" cy="20.505" class="cls-6" data-name="Ellipse 3" rx="24.642" ry="20.505" transform="translate(32.725 217.303)"/>
            <path id="Tracé_21" d="M92.175 212.218h-.3q-.1-.45-.236-.911c-2.417-8-12.7-13.378-23.383-13.378s-20.924 5.371-23.375 13.379a9.129 9.129 0 0 0-.247.911h-.3v2.855c.112 8.791 9.634 16.66 23.922 16.66s23.821-7.869 23.922-16.66z" class="cls-18" data-name="Tracé 21" transform="translate(5.505 24.578)"/>
            <path id="Tracé_22" d="M68.252 195.59c-10.68 0-20.955 5.374-23.372 13.389-3.058 10.118 7.049 20.449 23.372 20.449s26.441-10.354 23.383-20.449c-2.417-8.015-12.704-13.389-23.383-13.389z" class="cls-19" data-name="Tracé 22" transform="translate(5.505 24.288)"/>
            <path id="Tracé_23" d="M68.04 196.36c-9.983 0-19.493 5.07-21.573 12.523-2.574 9.229 6.813 18.549 21.573 18.549s24.16-9.263 21.584-18.492c-2.035-7.51-11.59-12.58-21.584-12.58zm0 29.656c-13.681 0-22.484-8.521-20.235-17.132C49.66 201.835 58.608 197 68.04 197s18.436 4.834 20.235 11.883c2.305 8.612-6.554 17.133-20.235 17.133z" class="cls-20" data-name="Tracé 23" transform="translate(5.717 24.383)"/>
            <path id="Tracé_24" d="M65.263 205.395a3.294 3.294 0 0 1 1.36-.461v2.316a4.688 4.688 0 0 1-1.349-.45.742.742 0 0 1-.438-.674.933.933 0 0 1 .427-.731zm5.25 5.362a.922.922 0 0 1 .506.764.944.944 0 0 1-.438.809 3.182 3.182 0 0 1-1.416.506v-2.586a5.408 5.408 0 0 1 1.349.506zm-2.889-12.827c-8.577 0-16.57 4.418-17.987 10.758-1.776 7.566 6.16 14.9 17.987 14.9s19.819-7.33 18.054-14.9c-1.473-6.34-9.466-10.758-18.054-10.758zm6.217 16.076a9.072 9.072 0 0 1-4.62 1.461v2.372h-2.777v-2.248a18.874 18.874 0 0 1-3.833-.54 10.691 10.691 0 0 1-2.844-1.124l1.664-2.361a10.5 10.5 0 0 0 2.248.888 13.939 13.939 0 0 0 2.765.472v-3.114a25.246 25.246 0 0 1-3.035-.675 5.115 5.115 0 0 1-1.99-1.124 2.035 2.035 0 0 1-.663-1.8 3.024 3.024 0 0 1 1.641-2.248 9.3 9.3 0 0 1 4.137-1.124v-1.619h2.248v1.585a15.165 15.165 0 0 1 4.8.922l-1.045 1.934a13.772 13.772 0 0 0-3.721-.832l.056 2.777a26.981 26.981 0 0 1 2.979.63 5.913 5.913 0 0 1 2.125 1.068A2.687 2.687 0 0 1 75 211.24a2.957 2.957 0 0 1-1.158 2.766z" class="cls-20" data-name="Tracé 24" transform="translate(6.133 24.578)"/>
            <path id="Tracé_25" d="M88.765 204.18h-.3c-.067-.315-.146-.618-.236-.922-2.428-8-12.7-13.378-23.383-13.378s-20.955 5.374-23.383 13.378c-.09.3-.169.607-.236.922h-.3v2.844c.09 8.757 9.634 16.716 23.922 16.716s23.81-7.937 23.922-16.694z" class="cls-18" data-name="Tracé 25" transform="translate(5.081 23.579)"/>
            <path id="Tracé_26" d="M64.843 187.55c-10.68 0-20.955 5.362-23.383 13.378-3.047 10.118 7.06 20.449 23.383 20.449s26.429-10.354 23.383-20.449c-2.426-8.016-12.704-13.378-23.383-13.378z" class="cls-19" data-name="Tracé 26" transform="translate(5.081 23.289)"/>
            <path id="Tracé_27" d="M64.631 188.32c-9.994 0-19.5 5.059-21.584 12.512-2.574 9.229 6.813 18.5 21.584 18.5s24.147-9.274 21.573-18.5c-2.08-7.453-11.59-12.512-21.573-12.512zm0 29.656c-13.681 0-22.54-8.532-20.235-17.144 1.844-7.049 10.8-11.883 20.235-11.883s18.436 4.834 20.235 11.883c2.3 8.611-6.554 17.144-20.235 17.144z" class="cls-20" data-name="Tracé 27" transform="translate(5.293 23.385)"/>
            <path id="Tracé_28" d="M61.861 197.345a3.092 3.092 0 0 1 1.349-.45v2.248a4.564 4.564 0 0 1-1.349-.45.742.742 0 0 1-.438-.674.911.911 0 0 1 .438-.675zm5.239 5.362a.956.956 0 0 1 .517.764.944.944 0 0 1-.438.809 3.226 3.226 0 0 1-1.416.506V202.2a5.25 5.25 0 0 1 1.338.506zm-2.879-12.827c-8.589 0-16.57 4.418-18.054 10.758-1.765 7.577 6.16 14.9 18.054 14.9s19.819-7.318 18.054-14.9C80.792 194.3 72.8 189.88 64.221 189.88zm6.217 16.076a9.117 9.117 0 0 1-4.632 1.461v2.372H63v-2.3a18.763 18.763 0 0 1-3.833-.54 10.039 10.039 0 0 1-2.844-1.124l1.664-2.361a10.118 10.118 0 0 0 2.248.9 14.794 14.794 0 0 0 2.765.456v-3.114a24.728 24.728 0 0 1-3.035-.674 5.25 5.25 0 0 1-1.99-1.124 2.024 2.024 0 0 1-.663-1.8 2.968 2.968 0 0 1 1.63-2.248 9.342 9.342 0 0 1 4.148-1.124v-1.619h2.248v1.583a15.1 15.1 0 0 1 4.8.922l-1.045 1.934a13.682 13.682 0 0 0-3.721-.832v2.788a24.379 24.379 0 0 1 2.979.618 6.059 6.059 0 0 1 2.136 1.124 2.732 2.732 0 0 1 1.023 1.934 2.979 2.979 0 0 1-1.068 2.765z" class="cls-20" data-name="Tracé 28" transform="translate(5.702 23.579)"/>
            <path id="Tracé_29" d="M85.465 196.01h-.3q-.1-.461-.236-.911c-2.417-8.015-12.7-13.389-23.383-13.389s-20.958 5.374-23.375 13.39a9.128 9.128 0 0 0-.247.911h-.3v2.889c.1 8.746 9.623 16.683 23.911 16.683s23.833-7.97 23.934-16.683z" class="cls-18" data-name="Tracé 29" transform="translate(4.672 22.564)"/>
            <path id="Tracé_30" d="M61.542 179.38c-10.68 0-20.955 5.374-23.372 13.378-3.058 10.118 7.049 20.46 23.372 20.46s26.441-10.354 23.383-20.46c-2.417-8.004-12.704-13.378-23.383-13.378z" class="cls-19" data-name="Tracé 30" transform="translate(4.672 22.275)"/>
            <path id="Tracé_31" d="M61.33 180.15c-9.983 0-19.493 5.059-21.573 12.512-2.574 9.229 6.813 18.5 21.573 18.5s24.159-9.274 21.584-18.5c-2.08-7.453-11.59-12.512-21.584-12.512zm0 29.656c-13.681 0-22.484-8.533-20.235-17.144 1.855-7.049 10.8-11.883 20.235-11.883s18.436 4.834 20.235 11.883c2.361 8.611-6.554 17.144-20.235 17.144z" class="cls-20" data-name="Tracé 31" transform="translate(4.884 22.37)"/>
            <path id="Tracé_32" d="M58.553 189.175a3.305 3.305 0 0 1 1.349-.393v2.248a4.564 4.564 0 0 1-1.349-.45.719.719 0 0 1-.438-.675.933.933 0 0 1 .438-.731zm5.25 5.374a.9.9 0 0 1 .506.753.978.978 0 0 1-.438.821 3.372 3.372 0 0 1-1.416.495v-2.586a4.992 4.992 0 0 1 1.345.516zm-2.889-12.839c-8.577 0-16.57 4.429-17.987 10.758-1.776 7.577 6.16 14.9 17.987 14.9s19.819-7.341 18.1-14.9c-1.514-6.329-9.514-10.758-18.1-10.758zm6.217 16.064a9.061 9.061 0 0 1-4.62 1.473v2.372h-2.777V199.3a19.7 19.7 0 0 1-3.833-.528 10.667 10.667 0 0 1-2.844-1.124l1.664-2.35a10.858 10.858 0 0 0 2.248.888 14.8 14.8 0 0 0 2.765.461v-3.114a25.237 25.237 0 0 1-3.035-.675 5.25 5.25 0 0 1-1.99-1.068 2.057 2.057 0 0 1-.663-1.8 3 3 0 0 1 1.641-2.248 9.286 9.286 0 0 1 4.137-1.124V185h2.248v1.6a14.861 14.861 0 0 1 4.8.922l-1.045 1.922a13.332 13.332 0 0 0-3.721-.821v2.777a24.845 24.845 0 0 1 2.979.618 6.093 6.093 0 0 1 2.125 1.068 2.687 2.687 0 0 1 1.023 1.934 2.957 2.957 0 0 1-1.1 2.754z" class="cls-20" data-name="Tracé 32" transform="translate(5.3 22.564)"/>
            <path id="Tracé_33" d="M88.765 189.58h-.3q-.1-.45-.236-.911c-2.428-8.015-12.7-13.389-23.383-13.389s-20.955 5.374-23.383 13.389q-.135.461-.236.911h-.3v2.855c.1 8.746 9.634 16.683 23.922 16.683s23.81-7.937 23.922-16.683z" class="cls-18" data-name="Tracé 33" transform="translate(5.081 21.766)"/>
            <path id="Tracé_34" d="M64.843 173c-10.68 0-20.955 5.374-23.383 13.378-3.047 10.118 7.06 20.46 23.383 20.46s26.429-10.354 23.383-20.46C85.8 178.362 75.522 173 64.843 173z" class="cls-19" data-name="Tracé 34" transform="translate(5.081 21.482)"/>
            <path id="Tracé_35" d="M64.631 173.76c-9.994 0-19.5 5.059-21.584 12.512-2.574 9.229 6.813 18.5 21.584 18.5s24.147-9.274 21.573-18.5c-2.08-7.453-11.59-12.512-21.573-12.512zm0 29.656c-13.681 0-22.54-8.533-20.235-17.144 1.844-7.049 10.8-11.883 20.235-11.883s18.436 4.834 20.235 11.883c2.305 8.611-6.554 17.144-20.235 17.144z" class="cls-20" data-name="Tracé 35" transform="translate(5.293 21.577)"/>
            <path id="Tracé_36" d="M61.861 182.829a3.249 3.249 0 0 1 1.349-.45v2.3a4.564 4.564 0 0 1-1.349-.45.731.731 0 0 1-.438-.674.911.911 0 0 1 .438-.731zM67.1 188.2a.944.944 0 0 1 .517.753.978.978 0 0 1-.438.821 3.373 3.373 0 0 1-1.416.495v-2.586a4.856 4.856 0 0 1 1.338.472zm-2.879-12.88c-8.589 0-16.57 4.429-18.054 10.758-1.765 7.577 6.16 14.9 18.054 14.9s19.819-7.318 18.054-14.9c-1.483-6.329-9.475-10.758-18.054-10.758zm6.217 16.08a9.106 9.106 0 0 1-4.632 1.473v2.372H63v-2.316a19.581 19.581 0 0 1-3.833-.528 10.365 10.365 0 0 1-2.844-1.124l1.664-2.35a10.624 10.624 0 0 0 2.248.888 14.794 14.794 0 0 0 2.765.461v-3.114a24.728 24.728 0 0 1-3.035-.674 5.25 5.25 0 0 1-1.99-1.068 2.024 2.024 0 0 1-.663-1.8 2.99 2.99 0 0 1 1.63-2.248 9.342 9.342 0 0 1 4.148-1.124v-1.619h2.248v1.6a14.794 14.794 0 0 1 4.8.922l-1.045 1.922a13.682 13.682 0 0 0-3.721-.832v2.788a24.387 24.387 0 0 1 2.979.618 6.06 6.06 0 0 1 2.136 1.124 2.732 2.732 0 0 1 1.023 1.934 2.979 2.979 0 0 1-1.068 2.7z" class="cls-20" data-name="Tracé 36" transform="translate(5.702 21.771)"/>
            <path id="Tracé_37" d="M90.475 181.448h-.3c-.079-.3-.157-.607-.247-.911-2.417-8.015-12.692-13.378-23.372-13.378s-20.966 5.362-23.383 13.378q-.135.461-.236.911h-.3v2.852c.1 8.746 9.623 16.683 23.922 16.683s23.81-7.937 23.911-16.683z" class="cls-18" data-name="Tracé 37" transform="translate(5.294 20.757)"/>
            <path id="Tracé_38" d="M66.553 164.82c-10.68 0-20.966 5.374-23.383 13.378-3.058 10.118 7.049 20.46 23.383 20.46S92.982 188.3 89.925 178.2c-2.417-8.006-12.692-13.38-23.372-13.38z" class="cls-19" data-name="Tracé 38" transform="translate(5.293 20.467)"/>
            <path id="Tracé_39" d="M66.341 165.59c-9.994 0-19.5 5.059-21.584 12.512-2.574 9.229 6.813 18.5 21.584 18.5s24.147-9.274 21.573-18.5c-2.08-7.453-11.59-12.512-21.573-12.512zm0 29.656c-13.681 0-22.484-8.532-20.235-17.144 1.844-7.037 10.792-11.871 20.235-11.871s18.425 4.834 20.235 11.871c2.35 8.611-6.554 17.177-20.235 17.177z" class="cls-20" data-name="Tracé 39" transform="translate(5.505 20.562)"/>
            <path id="Tracé_40" d="M63.571 174.613a3.249 3.249 0 0 1 1.349-.45v2.3a4.283 4.283 0 0 1-1.338-.45.72.72 0 0 1-.45-.675.944.944 0 0 1 .438-.731zm5.239 5.374a.9.9 0 0 1 .506.753.922.922 0 0 1-.438.821 3.271 3.271 0 0 1-1.405.495v-2.586a4.858 4.858 0 0 1 1.338.517zm-2.879-12.827c-8.589 0-16.582 4.418-18.054 10.747-1.765 7.577 6.16 14.929 18.054 14.929s19.819-7.318 17.987-14.9c-1.416-6.363-9.409-10.781-17.987-10.781zm6.205 16.064a8.926 8.926 0 0 1-4.62 1.473v2.372H64.74v-2.316a19.707 19.707 0 0 1-3.833-.528 10.421 10.421 0 0 1-2.833-1.124l1.653-2.35a11.107 11.107 0 0 0 2.248.888 13.929 13.929 0 0 0 2.765.461v-3.114a24.519 24.519 0 0 1-3.024-.675 5.171 5.171 0 0 1-1.99-1.124 2.012 2.012 0 0 1-.663-1.8 3.013 3.013 0 0 1 1.63-2.248 9.342 9.342 0 0 1 4.148-1.124v-1.608h2.248v1.585a15.165 15.165 0 0 1 4.8.922l-1.045 1.922a13.749 13.749 0 0 0-3.721-.821v2.777a26.707 26.707 0 0 1 2.979.618 6.2 6.2 0 0 1 2.125 1.068 2.653 2.653 0 0 1 1.023 1.945 2.934 2.934 0 0 1-1.113 2.8z" class="cls-20" data-name="Tracé 40" transform="translate(5.915 20.757)"/>
            <ellipse id="Ellipse_4" cx="23.158" cy="16.75" class="cls-6" data-name="Ellipse 4" rx="23.158" ry="16.75" transform="translate(68.766 236.257)"/>
            <circle id="Ellipse_5" cx="25.339" cy="25.339" r="25.339" class="cls-19" data-name="Ellipse 5" transform="translate(76.23 218.731)"/>
            <path id="Tracé_41" d="M92.933 196.31a23.383 23.383 0 1 0 23.383 23.383 23.383 23.383 0 0 0-23.383-23.383zm0 45.361a21.978 21.978 0 1 1 21.978-21.978 21.978 21.978 0 0 1-21.978 21.978z" class="cls-20" data-name="Tracé 41" transform="translate(8.636 24.377)"/>
            <path id="Tracé_42" d="M89.865 213.886a2.934 2.934 0 0 1 1.529-.787v3.878a4.2 4.2 0 0 1-1.5-.742 1.383 1.383 0 0 1-.528-1.124 1.765 1.765 0 0 1 .495-1.225zm5.722 8.544a1.439 1.439 0 0 1 .495 1.124 1.6 1.6 0 0 1-.483 1.124 2.788 2.788 0 0 1-1.473.708v-3.766a4.879 4.879 0 0 1 1.428.809zm-3.047-22.72a19.623 19.623 0 1 1-.034 0zm6.318 27.306a7.959 7.959 0 0 1-4.722 1.979v3.058H91.36v-2.979a14.367 14.367 0 0 1-3.845-.708 9.6 9.6 0 0 1-2.945-1.473l1.5-3.373a10.331 10.331 0 0 0 2.428 1.282 11.039 11.039 0 0 0 2.867.652V220.9a20.969 20.969 0 0 1-3.271-1.034 5.621 5.621 0 0 1-2.248-1.686 4.5 4.5 0 0 1-.9-2.934 5.284 5.284 0 0 1 1.653-3.89 7.869 7.869 0 0 1 4.755-1.967v-3.035h2.732v2.979A11.849 11.849 0 0 1 99.612 211l-1.36 3.373a11.017 11.017 0 0 0-4.171-1.416v4.643a19.828 19.828 0 0 1 3.226.989 5.621 5.621 0 0 1 2.248 1.664 4.5 4.5 0 0 1 .9 2.912 5.16 5.16 0 0 1-1.6 3.856z" class="cls-20" data-name="Tracé 42" transform="translate(9.062 24.799)"/>
            <path id="Tracé_43" fill="url(#linear-gradient-6)" d="M19.583 147.4a19.583 19.583 0 1 0 19.583 19.583A19.583 19.583 0 0 0 19.583 147.4zm0 37.66a18.077 18.077 0 1 1 18.066-18.073 18.077 18.077 0 0 1-18.066 18.073z" data-name="Tracé 43" transform="translate(0 18.304)"/>
            <path id="Tracé_44" fill="url(#linear-gradient-7)" d="M19.3 149.71a16.986 16.986 0 1 0 16.983 16.99A16.986 16.986 0 0 0 19.3 149.71zm0 32.106a15.12 15.12 0 1 1 15.12-15.12 15.12 15.12 0 0 1-15.12 15.12z" data-name="Tracé 44" transform="translate(.287 18.59)"/>
            <path id="Tracé_45" fill="url(#linear-gradient-8)" d="M21.814 165.443a15.008 15.008 0 0 0-2.5-.776v-3.586a8.544 8.544 0 0 1 3.226 1.124l1.045-2.6a9.162 9.162 0 0 0-4.272-1.282V156H17.2v2.35a5.958 5.958 0 0 0-3.676 1.529 4.036 4.036 0 0 0-1.282 3 3.507 3.507 0 0 0 .7 2.248 4.5 4.5 0 0 0 1.731 1.293 15.741 15.741 0 0 0 2.529.8v3.53a8.812 8.812 0 0 1-2.248-.517 7.419 7.419 0 0 1-1.832-.967L12 171.84a7.385 7.385 0 0 0 2.248 1.124 11.242 11.242 0 0 0 2.979.551v2.248h2.113V173.4a6.183 6.183 0 0 0 3.642-1.529 4.013 4.013 0 0 0 1.27-2.968 3.485 3.485 0 0 0-.7-2.248 4.328 4.328 0 0 0-1.742-1.214zm-4.609-1.3a3.17 3.17 0 0 1-1.124-.562 1.124 1.124 0 0 1-.4-.866 1.327 1.327 0 0 1 .382-.956 2.17 2.17 0 0 1 1.124-.607zm3.249 5.992a2.248 2.248 0 0 1-1.124.551v-2.916a3.474 3.474 0 0 1 1.124.6 1.124 1.124 0 0 1 .393.866 1.237 1.237 0 0 1-.393.9z" data-name="Tracé 45" transform="translate(1.49 19.371)"/>
            <path id="Tracé_46" fill="url(#linear-gradient-9)" d="M45.692 110.35a11.5 11.5 0 1 0 8.143 3.368 11.512 11.512 0 0 0-8.143-3.368zm0 22.135a10.6 10.6 0 1 0 0-.045z" data-name="Tracé 46" transform="translate(4.244 13.703)"/>
            <path id="Tracé_47" fill="url(#linear-gradient-10)" d="M45.525 111.7a9.994 9.994 0 1 0 9.983 9.994 9.994 9.994 0 0 0-9.983-9.994zm0 18.886a8.892 8.892 0 1 1 8.892-8.892 8.892 8.892 0 0 1-8.892 8.892z" data-name="Tracé 47" transform="translate(4.411 13.87)"/>
            <path id="Tracé_48" fill="url(#linear-gradient-11)" d="M47.008 120.953a9.657 9.657 0 0 0-1.473-.45v-2.113a5.036 5.036 0 0 1 1.9.652l.618-1.529a5.5 5.5 0 0 0-2.518-.753v-1.36h-1.191v1.383a3.609 3.609 0 0 0-2.17.9 2.417 2.417 0 0 0-.753 1.765 2.023 2.023 0 0 0 .416 1.338 2.631 2.631 0 0 0 1.012.764 9.175 9.175 0 0 0 1.5.461v2.08a5.126 5.126 0 0 1-1.3-.3 4.081 4.081 0 0 1-1.124-.585l-.686 1.518a4.5 4.5 0 0 0 1.338.675 6.825 6.825 0 0 0 1.754.315v1.349h1.237v-1.383a3.609 3.609 0 0 0 2.147-.9 2.361 2.361 0 0 0 .742-1.742 1.99 1.99 0 0 0-.416-1.327 2.653 2.653 0 0 0-1.033-.758zm-2.664-.764a1.855 1.855 0 0 1-.686-.337.607.607 0 0 1-.236-.506.764.764 0 0 1 .225-.562 1.315 1.315 0 0 1 .7-.348zm1.9 3.53a1.36 1.36 0 0 1-.663.315v-1.709a2.012 2.012 0 0 1 .663.348.663.663 0 0 1 .225.506.708.708 0 0 1-.27.54z" data-name="Tracé 48" transform="translate(5.12 14.33)"/>
            <path id="Tracé_49" fill="url(#linear-gradient-12)" d="M269.163 93.36a11.512 11.512 0 1 0 8.151 3.372 11.523 11.523 0 0 0-8.151-3.372zm0 22.146a10.624 10.624 0 1 1 7.519-3.108 10.635 10.635 0 0 1-7.519 3.108z" data-name="Tracé 49" transform="translate(31.993 11.593)"/>
            <path id="Tracé_50" fill="url(#linear-gradient-13)" d="M268.994 94.72a9.994 9.994 0 1 0 9.994 9.994 9.994 9.994 0 0 0-9.994-9.994zm0 18.886a8.892 8.892 0 1 1 8.892-8.892 8.892 8.892 0 0 1-8.892 8.892z" data-name="Tracé 50" transform="translate(32.162 11.762)"/>
            <path id="Tracé_51" fill="url(#linear-gradient-14)" d="M270.483 103.973a8.24 8.24 0 0 0-1.473-.45v-2.113a5.081 5.081 0 0 1 1.9.641l.618-1.518a5.463 5.463 0 0 0-2.518-.764V98.42h-1.237v1.38a3.541 3.541 0 0 0-2.17.9 2.383 2.383 0 0 0-.742 1.765 2.035 2.035 0 0 0 .4 1.327 2.518 2.518 0 0 0 1.012.764 8.42 8.42 0 0 0 1.5.472v2.08a5.238 5.238 0 0 1-1.3-.3 4.5 4.5 0 0 1-1.124-.585l-.686 1.518a4.5 4.5 0 0 0 1.337.659 6.453 6.453 0 0 0 1.754.326v1.349h1.237v-1.383a3.676 3.676 0 0 0 2.147-.9 2.361 2.361 0 0 0 .742-1.742 2.057 2.057 0 0 0-.4-1.327 2.5 2.5 0 0 0-.997-.75zm-2.709-.764a1.855 1.855 0 0 1-.686-.337.618.618 0 0 1-.236-.506.809.809 0 0 1 .225-.562 1.405 1.405 0 0 1 .7-.36zm1.911 3.519a1.27 1.27 0 0 1-.674.326v-1.709a1.911 1.911 0 0 1 .663.348.618.618 0 0 1 .236.506.731.731 0 0 1-.225.528z" data-name="Tracé 51" transform="translate(32.864 12.221)"/>
            <path id="Tracé_52" fill="url(#linear-gradient-15)" d="M268.716 145.78a17.054 17.054 0 1 0 12.079 5.015 17.065 17.065 0 0 0-12.079-5.015zm0 32.8a6.521 6.521 0 1 1 0 .045z" data-name="Tracé 52" transform="translate(31.248 18.102)"/>
            <path id="Tracé_53" fill="url(#linear-gradient-16)" d="M268.463 147.8a14.794 14.794 0 1 0 10.484 4.345 14.794 14.794 0 0 0-10.484-4.345zm0 27.958a13.175 13.175 0 1 1 13.164-13.119 13.175 13.175 0 0 1-13.164 13.119z" data-name="Tracé 53" transform="translate(31.501 18.353)"/>
            <path id="Tracé_54" fill="url(#linear-gradient-17)" d="M270.655 161.5a13.14 13.14 0 0 0-2.17-.675V157.7a7.329 7.329 0 0 1 2.81.956l.911-2.248a8.116 8.116 0 0 0-3.721-1.124v-2h-1.844v2.035a5.329 5.329 0 0 0-3.2 1.327 3.552 3.552 0 0 0-1.124 2.619 3.035 3.035 0 0 0 .607 1.979 3.935 3.935 0 0 0 1.506 1.124 13.128 13.128 0 0 0 2.248.7v3.069a7.026 7.026 0 0 1-1.922-.438 6.664 6.664 0 0 1-1.641-.866l-1.012 2.248a6.834 6.834 0 0 0 1.99.989 9.825 9.825 0 0 0 2.586.472v2h1.844v-2.057a5.284 5.284 0 0 0 3.17-1.327 3.451 3.451 0 0 0 1.124-2.586 3.013 3.013 0 0 0-.607-1.956 3.766 3.766 0 0 0-1.551-1.113zm-4.013-1.124a2.833 2.833 0 0 1-1.012-.495.955.955 0 0 1-.349-.753 1.124 1.124 0 0 1 .337-.832 2 2 0 0 1 1.023-.528zm2.833 5.216a1.99 1.99 0 0 1-.989.483v-2.541a3.024 3.024 0 0 1 .978.517.956.956 0 0 1 .337.753 1.045 1.045 0 0 1-.326.776z" data-name="Tracé 54" transform="translate(32.547 19.034)"/>
            <path id="Tracé_55" fill="url(#linear-gradient-18)" d="M27.4 77.67a15.221 15.221 0 1 0 15.21 15.221A15.221 15.221 0 0 0 27.4 77.67zm0 29.229a14.025 14.025 0 1 1 0 .034z" data-name="Tracé 55" transform="translate(1.511 9.645)"/>
            <path id="Tracé_56" fill="url(#linear-gradient-19)" d="M27.178 79.47a13.187 13.187 0 1 0 9.336 3.862 13.2 13.2 0 0 0-9.336-3.862zm0 24.945a11.759 11.759 0 1 1 11.747-11.747 11.759 11.759 0 0 1-11.748 11.748z" data-name="Tracé 56" transform="translate(1.736 9.868)"/>
            <path id="Tracé_57" fill="url(#linear-gradient-20)" d="M29.136 91.69a11.175 11.175 0 0 0-1.945-.6v-2.784a6.52 6.52 0 0 1 2.507.854l.821-2.024a7.262 7.262 0 0 0-3.373-1V84.36h-1.585v1.84a4.744 4.744 0 0 0-2.867 1.124 3.148 3.148 0 0 0-.989 2.338 2.676 2.676 0 0 0 .54 1.754 3.373 3.373 0 0 0 1.349 1.012 11.973 11.973 0 0 0 1.967.63v2.732a6.374 6.374 0 0 1-1.72-.393 5.778 5.778 0 0 1-1.461-.764l-.9 1.99a5.4 5.4 0 0 0 1.765.888 8.7 8.7 0 0 0 2.316.427v1.787h1.63v-1.8a4.845 4.845 0 0 0 2.844-1.192 3.114 3.114 0 0 0 1.023-2.3 2.664 2.664 0 0 0-.54-1.742 3.373 3.373 0 0 0-1.382-1.001zm-3.575-.99a2.642 2.642 0 0 1-.911-.438.866.866 0 0 1-.337-.686 1.034 1.034 0 0 1 .292-.742 1.787 1.787 0 0 1 .922-.472zm2.518 4.654a1.731 1.731 0 0 1-.888.427v-2.248a2.642 2.642 0 0 1 .877.461.832.832 0 0 1 .3.675.922.922 0 0 1-.292.663z" data-name="Tracé 57" transform="translate(2.667 10.475)"/>
            <path id="Tracé_58" fill="url(#linear-gradient-21)" d="M299.366 115.09a13.58 13.58 0 1 0 9.643 3.962 13.591 13.591 0 0 0-9.643-3.962zm0 26.126a12.546 12.546 0 1 1 12.512-12.535 12.546 12.546 0 0 1-12.512 12.535z" data-name="Tracé 58" transform="translate(35.492 14.291)"/>
            <path id="Tracé_59" fill="url(#linear-gradient-22)" d="M299.17 116.7a11.781 11.781 0 1 0 11.793 11.781A11.781 11.781 0 0 0 299.17 116.7zm0 22.27a10.489 10.489 0 1 1 10.489-10.489 10.489 10.489 0 0 1-10.489 10.489z" data-name="Tracé 59" transform="translate(35.688 14.491)"/>
            <path id="Tracé_60" fill="url(#linear-gradient-23)" d="M300.925 127.614a10.59 10.59 0 0 0-1.731-.54v-2.484a5.767 5.767 0 0 1 2.248.764l.731-1.81a6.508 6.508 0 0 0-2.968-.888v-1.6h-1.461v1.63a4.137 4.137 0 0 0-2.552 1.057 2.8 2.8 0 0 0-.888 2.08 2.372 2.372 0 0 0 .483 1.574 2.945 2.945 0 0 0 1.192.9 10.58 10.58 0 0 0 1.765.562v2.441a6 6 0 0 1-1.54-.348 5.3 5.3 0 0 1-1.3-.686l-.809 1.787a5.486 5.486 0 0 0 1.585.787 8.219 8.219 0 0 0 2.068.382v1.6h1.452v-1.641a4.306 4.306 0 0 0 2.529-1.057 2.777 2.777 0 0 0 .877-2.057 2.36 2.36 0 0 0-.483-1.563 3 3 0 0 0-1.2-.888zm-3.193-.9a2.249 2.249 0 0 1-.809-.4.708.708 0 0 1-.281-.6.944.944 0 0 1 .27-.663 1.574 1.574 0 0 1 .821-.416zm2.248 4.148a1.563 1.563 0 0 1-.787.382v-2.024a2.473 2.473 0 0 1 .776.416.765.765 0 0 1 .27.6.821.821 0 0 1-.259.63z" data-name="Tracé 60" transform="translate(36.519 15.033)"/>
            <path id="Tracé_61" fill="url(#linear-gradient-24)" d="M104.984 12.75a11.062 11.062 0 1 0 7.826 3.244 11.073 11.073 0 0 0-7.826-3.244zm0 21.281a10.219 10.219 0 1 1 10.208-10.208 10.219 10.219 0 0 1-10.208 10.208z" data-name="Tracé 61" transform="translate(11.66 1.583)"/>
            <path id="Tracé_62" fill="url(#linear-gradient-25)" d="M104.82 14.06a9.6 9.6 0 1 0 9.6 9.6 9.6 9.6 0 0 0-9.6-9.6zm0 18.144a8.544 8.544 0 1 1 8.544-8.544 8.544 8.544 0 0 1-8.544 8.54z" data-name="Tracé 62" transform="translate(11.824 1.746)"/>
            <path id="Tracé_63" fill="url(#linear-gradient-26)" d="M106.246 22.95a7.588 7.588 0 0 0-1.416-.438v-2.024a4.856 4.856 0 0 1 1.832.618l.6-1.461a5.3 5.3 0 0 0-2.428-.731v-1.3h-1.192v1.327a3.44 3.44 0 0 0-2.08.866 2.316 2.316 0 0 0-.719 1.7 2 2 0 0 0 .393 1.282 2.439 2.439 0 0 0 .978.731 8.994 8.994 0 0 0 1.428.45v1.956a4.778 4.778 0 0 1-1.248-.281 3.924 3.924 0 0 1-1.057-.562l-.663 1.45a4.2 4.2 0 0 0 1.293.652 6.306 6.306 0 0 0 1.675.3v1.3h1.192v-1.3a3.474 3.474 0 0 0 2.068-.866 2.248 2.248 0 0 0 .708-1.675 1.934 1.934 0 0 0-.393-1.27 2.462 2.462 0 0 0-.967-.719zm-2.608-.731a1.956 1.956 0 0 1-.652-.326.63.63 0 0 1-.225-.495.764.764 0 0 1 .214-.54 1.237 1.237 0 0 1 .663-.337zm1.844 3.373a1.3 1.3 0 0 1-.652.3v-1.63a1.709 1.709 0 0 1 .641.337.607.607 0 0 1 .225.483.742.742 0 0 1-.157.517z" data-name="Tracé 63" transform="translate(12.501 2.187)"/>
            <path id="Tracé_64" fill="#6d99bf" d="M183.591 109.613s-23.484-2.248-25.856 2.968 26.924 12.3 31.409 13.569 30.218 15.738 30.218 15.738-3.474 24.732-4.227 29.319-2.248 23.315 1.461 32.511 12.5 13.31 13.794 11.017-.8-56.209 0-58.176 4.5-20.235 4.5-20.235z" data-name="Tracé 64" opacity="0.5" transform="translate(19.57 13.552)"/>
            <path id="Tracé_65" d="M253.08 194.22s1.54 8.836 6.25 7.6 23.248-12.1 23.833-13.636-4.07-3.114-6.34-2.024-11.557 4.328-12.366 4.6z" class="cls-43" data-name="Tracé 65" transform="translate(31.426 23.072)"/>
            <path id="Tracé_66" d="M216.7 172.42s-5.542 1.518-3.676 8.656 15.345 20.516 17.841 19.538-2.327-20.145-5.756-22.562-8.409-5.632-8.409-5.632z" class="cls-43" data-name="Tracé 66" transform="translate(26.405 21.41)"/>
            <path id="Tracé_67" d="M238.675 97.947s31.14 20.168 25.35 32.6-38.941 62.8-38.941 62.8-7.734-8.566-6.846-11.748 21.359-53.466 17.773-56.434-31.331-20.955-31.331-20.955 23.327-14.222 33.995-6.263z" class="cls-44" data-name="Tracé 67" transform="translate(25.416 11.862)"/>
            <path id="Tracé_68" d="M260.9 130.976c-1-6.857-5.171-12.771-6.745-19.5a11.933 11.933 0 0 1-.236-1.484 121.414 121.414 0 0 0-15.266-12.04c-10.668-7.959-34 6.25-34 6.25s27.722 17.987 31.331 20.955-16.863 53.241-17.773 56.434a4.71 4.71 0 0 0 .562 2.889c3.923-3.867 14.985-29.824 25.586-30.6 0 0-1.563 1.574-1.529 1.563 7.554-7.689 14.491-15.2 18.414-20.527a27.212 27.212 0 0 0-.344-3.94z" class="cls-45" data-name="Tracé 68" transform="translate(25.414 11.862)"/>
            <path id="Tracé_69" d="M189.6 121.357s9.96 12.872 43.775 20.527c15.323 24.732 27.587 63.167 27.587 63.167l11.332-3.462s-8.06-59.323-18.043-71.329c-5.621-6.8-31.7-28.835-41.269-31.409s-19.964 12.996-23.382 22.506z" class="cls-44" data-name="Tracé 69" transform="translate(23.544 12.24)"/>
            <path id="Tracé_70" d="M188.8 33.69s-2.439 14.075-3.114 16.6 7.779 9.319 12.366 7.959 6.464-7.195 6.464-7.195l-.967-12.523S190.1 35.219 188.8 33.69z" class="cls-46" data-name="Tracé 70" transform="translate(23.053 4.183)"/>
            <path id="Tracé_71" fill="#efe3cb" d="M188.8 33.69s-2.439 14.075-3.114 16.6 7.779 9.319 12.366 7.959 6.464-7.195 6.464-7.195l-.967-12.523S190.1 35.219 188.8 33.69z" data-name="Tracé 71" opacity="0.8" transform="translate(23.053 4.183)"/>
            <path id="Tracé_72" fill="#a9d9ff" d="M185.74 42.14l15.165 16.705 4.5-15.457s23.225 6.576 25.991 9.69-14.614 53.443-16.6 54.264S149.6 49.076 185.74 42.14z" data-name="Tracé 72" transform="translate(21.681 5.233)"/>
            <path id="Tracé_73" d="M265.7 91.57c-.832-.866-30.353-35.355-33.141-38.458s-26.025-9.69-26.025-9.69l6.307 56.411-25.97-57.693c-36.142 6.936-16.48 47.924-12.119 51.083 3.047 2.248 8.69 22.326 11.815 34.231a8.923 8.923 0 0 1 .562.877c.225.382.472.753.7 1.124l.371.438c.472.427.911.888 1.371 1.338a11.915 11.915 0 0 1 1.214.888h.225c.371.09.753.2 1.124.315 6.914-7.622 22.3-24.485 23.833-25.114 1.979-.821 24.732 4.137 24.732 4.137s.135-6.914-3.519-11.905c-.483-.674-4.811-9.578-2.395-10.241 3.148-.866 11.051 10.8 16.66 11.4 8.455.977 14.669-8.748 14.255-9.141z" class="cls-44" data-name="Tracé 73" transform="translate(20.551 5.233)"/>
            <path id="Tracé_74" d="M215.1 107.376a19.111 19.111 0 0 1 5.16.427c-.067-9.241 11.928-7.543 12.692-15.738.09-.989 2.248-5.958 2.248-4.789.124-.787.259-1.563.4-2.338a8.566 8.566 0 0 1 6.453-6.869 12.048 12.048 0 0 1-.382-1.282 22.292 22.292 0 0 1-7.588-4.587 28.25 28.25 0 0 1-4.328-5.216c-.764 6.745-1.742 13.49-4.418 19.977-2.136 5.137-6.891 8.679-12.669 7.15.6 5.036 1 8.993 1.034 10.893-20.381 28.914-24.147 10.5-25.687 4.182 11.354-.944 24.316-7.925 24.316-7.925l-4.07-8.488c-6.374-.067-12.669-5.216-9.971-12.917a44.712 44.712 0 0 0 1.383-5L186.019 42.14c-3.373.652-8.015 2.957-10.444 4.148.427 1.54 3.822 4.5 5.081 12.883a49.159 49.159 0 0 0 7.543.079c-.562 2.372-1.979 5.4-1.81 7.633 3.159 4.733 6.531 7.532 8.274 10.118a10.893 10.893 0 0 1-5.43 5.531c-1.36.506-2.743-3.912-5.621-12.58-11.68 10.758-12.962 20.91-9.7 23.27 3.047 2.248 8.69 22.326 11.815 34.231a8.926 8.926 0 0 1 .562.877c.225.382.472.753.7 1.124l.371.438c.472.427.911.888 1.371 1.338a11.916 11.916 0 0 1 1.214.888h.225c.371.09.753.2 1.124.315 6.888-7.565 22.256-24.428 23.806-25.057z" class="cls-45" data-name="Tracé 74" transform="translate(21.403 5.233)"/>
            <path id="Tracé_75" d="M219.5 17.023s-4.27 16.267-6.35 20.831c-5.419 11.883-10.241 8.993-13.232 8.7s-10.4-6.149-11.669-8.769C186 33.425 183.393 24.4 185.731 19.5s24.62-18.2 33.769-2.477z" class="cls-46" data-name="Tracé 75" transform="translate(22.95 1.189)"/>
            <path id="Tracé_76" d="M185.687 42.14s27.531 53.871 27.273 61.36c0 0-23.394-38.042-25.069-38.818l1.372-7.06-7.453.214s-4.71-10.387-6.565-11.545 8.824-4.151 10.442-4.151z" class="cls-49" data-name="Tracé 76" transform="translate(21.734 5.233)"/>
            <path id="Tracé_77" d="M202 43.28s.7 44.967 7.611 57.828c0 0 .776-37.1.63-39.919L206.07 58.5l4.306-.686a86.272 86.272 0 0 0 1.979-11.849c-3.455-1.684-8.388-1.1-10.355-2.685z" class="cls-49" data-name="Tracé 77" transform="translate(25.084 5.374)"/>
            <path id="Tracé_78" d="M184.51 42.383l3.136-2.2 9.713 15.154-4.359 6.63z" class="cls-50" data-name="Tracé 78" transform="translate(22.912 4.989)"/>
            <path id="Tracé_79" d="M195.94 54.786l6.824-10.2.742 15.615z" class="cls-50" data-name="Tracé 79" transform="translate(24.331 5.537)"/>
            <path id="Tracé_80" d="M193.5 57.842l2.619 3.316 3.845-.731 1.225-3.226-4.946-3.541z" class="cls-51" data-name="Tracé 80" transform="translate(24.028 6.663)"/>
            <path id="Tracé_81" d="M170.084 50.31s-9.432 18.92-2.417 35.625c4.913 11.7 13.175 19.561 28.633 18.4 15.176-1.124 33.152-13.254 33.152-13.254s.124-7.588-2.945-8.769c0 0-15.5 11.568-29.993 8.622-11.118-2.248-12.074-18.56-12.017-21.359S170.084 50.31 170.084 50.31z" class="cls-44" data-name="Tracé 81" transform="translate(20.498 6.247)"/>
            <path id="Tracé_82" d="M218.913 80.32s5.137-7.229 7.217-8.32 15.918 1.371 15.918 1.371 2.125 7.869-1.8 7.285-10.005 3.968-10.567 4.148-7.352 2.507-9.229 2.473-1.539-6.957-1.539-6.957z" class="cls-46" data-name="Tracé 82" transform="translate(27.181 8.906)"/>
            <path id="Tracé_83" fill="#8ba8ba" d="M246.184 70.04l-13.524 36.547.888 1.135 23.585 2.091L275.2 76.189l-1.046-.787z" data-name="Tracé 83" transform="translate(28.891 8.697)"/>
            <path id="Tracé_84" fill="#b1cee6" d="M246.94 70.89l-13.49 36.727 25.1 3.867 16.548-35.4z" data-name="Tracé 84" transform="translate(28.989 8.803)"/>
            <path id="Tracé_85" fill="#254766" d="M257.863 84.57a3 3 0 1 1-2.732-2.889 2.822 2.822 0 0 1 2.732 2.889z" data-name="Tracé 85" transform="translate(31.275 10.141)"/>
            <path id="Tracé_86" d="M265.373 89.7s-1.124 4.9-3.215 5.07c-3.642.292-8.667-2.676-10.118-.169s-3.373 1.979-2.338 6.048 1.124 6.026 5.25 7.217 10.118 1.563 11.534-1.787 4.441-13.984-1.113-16.379z" class="cls-46" data-name="Tracé 86" transform="translate(30.971 11.139)"/>
            <path id="Tracé_87" fill="#e4b888" d="M191.681 28.6s2.248-1.967 2.608-8.577 5.059-7.779 10.691-4.238 12.748 6.633 17.256 3.485 5.891-13.164-2.743-14.457-15.356 1.9-20.516-.326S186.15 2.95 184.036 11.5s-1.911 19.257 3.8 25.766c0 0-.2-3.373-.169-4.946-3.125-5.976.978-8.832 4.014-3.72z" data-name="Tracé 87" transform="translate(22.7 .423)"/>
            <path id="Tracé_88" d="M200.022 60.411c.157 2.439.866 18.987-13.49 22.855-9.747 2.619-24.046 15.176-24.237 15.734s-.225 14.052-.225 14.052l11.242-2.822c1.349-2.248 14.884-16.267 23.518-20.438s6.981-30.117 6.981-30.117z" class="cls-51" data-name="Tracé 88" transform="translate(20.125 7.411)"/>
        </g>
    </g>
</svg>
