<svg xmlns="http://www.w3.org/2000/svg" width="587.922" height="559.124" viewBox="0 0 587.922 559.124">
    <defs>
        <style>
            .cls-2,.cls-3,.cls-4,.cls-5,.cls-6,.cls-7,.cls-8{fill:#f1f5fa}.cls-3{opacity:.83}.cls-4{opacity:.67}.cls-5{opacity:.5}.cls-6{opacity:.33}.cls-7{opacity:.17}.cls-8{opacity:0}.cls-9{fill:#323a3b}.cls-10{fill:#232829}.cls-11{fill:#1d1f1f}.cls-12{fill:#141515}.cls-13{fill:#cecece}.cls-18{fill:#eea78e}.cls-20{fill:#0075ea}.cls-21{fill:#111114}.cls-22{fill:#0a0a0a}.cls-23{fill:#000959}.cls-26{fill:#38324c}.cls-27{fill:#f1c40f}
        </style>
    </defs>
    <g id="registration" transform="translate(-.011 -.004)">
        <g id="Layer_1" data-name="Layer 1" transform="translate(.011 .004)">
            <path id="Path_319" d="M572.936 256.452c.617-.319 1.254-.637 1.851-.975 17.28-9.954 17.22-26.338-.239-36.391-15.667-9.058-40.114-9.954-57.414-2.588-99.658-52.438-247.534-57.276-356.148-14.574a31.613 31.613 0 0 0-13.478-13.458c-20.186-11.646-52.895-11.626-72.982 0s-19.908 30.578.239 42.244a65 65 0 0 0 19.908 7.147C7.079 303.195 15.242 397.458 119.06 457.4c112.658 65.038 295.291 65.038 407.929 0 94.282-54.547 109.651-137.363 45.947-200.948z" data-name="Path 319" opacity="0.1" transform="translate(-30.075 52.945)"/>
            <g id="Group_10" data-name="Group 10" transform="translate(182.892 65.107)">
                <path id="Path_320" d="M125.274 142.914l2.21.876a3.126 3.126 0 0 0 2.21 0l2.23-.876c1.493-.557 1.493-1.991 0-2.588l-2.23-.876a3.125 3.125 0 0 0-2.21 0l-2.23.876c-1.434.558-1.434 2.011.02 2.588z" class="cls-2" data-name="Path 320" transform="translate(-124.181 -45.762)"/>
                <path id="Path_321" d="M125.326 135.088l2.21.876a3.126 3.126 0 0 0 2.21 0l2.23-.876c1.473-.557 1.493-1.991 0-2.588l-2.23-.876a3.026 3.026 0 0 0-2.21 0l-2.23.856c-1.493.577-1.493 2.09.02 2.608z" class="cls-3" data-name="Path 321" transform="translate(-124.174 -53.523)"/>
                <path id="Path_322" d="M125.339 127.244l2.21.9a3.245 3.245 0 0 0 2.21 0l2.23-.856c1.473-.577 1.493-1.991 0-2.608l-2.25-.876a3.125 3.125 0 0 0-2.21 0l-2.23.856c-1.414.554-1.434 2.007.04 2.584z" class="cls-4" data-name="Path 322" transform="translate(-124.127 -61.268)"/>
                <path id="Path_323" d="M125.349 119.414l2.23.9a3.185 3.185 0 0 0 2.19 0l2.25-.856c1.473-.577 1.493-1.991 0-2.608l-2.21-.876a3.126 3.126 0 0 0-2.21 0l-2.25.856c-1.434.57-1.449 2.007 0 2.584z" class="cls-5" data-name="Path 323" transform="translate(-124.097 -69.025)"/>
                <path id="Path_324" d="M125.382 111.581l2.23.9a3.185 3.185 0 0 0 2.19 0l2.25-.856c1.473-.577 1.473-1.991 0-2.588l-2.23-.9a3.185 3.185 0 0 0-2.19 0l-2.25.856c-1.453.577-1.453 2.007 0 2.588z" class="cls-6" data-name="Path 324" transform="translate(-124.071 -76.779)"/>
                <path id="Path_325" d="M125.412 103.751l2.23.9a3.185 3.185 0 0 0 2.19 0l2.25-.856c1.453-.577 1.473-1.991 0-2.588l-2.23-.9a3.245 3.245 0 0 0-2.21 0l-2.23.856c-1.453.577-1.453 2.01 0 2.588z" class="cls-7" data-name="Path 325" transform="translate(-124.041 -84.537)"/>
                <path id="Path_326" d="M125.446 95.934l2.21.876a3.126 3.126 0 0 0 2.21 0l2.23-.856c1.473-.577 1.493-1.991 0-2.588l-2.21-.876a3.125 3.125 0 0 0-2.21 0l-2.23.856c-1.453.554-1.473 1.991 0 2.588z" class="cls-8" data-name="Path 326" transform="translate(-124.015 -92.289)"/>
            </g>
            <g id="Group_11" data-name="Group 11" transform="translate(429.476)">
                <path id="Path_327" d="M248.832 113.3l1.612.936a1.533 1.533 0 0 0 1.573 0l1.613-.916a1.573 1.573 0 0 0 0-2.747l-1.593-.936a1.573 1.573 0 0 0-1.593 0l-1.613.916a1.593 1.593 0 0 0 0 2.747z" class="cls-2" data-name="Path 327" transform="translate(-248.045 -10.207)"/>
                <path id="Path_328" d="M248.851 105l1.613.936a1.593 1.593 0 0 0 1.573 0l1.612-.916a1.573 1.573 0 0 0 0-2.747l-1.593-.936a1.573 1.573 0 0 0-1.593 0l-1.613.916a1.593 1.593 0 0 0 0 2.747z" class="cls-3" data-name="Path 328" transform="translate(-248.025 -18.431)"/>
                <path id="Path_329" d="M248.88 96.7l1.613.936a1.633 1.633 0 0 0 1.573 0l1.613-.936a1.573 1.573 0 0 0 0-2.747l-1.593-.936a1.613 1.613 0 0 0-1.593 0l-1.613.916a1.593 1.593 0 0 0 0 2.767z" class="cls-4" data-name="Path 329" transform="translate(-248.014 -26.671)"/>
                <path id="Path_330" d="M248.892 88.381l1.613.936a1.533 1.533 0 0 0 1.573 0l1.613-.916a1.573 1.573 0 0 0 0-2.747l-1.593-.936a1.573 1.573 0 0 0-1.593 0l-1.612.916a1.593 1.593 0 0 0 0 2.747z" class="cls-5" data-name="Path 330" transform="translate(-247.985 -34.897)"/>
                <path id="Path_331" d="M248.912 80.071l1.613.936a1.533 1.533 0 0 0 1.573 0l1.613-.916a1.573 1.573 0 0 0 0-2.747l-1.593-.936a1.573 1.573 0 0 0-1.593 0l-1.612.916a1.593 1.593 0 0 0 0 2.747z" class="cls-6" data-name="Path 331" transform="translate(-247.966 -43.131)"/>
                <path id="Path_332" d="M248.931 71.771l1.613.936a1.593 1.593 0 0 0 1.573 0l1.613-.916a1.573 1.573 0 0 0 0-2.747l-1.593-.936a1.573 1.573 0 0 0-1.593 0l-1.613.916a1.593 1.593 0 0 0 0 2.747z" class="cls-7" data-name="Path 332" transform="translate(-247.946 -51.354)"/>
                <path id="Path_333" d="M248.952 63.458l1.613.936a1.533 1.533 0 0 0 1.573 0l1.613-.916a1.573 1.573 0 0 0 0-2.747l-1.593-.936a1.613 1.613 0 0 0-1.593 0l-1.613.916a1.593 1.593 0 0 0 0 2.747z" class="cls-8" data-name="Path 333" transform="translate(-247.926 -59.584)"/>
            </g>
            <g id="Group_12" data-name="Group 12" transform="translate(581.302 215.394)">
                <path id="Path_334" d="M325.107 221.506l1.593.936a1.612 1.612 0 0 0 1.592 0l1.613-.916a1.593 1.593 0 0 0 0-2.747l-1.613-.936a1.592 1.592 0 0 0-1.573 0l-1.632.916a1.593 1.593 0 0 0 .02 2.747z" class="cls-2" data-name="Path 334" transform="translate(-324.31 -118.386)"/>
                <path id="Path_335" d="M325.135 213.206l1.593.936a1.573 1.573 0 0 0 1.593 0l1.612-.916a1.593 1.593 0 0 0 0-2.747l-1.613-.956a1.593 1.593 0 0 0-1.573 0l-1.633.916a1.593 1.593 0 0 0 .02 2.767z" class="cls-3" data-name="Path 335" transform="translate(-324.299 -126.63)"/>
                <path id="Path_336" d="M325.152 204.931l1.593.936a1.573 1.573 0 0 0 1.593 0l1.612-.916a1.593 1.593 0 0 0 0-2.747l-1.612-.936a1.533 1.533 0 0 0-1.573 0l-1.612.916a1.573 1.573 0 0 0 0 2.747z" class="cls-4" data-name="Path 336" transform="translate(-324.275 -134.818)"/>
                <path id="Path_337" d="M325.163 196.586l1.593.936a1.613 1.613 0 0 0 1.593 0l1.613-.916a1.593 1.593 0 0 0 0-2.747l-1.613-.936a1.593 1.593 0 0 0-1.573 0l-1.613.936a1.573 1.573 0 0 0 0 2.727z" class="cls-5" data-name="Path 337" transform="translate(-324.247 -143.076)"/>
                <path id="Path_338" d="M325.192 188.276l1.593.936a1.612 1.612 0 0 0 1.593 0l1.612-.916a1.593 1.593 0 0 0 0-2.747l-1.612-.936a1.592 1.592 0 0 0-1.573 0l-1.613.916a1.573 1.573 0 0 0 0 2.747z" class="cls-6" data-name="Path 338" transform="translate(-324.236 -151.31)"/>
                <path id="Path_339" d="M325.221 179.936l1.593.936a1.573 1.573 0 0 0 1.593 0l1.612-.916a1.612 1.612 0 0 0 0-2.767l-1.612-.936a1.593 1.593 0 0 0-1.573 0l-1.613.916a1.573 1.573 0 0 0 0 2.767z" class="cls-7" data-name="Path 339" transform="translate(-324.225 -159.592)"/>
                <path id="Path_340" d="M325.232 171.661l1.593.936a1.573 1.573 0 0 0 1.593 0l1.612-.916a1.593 1.593 0 0 0 0-2.747l-1.613-.934a1.533 1.533 0 0 0-1.573 0l-1.612.916a1.573 1.573 0 0 0 0 2.747z" class="cls-8" data-name="Path 340" transform="translate(-324.196 -167.781)"/>
            </g>
            <g id="Group_13" data-name="Group 13" transform="translate(0 150.709)">
                <path id="Path_341" d="M33.344 207.438l2.15 1.274a2.15 2.15 0 0 0 2.13 0l2.15-1.234a2.13 2.13 0 0 0 0-3.683l-2.11-1.254a2.15 2.15 0 0 0-2.13 0l-2.17 1.234a2.13 2.13 0 0 0-.02 3.663z" class="cls-2" data-name="Path 341" transform="translate(-32.311 -68.936)"/>
                <path id="Path_342" d="M33.393 196.3l2.13 1.254a2.15 2.15 0 0 0 2.13 0l2.17-1.234a2.11 2.11 0 0 0 0-3.683l-2.17-1.254a2.17 2.17 0 0 0-2.15 0l-2.17 1.234a2.15 2.15 0 0 0 .06 3.683z" class="cls-3" data-name="Path 342" transform="translate(-32.301 -79.995)"/>
                <path id="Path_343" d="M33.4 185.138l2.15 1.254a2.15 2.15 0 0 0 2.13 0l2.17-1.234a2.13 2.13 0 0 0 0-3.683l-2.15-1.254a2.15 2.15 0 0 0-2.13 0l-2.17 1.234a2.15 2.15 0 0 0 0 3.683z" class="cls-4" data-name="Path 343" transform="translate(-32.266 -91.05)"/>
                <path id="Path_344" d="M33.459 174.007l2.17 1.214a2.19 2.19 0 0 0 2.13 0l2.17-1.234a2.15 2.15 0 0 0 0-3.7l-2.15-1.254a2.15 2.15 0 0 0-2.13 0l-2.17 1.234a2.13 2.13 0 0 0-.02 3.743z" class="cls-5" data-name="Path 344" transform="translate(-32.267 -102.137)"/>
                <path id="Path_345" d="M33.481 162.829l2.13 1.254a2.15 2.15 0 0 0 2.13 0l2.17-1.234a2.13 2.13 0 0 0 0-3.7l-2.15-1.254a2.17 2.17 0 0 0-2.15 0l-2.15 1.234a2.13 2.13 0 0 0 .02 3.7z" class="cls-6" data-name="Path 345" transform="translate(-32.229 -113.176)"/>
                <path id="Path_346" d="M33.534 151.668l2.15 1.254a2.15 2.15 0 0 0 2.13 0l2.17-1.234a2.13 2.13 0 0 0 0-3.683l-2.15-1.274a2.15 2.15 0 0 0-2.13 0l-2.17 1.214a2.15 2.15 0 0 0 0 3.723z" class="cls-7" data-name="Path 346" transform="translate(-32.163 -124.231)"/>
                <path id="Path_347" d="M33.545 140.508l2.15 1.254a2.09 2.09 0 0 0 2.13 0l2.17-1.234a2.13 2.13 0 0 0 0-3.683l-2.15-1.274a2.15 2.15 0 0 0-2.13 0l-2.17 1.214a2.13 2.13 0 0 0 0 3.723z" class="cls-8" data-name="Path 347" transform="translate(-32.174 -135.288)"/>
            </g>
            <g id="Group_14" data-name="Group 14" transform="translate(56.515 236.475)">
                <path id="Path_348" d="M137.35 124.69l-.02 13.557-43.14 25.064.02-13.5z" class="cls-9" data-name="Path 348" transform="translate(36.783 -112.944)"/>
                <path id="Path_349" d="M168.934 155.288l-.04 13.537-53.034-30.578.02-13.557z" class="cls-10" data-name="Path 349" transform="translate(58.253 -112.944)"/>
                <path id="Path_350" d="M164.01 140.06l-.04 13.537-43.14 25.1.02-13.557z" class="cls-11" data-name="Path 350" transform="translate(63.177 -97.716)"/>
                <path id="Path_351" d="M147.244 167.868l-.02 13.557-53.034-30.618.02-13.5z" class="cls-12" data-name="Path 351" transform="translate(36.783 -100.441)"/>
                <path id="Path_352" d="M56.114 163.55v13.537l-14.254 8.262.04-13.5z" class="cls-9" data-name="Path 352" transform="translate(-15.064 -74.443)"/>
                <path id="Path_353" d="M102.034 194.188l-.06 13.517-52.954-30.618V163.55z" class="cls-10" data-name="Path 353" transform="translate(-7.97 -74.443)"/>
                <path id="Path_354" d="M109.108 194.188l-14.234 8.222-52.994-30.558 14.214-8.3z" class="cls-13" data-name="Path 354" transform="translate(-15.044 -74.443)"/>
                <path id="Path_355" d="M94.894 198.278l-.04 13.557-52.994-30.618.04-13.5z" class="cls-12" data-name="Path 355" transform="translate(-15.064 -70.312)"/>
                <path id="Path_356" d="M82.754 178.94l-.06 13.517-14.214 8.262.04-13.557z" class="cls-11" data-name="Path 356" transform="translate(11.31 -59.195)"/>
                <path id="Path_357" d="M223.831 143.68v13.577L73.09 244.851v-13.557z" class="cls-9" data-name="Path 357" transform="translate(15.877 -94.13)"/>
                <path id="Path_358" d="M348.365 258.926l-.04 13.537L148.81 157.257V143.68z" class="cls-10" data-name="Path 358" transform="translate(90.899 -94.13)"/>
                <path id="Path_359" fill="#303637" d="M272.665 302.876l-.06 13.557L73.09 201.247V187.69z" data-name="Path 359" transform="translate(15.877 -50.526)"/>
                <path id="Path_360" fill="#454e4f" d="M324.091 201.57l-.04 13.537-150.741 87.574.06-13.557z" data-name="Path 360" transform="translate(115.172 -36.774)"/>
                <path id="Path_361" d="M423.386 258.926L272.665 346.48 73.09 231.294l150.741-87.614z" class="cls-13" data-name="Path 361" transform="translate(15.877 -94.13)"/>
                <path id="Path_362" fill="#ededed" d="M235.032 178.37L524.151 345.3 349.959 446.606 60.7 279.68zm114.21 252.35l150.721-87.594L300.409 227.94l-150.742 87.594zM244.727 245.8l43.14-25.084-53.034-30.6-43.14 25.124zm-104.2 60.539l14.214-8.222L101.75 267.5l-14.234 8.282 53.014 30.558z" data-name="Path 362" transform="translate(-60.7 -178.37)"/>
                <path id="Path_363" d="M190.394 155.288l-43.16 25.084L94.2 149.814l43.14-25.123z" class="cls-13" data-name="Path 363" transform="translate(36.793 -112.944)"/>
                <path id="Path_364" d="M347.991 202.64l-.04 13.537L173.62 317.468l.06-13.517z" class="cls-13" data-name="Path 364" transform="translate(115.48 -35.714)"/>
                <path id="Path_365" d="M317.559 336.616l-.06 13.517L28.4 183.207V169.67z" class="cls-13" data-name="Path 365" transform="translate(-28.4 -68.38)"/>
            </g>
            <path id="Path_366" fill="#8fc7db" d="M190.575 248.055c-31.852 18.415-32.031 48.3-.358 66.711s83.234 18.395 115.126 0 32.051-48.276.358-66.671-83.234-18.375-115.126-.04z" data-name="Path 366" transform="translate(100.712 113.52)"/>
            <path id="Path_367" d="M174.143 176.07s-6.988 9.078-7.6 11.467-3.464 12.482 1.553 19.31c2.707 3.683 4.181-1.513 4.858-8.262.319-3.066-.139-5.4 3.862-8.7a34.562 34.562 0 0 0 7.346-9.715c1.249-2.507-10.019-4.1-10.019-4.1z" class="cls-18" data-name="Path 367" transform="translate(99.326 55.826)"/>
            <path id="Path_368" d="M182.486 179.4c-1.234 2.508-4.758 6.868-5.3 10.571-.657 4.459-5.475 4.24-5.793 7.306-.538 5.256-1.672 9.615-3.325 9.516.7-3.982-3.982-6.948.975-16.165a65.535 65.535 0 0 1 11.128-13.239c1.997.937 2.793 1.016 2.315 2.011z" class="cls-18" data-name="Path 368" transform="translate(100.877 57.134)"/>
            <path id="Path_369" d="M177.616 177.36s-1.394 12.821-2.369 16.663-3.265 6.072-3.723 5.236 1.792-12.323-2.389-11.945c-2.19.119 7.865-8.162 8.481-9.954z" class="cls-18" data-name="Path 369" transform="translate(102.941 57.104)"/>
            <path id="Path_370" fill="#0261d1" d="M208.075 125.3s-12.9-2.847-17.917 22.774-4.917 35.595-8.58 44.414-13.378 37.344-13.378 37.344 8.162.3 11.347 6.39c0 0 20.664-35.356 24.666-50.864s17.34-53.158 3.862-60.058z" data-name="Path 370" transform="translate(102.323 5.428)"/>
            <path id="Path_371" d="M181.518 191.844c3.663-8.819 3.544-18.773 8.58-44.414 2.747-13.935 7.8-19.45 11.945-21.58 12.243 7.963-.717 44.414-4.619 59.723-2.986 11.606-14.911 35.376-20.784 46.684a14.712 14.712 0 0 0-8.421-2.986s9.636-28.628 13.299-37.427z" class="cls-20" data-name="Path 371" transform="translate(102.343 6.07)"/>
            <path id="Path_372" d="M226.864 245.039s3.4 7.963 0 9.954-3.882 4.32-9.357 3.982-4.678 1.354-6.57 3.4-21.241 10.511-24.885 6.39 6.609-8.919 10.233-11.308 12.323-11.945 12.562-14.692 18.017 2.274 18.017 2.274z" class="cls-21" data-name="Path 372" transform="translate(119.248 121.095)"/>
            <path id="Path_373" d="M226.86 253.2c-3.424 1.991-3.882 4.32-9.357 3.982s-4.678 1.354-6.57 3.4-21.242 10.511-24.885 6.39a3.066 3.066 0 0 1 .3-4.34c1.354.259 3.225.6 5.674 1.015 5.714 1 13.059-5.574 15.926-7.963s6.41-1.493 11.308-2.289 4.22-8.3 4.22-8.3l3.623-1.254c.636 1.612 2.647 7.604-.239 9.359z" class="cls-22" data-name="Path 373" transform="translate(119.253 122.971)"/>
            <path id="Path_374" d="M234.288 256.52s1.433 9.436-2.19 14.533-11.586 13.935-15.03 13.557-3.982-1.991-3.982-1.991a34.261 34.261 0 0 1 1.075-15.309 48.159 48.159 0 0 0 2.707-10.81z" class="cls-21" data-name="Path 374" transform="translate(146.384 135.514)"/>
            <path id="Path_375" d="M229.2 271.043c-3.185 4.5-9.735 11.945-13.6 13.318 5.1-6.589-2.568-5.216 3.205-8.341 7.963-4.3 2.847-7.963 6.39-8.9s.936-9.735.936-9.735l1.991-.876h3.344s1.354 9.437-2.266 14.534z" class="cls-22" data-name="Path 375" transform="translate(149.285 135.524)"/>
            <path id="Path_376" d="M213.436 186.306s-16.285-1.752-21.719-13.816a396.162 396.162 0 0 0 1.812 57.454c3.285 30.837 5.972 85.066 5.972 85.066s10.531 9.954 21.4 0c0 0 3.066-35.834 0-55.742 0 0 1.991-34.759-1.354-52.118s-6.111-20.844-6.111-20.844z" class="cls-23" data-name="Path 376" transform="translate(125.291 52.279)"/>
            <path id="Path_377" fill="#1e2656" d="M199.635 317.01s-2.747-54.229-5.972-85.066a489 489 0 0 1-2.17-61.475c3.982 8.839 14.154 16.165 19.111 17.32-.4 11.765-1.513 46.465-1.334 57.991.179 10.989 2.329 56.438 3.245 75.53a17.2 17.2 0 0 1-12.88-4.3z" data-name="Path 377" transform="translate(125.216 50.278)"/>
            <path id="Path_378" d="M243.982 178.5s1.573 18.056 1.991 46.066 2.389 38.6 3.066 42.881 3.066 51.2 1.692 64.9c0 0-8.839 13.677-22.794 0 0 0-2.349-48.077-4.738-59.026s-15.707-64.1-21.082-83.194c-2.389-8.421-2.946-11.626-2.946-11.626s23.391 16.921 44.811-.001z" class="cls-23" data-name="Path 378" transform="translate(133.007 58.234)"/>
            <path id="Path_379" d="M230.393 333.981s-2.349-48.077-4.738-59.026-15.707-64.1-21.082-83.194a44.912 44.912 0 0 0-7.963-14.911s15.428 10.81 28.767 10.79c.577 4.1 6.231 43.359 7.565 60.519s12.96 76.884 9.814 91.894c-3.344.1-7.545-1.373-12.363-6.072z" class="cls-23" data-name="Path 379" transform="translate(130.471 56.599)"/>
            <path id="Path_380" fill="#0459bc" d="M222.863 124.257s26.517 8.958 27.393 10.77 7.963 5.435 1.991 28.448c0 0-8.779 25.342.8 47.978a153.293 153.293 0 0 0 9.795 19.768s-8.56 17.917-41.01 11.049c-6.53-1.374-18.215-8.321-22.356-14.672a162.545 162.545 0 0 0-7.366-43.478c-7.306-22.954-13.935-53.134-1.214-59.166-.005 0 2.804-4.579 31.967-.697z" data-name="Path 380" transform="translate(117.695 2.944)"/>
            <path id="Path_381" d="M210.06 113.45s-2.946 13.557 5.534 18.673c4.7 2.827 1.055 15.369-11.945 19.51 0 0-6.211.8-6.41-1.473-.518-5.156-3.384-7.067-6.789-9.854s19.61-26.856 19.61-26.856z" class="cls-18" data-name="Path 381" transform="translate(124.028 -6.216)"/>
            <path id="Path_382" d="M210.182 131.5a3.464 3.464 0 0 1 1.314 1.413c-6.629-3.006-15.926.159-15.926.159l6.868-17.917c.378-.418.7-.776 1-1.075l.816 1.035c-.363 4.061-.402 12.562 5.928 16.385z" class="cls-18" data-name="Path 382" transform="translate(129.44 -5.592)"/>
            <g id="head" transform="translate(279.326 72.556)">
                <path id="Path_142" d="M180.363 107c-.378 0-13.139 3.982-4.937 16.922s16.961 9.954 16.961 9.954l-2.807-24.885z" class="cls-26" data-name="Path 142" transform="translate(-172.563 -85.162)"/>
                <path id="Path_143" d="M205.306 118.9c.279 0 3.3 11.367 7.027 16.683 0 0-16.444 8.978-16.026 8.64s-4.818-12.8-4.818-12.8 7.924-13.417 13.817-12.523z" class="cls-18" data-name="Path 143" transform="translate(-153.928 -73.413)"/>
                <path id="Path_144" d="M205.306 118.9a18.822 18.822 0 0 1 .9 2.508 31.593 31.593 0 0 1-11.347 18.335c-1.413-3.663-3.364-8.321-3.364-8.321s7.918-13.416 13.811-12.522z" class="cls-18" data-name="Path 144" transform="translate(-153.928 -73.413)"/>
                <path id="Path_145" d="M180.629 130.506S197.371 154 204.4 149.916c10.412-5.972 14.493-16.762 14.174-22.078 0 0-7.445-29.742-29.643-18.693-17.221 8.6-8.302 21.361-8.302 21.361z" class="cls-18" data-name="Path 145" transform="translate(-166.976 -85.475)"/>
                <path id="Path_146" d="M185.578 127.324s7.963 3.982 15.349 1.354c0 0 .717-1.692-2.469-3.066 0 0 5.972 2.19 9.954.816 0 0 7.386 14.951 10.73 12.721s-.139-7.744-.139-7.744 6.092 7.664 4.579 11.785a8.3 8.3 0 0 0 6.888-8.739 33.843 33.843 0 0 0-13.935-28.488s7.167-8.222-5.355-1.991c0 0-.876-6.629-4.658-7.824s.2 7.047.2 7.047-41.946.139-23.889 10.73c0 0-17.021 2.847-7.107 6.37z" class="cls-26" data-name="Path 146" transform="translate(-172.622 -96.031)"/>
                <path id="Path_147" d="M195.44 117.813s0-7.963 4.7-7.346 8.321 10.491-.259 15.03z" class="cls-18" data-name="Path 147" transform="translate(-150.014 -81.761)"/>
            </g>
            <path id="Path_383" d="M227.7 131.516c.916 1.792 7.963 5.435 1.991 28.448 0 0-8.779 25.342.8 47.978a153.3 153.3 0 0 0 9.795 19.768s-4.286 8.819-18.12 11.69c-7.824-19.529-11.686-56.2-15.19-81.3-2.25-16.165 3.6-26.218 8.9-31.852 5.951 2.222 11.545 4.452 11.824 5.268z" class="cls-20" data-name="Path 383" transform="translate(140.251 6.456)"/>
            <path id="Path_384" d="M209.1 135.542c.9-7.047 10.272-15.249 18.514-1.334s23.611 58.091 17.917 64.5c-2.21 2.508-6.151 5.554-9.834 3.086-5.733-3.842-11.447-15.707-13.677-22.456-3.648-11.028-13.781-37.206-12.92-43.796z" class="cls-20" data-name="Path 384" transform="translate(142.79 6.849)"/>
            <path id="Path_385" d="M106.09 208.454l52.775-37.924-11.527 6.749z" class="cls-27" data-name="Path 385" transform="translate(105.088 168.947)"/>
            <path id="Path_386" fill="#ffd215" d="M106.09 217.658l41.249-31.175-26.6-25.243z" data-name="Path 386" transform="translate(105.088 159.743)"/>
            <path id="Path_387" fill="#eac011" d="M254.637 85.158L126.81 268.628l11.527-6.749L266.025 78.33z" data-name="Path 387" transform="translate(125.617 77.598)"/>
            <path id="Path_388" d="M245.017 77.17L117.21 260.58l19.111 9.2L264.149 86.308z" class="cls-27" data-name="Path 388" transform="translate(116.106 76.449)"/>
            <path id="Path_389" fill="#e0b810" d="M241.138 69.04L113.45 252.589l7.485 16.046 127.808-183.41z" data-name="Path 389" transform="translate(112.38 68.394)"/>
            <path id="Path_390" fill="#ddb510" d="M185.195 88.623l19.131 9.138 11.387-6.828-7.6-16.066L189 65.61l-11.41 6.828z" data-name="Path 390" transform="translate(175.928 64.996)"/>
            <path id="Path_391" fill="#685507" d="M187 80.3l8.4 4.041 5-2.926-3.424-7.147-8.341-4.121-5 3.006z" data-name="Path 391" transform="translate(181.922 69.494)"/>
            <path id="Path_392" fill="#f7ca11" d="M106.09 217.658l22.137-40.373-7.485-16.046z" data-name="Path 392" transform="translate(105.088 159.743)"/>
            <path id="Path_393" fill="#5a5c5d" d="M110.709 187.025l-4.619 8.2 2.966-11.347z" data-name="Path 393" transform="translate(105.088 182.174)"/>
            <path id="Path_394" fill="#6d6f70" d="M110.709 185.46l4.041 2.11-8.66 6.092z" data-name="Path 394" transform="translate(105.088 183.739)"/>
            <path id="Path_395" d="M213.274 168.482s-9.795 1.095-11.845-.358-4.718.956-2.11 2.449a14.633 14.633 0 0 0 5.972 1.553s-10.87 3.7-12.741.737 1.254 8.919 6.828 9.755 11.507 2.767 20.167-8.481a9.814 9.814 0 0 0-6.271-5.654z" class="cls-18" data-name="Path 395" transform="translate(125.91 47.508)"/>
            <path id="Path_396" d="M253.252 167.929s-14.314 19.171-47.659 22.954a11.586 11.586 0 0 0-3.7-10.133s54.743-46.485 51.359-12.821z" class="cls-20" data-name="Path 396" transform="translate(135.702 35.639)"/>
            <g id="Group_15" data-name="Group 15" opacity="0.3" transform="translate(280.693 351.489)">
                <path id="Path_397" fill="#fff" d="M282.186 245.811c25.163 13.059 25.064 33.982.259 46.9s-65.058 13.059-90.242 0-25.1-33.982-.3-46.9 65.297-12.86 90.283 0z" data-name="Path 397" opacity="0.6" transform="translate(-173.309 -236.144)"/>
            </g>
        </g>
    </g>
</svg>
