<svg xmlns="http://www.w3.org/2000/svg" id="Calque_2" width="594.874" height="328.628" viewBox="0 0 594.874 328.628">
    <defs>
        <style>
            .cls-1{fill:#e0e0e0}.cls-4{fill:#263238}.cls-5{fill:#455a64}.cls-7{fill:#fafafa}.cls-9{fill:#1bc5bd}.cls-10{fill:#eea78e}.cls-11{fill:#38324c}.cls-12{fill:#0067e0}.cls-13{opacity:.2}
        </style>
    </defs>
    <g id="Calque_1">
        <g id="freepik--background-complete--inject-18" transform="translate(48.257)">
            <circle id="Ellipse_6" cx="10.792" cy="10.792" r="10.792" class="cls-1" transform="rotate(-33.86 395.476 -676.113)"/>
            <circle id="Ellipse_7" cx="11.494" cy="11.494" r="11.494" class="cls-1" transform="translate(415.219 97.128)"/>
            <circle id="Ellipse_8" cx="12.196" cy="12.196" r="12.196" class="cls-1" transform="translate(389.897 76.088)"/>
            <circle id="Ellipse_9" cx="12.74" cy="12.74" r="12.74" class="cls-1" transform="translate(384.352 44.291)"/>
            <circle id="Ellipse_10" cx="13.17" cy="13.17" r="13.17" class="cls-1" transform="translate(399.531 16.495)"/>
            <circle id="Ellipse_11" cx="14.354" cy="14.354" r="14.354" class="cls-1" transform="translate(428.327 4.492)"/>
            <circle id="Ellipse_12" cx="10.423" cy="10.423" r="10.423" class="cls-1" transform="translate(472.091 77.588)"/>
            <circle id="Ellipse_13" cx="9.669" cy="9.669" r="9.669" class="cls-1" transform="translate(478.452 47.011)"/>
            <circle id="Ellipse_14" cx="8.835" cy="8.835" r="8.835" class="cls-1" transform="translate(463.203 20.47)"/>
            <path id="Path_450" fill="none" d="M171.01 6.5a27.761 27.761 0 0 1 7.072 1.86l5.194-4.387 8.923 6.791-2.807 6.136a27.392 27.392 0 0 1 3.676 6.317l6.756.6 1.5 11.108-6.343 2.375a27.007 27.007 0 0 1-1.869 7.019l4.387 5.194-6.782 8.923-6.142-2.808a27.391 27.391 0 0 1-6.317 3.676l-.6 6.756-11.117 1.518-2.369-6.352a27.068 27.068 0 0 1-7.072-1.869l-5.194 4.387-8.923-6.791 2.816-6.142a27.429 27.429 0 0 1-3.685-6.317l-6.747-.6-1.567-11.056 6.317-2.378a27.392 27.392 0 0 1 1.869-7.019l-4.387-5.2 6.791-8.923 6.142 2.816a27.936 27.936 0 0 1 6.317-3.685l.6-6.747L168.554.19l2.369 6.352zm-4.571 15.46a12.029 12.029 0 1 0 13.538 10.266 12.029 12.029 0 0 0-13.538-10.268z" transform="translate(-64.661 -.023)"/>
            <path id="Path_451" d="M169.5 24.97a8.976 8.976 0 0 1 2.983-.158 12.134 12.134 0 0 1 10.318 8.2 12.336 12.336 0 1 1-24.001 3.25 12.187 12.187 0 0 1 1.623-5.422 11.994 11.994 0 0 1 6.142-5.264 9.169 9.169 0 0 1 2.9-.641c0 .088-1.053.167-2.808.877a12.038 12.038 0 0 0-5.817 5.264 11.775 11.775 0 0 0-.114 11.2 10.941 10.941 0 0 0 1.983 2.711 10.749 10.749 0 0 0 2.843 2.1 11.716 11.716 0 0 0 13.9-18.548 11.906 11.906 0 0 0-7.019-3.51 25.134 25.134 0 0 0-2.933-.059z" class="cls-1" transform="translate(-67.724 -3.035)"/>
            <path id="Path_452" d="M170.97 6.475s-.061-.123-.167-.395l-.474-1.18c-.421-1.1-1.035-2.685-1.834-4.729l.123.07-11.107 1.566.149-.158c-.167 2.044-.36 4.317-.562 6.747v.124l-.114.053a27.146 27.146 0 0 0-6.256 3.711l-.105.088-.132-.061-6.141-2.791.3-.079-6.765 8.9V18l4.387 5.185.114.132-.07.158a27.331 27.331 0 0 0-1.836 7.025v.211l-.175.061-6.37 2.351.2-.325c.474 3.51.991 7.256 1.518 11.108l-.29-.272 6.747.588h.2l.079.184a27.2 27.2 0 0 0 3.641 6.229l.123.158-.088.184c-.877 1.939-1.834 4.045-2.808 6.142l-.1-.412 8.923 6.791h-.43l5.194-4.387.158-.132.193.079a27.48 27.48 0 0 0 6.975 1.843c.123.1-.281-.219.281.228v.105l.079.193.149.4.3.8.588 1.588c.4 1.062.79 2.115 1.184 3.167l-.368-.219 11.117-1.509-.3.307c.2-2.272.395-4.519.6-6.747v-.2l.193-.079a27.4 27.4 0 0 0 6.265-3.659l.158-.123.184.079 6.142 2.816-.395.105 6.8-8.923v.4c-1.474-1.755-2.931-3.51-4.387-5.2l-.123-.149.079-.167a27.718 27.718 0 0 0 1.851-7.019v-.175l.167-.061 6.352-2.36-.184.307c-.526-3.913-1.018-7.607-1.483-11.117l.237.228-6.747-.614h-.149l-.061-.132a27.2 27.2 0 0 0-3.51-6.142l-.079-.114.053-.123c1.027-2.237 1.957-4.247 2.834-6.142l.061.246-8.879-6.782h.193l-5.264 4.317H178a29.244 29.244 0 0 0-5.267-1.631l-1.333-.246-.447-.088h.456a8.95 8.95 0 0 1 1.351.2 26.058 26.058 0 0 1 5.264 1.534h-.114l5.168-4.387.088-.079.105.07 8.949 6.756.132.1-.07.149c-.877 1.913-1.755 3.931-2.79 6.142v-.237a27.876 27.876 0 0 1 3.729 6.361l-.2-.149 6.747.579h.211v.184c.483 3.51.983 7.195 1.527 11.108v.3l-.211.079-6.344 2.378.193-.237a28.006 28.006 0 0 1-1.878 7.151l-.053-.316 4.387 5.185.167.193-.158.2-6.782 8.932-.158.211-.237-.114-6.142-2.8h.342a28.076 28.076 0 0 1-6.4 3.7l.211-.281c-.193 2.229-.395 4.475-.588 6.747v.275h-.272l-11.108 1.518h-.272l-.1-.263-1.178-3.155-.6-1.6-.3-.8-.149-.395-.079-.2v-.149c.562.447.158.123.281.219a28.024 28.024 0 0 1-7.151-1.913l.36-.053L152.088 64l-.211.175-.211-.167-8.958-6.738-.219-.158.114-.246 2.816-6.142v.342a27.752 27.752 0 0 1-3.72-6.4l.272.2-6.747-.6h-.254v-.254c-.526-3.861-1.027-7.625-1.5-11.117v-.246l.228-.079 6.344-2.369-.184.246a27.533 27.533 0 0 1 1.974-7.142v.29l-4.387-5.264-.14-.167.132-.167q3.51-4.677 6.782-8.906l.114-.158.184.079 6.142 2.825h-.237a27.541 27.541 0 0 1 6.378-3.686l-.123.167c.219-2.43.43-4.7.623-6.747v-.132h.14L168.557 0h.088v.079l1.7 4.729c.184.518.325.877.43 1.228a2.77 2.77 0 0 1 .193.439z" class="cls-1" transform="translate(-64.621)"/>
            <path id="Path_453" fill="#e0e0e0" fill-rule="evenodd" d="M107.644 79.958a39.08 39.08 0 0 1 9.994 2.632l7.344-6.142 12.642 9.652-3.975 8.713a39.254 39.254 0 0 1 5.212 8.932l9.537.877 2.132 15.7-8.976 3.325a38.282 38.282 0 0 1-2.632 9.994l6.142 7.344-9.6 12.617-8.721-3.975a39.07 39.07 0 0 1-8.932 5.212l-.877 9.537-15.713 2.124-3.352-8.976a39.079 39.079 0 0 1-9.994-2.632l-7.344 6.142-12.617-9.572 3.975-8.721a38.719 38.719 0 0 1-5.2-8.932l-9.546-.877L55 117.221l8.976-3.352a38.72 38.72 0 0 1 2.632-9.994l-6.142-7.344 9.607-12.617 8.721 3.975a39.229 39.229 0 0 1 8.932-5.2l.877-9.546L104.318 71zm-6.449 21.812a17.013 17.013 0 1 0 19.136 14.582 17.013 17.013 0 0 0-19.11-14.547z" transform="translate(-55 -8.705)"/>
        </g>
        <g id="freepik--Floor--inject-18" transform="translate(0 328.146)">
            <path id="Path_454" d="M594.874 374.184c0 .132-133.18.228-297.437.228S0 374.281 0 374.184 133.154 374 297.437 374s297.437 0 297.437.184z" class="cls-4" transform="translate(0 -374)"/>
        </g>
        <g id="freepik--Device--inject-18" transform="translate(102.015 68.814)">
            <rect id="Rectangle_47" width="383.694" height="253.734" class="cls-5" rx="14.57" transform="translate(14.995)"/>
            <path id="Path_455" d="M116.27 348.94h415.7v6.589a15.618 15.618 0 0 1-15.618 15.618H131.888a15.618 15.618 0 0 1-15.618-15.618z" class="cls-5" transform="translate(-116.27 -111.596)"/>
            <path id="Rectangle_48" d="M0 0H362.022V214.277H0z" class="cls-4" transform="translate(25.295 10.081)"/>
            <path id="Path_456" d="M308.91 346.23l5.159 8.2h72.587l4.791-8.2z" class="cls-4" transform="translate(-139.889 -111.263)"/>
            <rect id="Rectangle_49" width="347.852" height="206.337" fill="#ebebeb" rx="3.27" transform="translate(32.753 17.337)"/>
            <path id="Path_457" d="M501.032 306.98H153.18l.369-191.22h347.483z" class="cls-7" transform="translate(-120.795 -83.007)"/>
            <path id="Path_458" d="M185.333 106.881a2.781 2.781 0 1 1-2.781-2.781 2.764 2.764 0 0 1 2.773 2.773z" class="cls-4" transform="translate(-124.055 -81.577)"/>
            <path id="Path_459" d="M166.143 106.881a2.781 2.781 0 1 1-2.781-2.781 2.764 2.764 0 0 1 2.773 2.773z" class="cls-4" transform="translate(-121.703 -81.577)"/>
            <path id="Path_460" d="M175.363 106.881a2.781 2.781 0 1 1-2.755-2.781 2.781 2.781 0 0 1 2.755 2.781z" class="cls-4" transform="translate(-122.833 -81.577)"/>
        </g>
        <g id="freepik--Character--inject-18" transform="translate(1.272 164.23)">
            <path id="Path_461" fill="#b78876" d="M270.04 371.738l32.955-.351-2.606-11.792-29.454-2.185z" transform="translate(-34.38 -208.05)"/>
            <path id="Path_462" d="M288.934 355.006l15.267 1s6.142-15.179 8.985-15.267l-.877 29.665-23.848-.588z" class="cls-9" transform="translate(-36.639 -206.006)"/>
            <path id="Path_463" d="M304.617 368.321a1.211 1.211 0 0 0 1.36.877 1.158 1.158 0 0 0 .877-1.334 1.272 1.272 0 0 0-1.439-.877 1.2 1.2 0 0 0-.763 1.492" class="cls-1" transform="translate(-38.618 -209.222)"/>
            <path id="Path_464" d="M315.294 370.362l-2.4-.149 1.755-28.392s.614-1.3 1.544-1.123z" class="cls-1" transform="translate(-39.634 -205.999)"/>
            <path id="Path_465" d="M306.219 357.55c.149 0 .193.728.632 1.456s1.044 1.123.983 1.255-.877-.105-1.413-.991-.333-1.755-.202-1.72z" class="cls-4" transform="translate(-38.798 -208.067)"/>
            <path id="Path_466" d="M307.8 354c.14 0 .369.605.965 1.114s1.246.676 1.237.816-.834.219-1.562-.43-.77-1.5-.64-1.5z" class="cls-4" transform="translate(-39.003 -207.632)"/>
            <path id="Path_467" d="M311.775 351.979c0 .14-.7.316-1.492-.079s-1.07-1.079-.948-1.141.526.377 1.176.693 1.256.395 1.264.527z" class="cls-4" transform="translate(-39.195 -207.234)"/>
            <path id="Path_468" d="M302.171 357.729c.123.061-.1.719-.061 1.535s.272 1.474.14 1.544-.623-.562-.641-1.527.448-1.631.562-1.552z" class="cls-4" transform="translate(-38.251 -208.088)"/>
            <path id="Path_469" d="M298.381 357.56a2.834 2.834 0 0 1-.053 1.483 6.4 6.4 0 0 1-.518 1.544c-.149.3-.307.6-.483.877a1.879 1.879 0 0 1-.36.43.623.623 0 0 1-.772.044.79.79 0 0 1-.316-.641 1.973 1.973 0 0 1 .1-.553 5.347 5.347 0 0 1 .342-.877 4.975 4.975 0 0 1 .939-1.351c.658-.667 1.211-.877 1.237-.833s-.421.386-.965 1.07a6.037 6.037 0 0 0-.79 1.307 5.144 5.144 0 0 0-.29.877c-.088.316-.1.579 0 .667s.079 0 .167 0a1.905 1.905 0 0 0 .272-.325 8.577 8.577 0 0 0 .465-.772 8.4 8.4 0 0 0 .6-1.421 10.394 10.394 0 0 1 .43-1.527z" class="cls-4" transform="translate(-37.548 -208.068)"/>
            <path id="Path_470" d="M298.349 357.494a2.334 2.334 0 0 1-1.448.351 4.782 4.782 0 0 1-1.614-.255 4.665 4.665 0 0 1-.877-.4 1.211 1.211 0 0 1-.719-.965.72.72 0 0 1 .43-.614 1.956 1.956 0 0 1 .553-.132 3.378 3.378 0 0 1 2.518.711 2.352 2.352 0 0 1 .877 1.22 4.29 4.29 0 0 0-1.062-.93 3.457 3.457 0 0 0-1.386-.518 2.94 2.94 0 0 0-.877 0c-.325 0-.579.14-.553.263a1.079 1.079 0 0 0 .474.535 4.466 4.466 0 0 0 .8.386 5.264 5.264 0 0 0 1.474.333c.813.077 1.361-.064 1.41.015z" class="cls-4" transform="translate(-37.28 -207.81)"/>
            <path id="Path_471" d="M32.22 363.21l-2.52 9.651-28.25-.254s3.869-2.922 18.057-2.711l1.378-6.686z" class="cls-10" transform="translate(-1.45 -208.761)"/>
            <path id="Path_142" d="M95.663 195.326c.281-.088 10.116-2.387 9.651 9.2s-7.37 12.959-7.37 12.959L90.39 200.2z" class="cls-11" transform="translate(-12.354 -188.148)"/>
            <path id="Path_143" d="M74.139 231.791c-.175.132 2.343 8.686 1.9 13.573 0 0 15.574-.342 15.135-.4s-1.878-10.213-1.878-10.213-11.296-5.785-15.157-2.96z" class="cls-10" transform="translate(-10.361 -192.553)"/>
            <path id="Path_144" d="M74.14 231.791a13.823 13.823 0 0 0 .36 1.983c2.509 2.632 7.537 6.949 14.381 7.695-.465-2.931-.956-6.721-.956-6.721s-10.275-5.782-13.785-2.957z" class="cls-10" transform="translate(-10.362 -192.553)"/>
            <path id="Path_145" d="M98.339 213.728s-2.062 21.716-8.212 21.716c-9.107 0-15.846-5.484-17.644-9.09 0 0-6.4-22.286 12.284-23.47 14.607-.914 13.572 10.844 13.572 10.844z" class="cls-10" transform="translate(-10.029 -189.098)"/>
            <path id="Path_146" d="M92.3 202.552s-3.729 5.694-9.537 6.7c0 0-1.1-.877.465-2.939 0 0-3.036 3.668-6.247 4.326 0 0 .825 12.591-2.2 12.406s-2.852-5.133-2.852-5.133-1.07 7.326 1.474 9.458c0 0-4.694 2.018-7.818-3.124s-5.984-13.161-1.755-23.891c0 0-7.818-2.632 2.764-3.308 0 0-1.939-4.694.088-6.9s2.527 4.685 2.527 4.685 27.524-15.793 19.715-2.027c0 0 12.222-4.589 7.081 1.474z" class="cls-11" transform="translate(-8.757 -187.179)"/>
            <path id="Path_147" d="M73.5 221.78s-3.036-5.264-5.87-3.027-1.465 10.02 5.87 9.739z" class="cls-10" transform="translate(-9.396 -190.982)"/>
            <path id="Path_472" d="M110.846 256.3l21.619 20.233 34.218-23.356 10.687 12.284-32.87 26.324a19.189 19.189 0 0 1-11.924 4.843 19.136 19.136 0 0 1-15.688-7.063l-11.582-9.774z" class="cls-12" transform="translate(-14.184 -195.271)"/>
            <path id="Path_473" d="M80.184 246.83l20.084 8.695-.667 5.563 9.344 37.061 10.16 7.414-8.414 12.363a23.119 23.119 0 0 1-7.256 6.817L83.4 336.658a7.9 7.9 0 0 1-9.923-4.211l-17.711-40.194-17.8 55.215a7.7 7.7 0 0 1-8.432 5.264l-7.019-1.027a4.071 4.071 0 0 1-3.439-4.633 3.411 3.411 0 0 1 .079-.412l19.908-77.4a37.421 37.421 0 0 1 5.054-11.3 24.014 24.014 0 0 1 19.353-10.639z" class="cls-12" transform="translate(-3.605 -194.492)"/>
            <path id="Path_474" d="M93.671 246.727l-.746-4.027-21.285-1.43v5.352c.149 1.527 2.632 1.07 4.949 2.027l10.423 2.079c2.544.202 7.967-.737 6.659-4.001z" class="cls-12" transform="translate(-10.056 -193.811)"/>
            <path id="Path_475" d="M120.415 300.317a10.248 10.248 0 0 1-.553-1.413c-.325-.877-.772-2.246-1.307-3.913-1.062-3.317-2.43-7.9-3.746-13.073s-2.351-9.862-3.018-13.275c-.333-1.711-.579-3.1-.737-4.062a8.562 8.562 0 0 1-.193-1.5 10.526 10.526 0 0 1 .369 1.465c.228 1.026.526 2.386.877 4.027.746 3.4 1.825 8.09 3.141 13.231s2.632 9.757 3.624 13.1c.474 1.614.877 2.939 1.167 3.948a10.528 10.528 0 0 1 .376 1.465z" class="cls-4" transform="translate(-14.864 -196.485)"/>
            <path id="Path_476" d="M67.324 277.73a17.76 17.76 0 0 1-.877 2.764c-.632 1.807-1.421 4.08-2.3 6.58s-1.667 4.773-2.3 6.58a21.407 21.407 0 0 1-1.009 2.737 15.468 15.468 0 0 1 .7-2.808c.509-1.755 1.272-4.062 2.176-6.633s1.755-4.878 2.422-6.545a17.442 17.442 0 0 1 1.184-2.676z" class="cls-4" transform="translate(-8.731 -198.281)"/>
            <g id="Group_80" class="cls-13" transform="translate(52.091 82.391)">
                <path id="Path_477" d="M60.82 296.54q2.571 5.817 5.115 11.634a5.879 5.879 0 0 0 1.027 1.755 2.027 2.027 0 0 0 1.851.684c1.263-.289 1.579-1.913 1.623-3.2.3-8.484 0-17.171-2.957-25.137-.211-.579-.605-1.263-1.22-1.184s-.807.7-.956 1.228l-4.159 14.916" transform="translate(-60.82 -281.083)"/>
            </g>
            <g id="Group_81" class="cls-13" transform="translate(98.461 79.379)">
                <path id="Path_478" d="M122.532 296.918a2.2 2.2 0 0 0 1.044-2.018 6.142 6.142 0 0 0-.632-2.29 58.83 58.83 0 0 0-9.274-14.96l4.2 14.916z" transform="translate(-113.67 -277.65)"/>
            </g>
            <g id="Group_82" opacity="0.3" transform="translate(62.251 53.276)">
                <path id="Path_479" d="M72.4 247.9a35.2 35.2 0 0 0 11.538 6.08 11.818 11.818 0 0 0 5.545.632 5.177 5.177 0 0 0 4.159-3.36c.132-.447.114-1.044-.307-1.237s-.877.193-1.307.491c-1.255.939-4.992 1.167-6.554.983-5.115-.6-8.441-1.843-13.073-3.571" transform="translate(-72.4 -247.9)"/>
            </g>
            <path id="Path_480" d="M107.282 288.48a2.158 2.158 0 0 1 .14.421c.079.29.211.7.316 1.255a26.005 26.005 0 0 1 .588 4.729 28.875 28.875 0 0 1-14.512 26.322 26.888 26.888 0 0 1-4.317 2.027c-.518.2-.948.307-1.228.4a1.509 1.509 0 0 1-.439.1 15.876 15.876 0 0 1 1.606-.667 31.588 31.588 0 0 0 4.212-2.132 29.972 29.972 0 0 0 13.916-30.709 16.814 16.814 0 0 1-.281-1.746z" class="cls-4" transform="translate(-12.041 -199.599)"/>
            <g id="Group_83" class="cls-13" transform="translate(81.339 94.646)">
                <path id="Path_481" d="M108.777 295.05a12.643 12.643 0 0 1-4.457 10.05c-1.886 1.571-4.212 2.562-6.142 4.15a12.284 12.284 0 0 0-3.729 5.519c-.36 1.114-.518 2.474.29 3.317s2.483.719 3.694.2c3.957-1.676 6.773-5.387 8.291-9.406s1.886-8.379 2.15-12.67" transform="translate(-94.155 -295.05)"/>
            </g>
            <path id="Path_482" d="M135.981 289.851a14.152 14.152 0 0 1 .123-10.731 39.4 39.4 0 0 0-.658 5.361 39.337 39.337 0 0 0 .535 5.37z" class="cls-4" transform="translate(-17.822 -198.451)"/>
            <path id="Path_483" d="M138.787 288.766a10.388 10.388 0 0 1-2.158-4.685 10.239 10.239 0 0 1-.07-5.15 32.572 32.572 0 0 0 .518 5.054 35.67 35.67 0 0 0 1.71 4.781z" class="cls-4" transform="translate(-17.979 -198.428)"/>
            <path id="Path_484" fill="#aa6550" d="M188.065 260.9a4.448 4.448 0 0 0-.755-.439 2.983 2.983 0 0 0-2.1-.193l-.395.114.2-.368a4.808 4.808 0 0 0 .544-1.65 5.686 5.686 0 0 0-.509-3.317c-.386-.8-.8-1.185-.746-1.228a2.7 2.7 0 0 1 .974 1.105 5.431 5.431 0 0 1 .649 3.51 5.264 5.264 0 0 1-.614 1.755l-.2-.254a3.027 3.027 0 0 1 2.29.342c.504.308.679.606.662.623z" transform="translate(-23.869 -195.349)"/>
            <path id="Path_485" d="M192.895 255.416c.816-2 8.993-5.528 7.9-6.782-1.4-1.632-8.379 4.071-9 4.51a.553.553 0 1 1-.667-.877c.834-.526 9.529-6.256 8.177-7.9-.755-.877-2.211.649-2.211.649s-7.756 5.975-8.37 5.185 3.808-4.457 5.387-5.58 1.693-2.325.641-2.632c-.719-.2-5.633 3.132-7.177 4.29s-5.7 4.387-4.9 1.088.2-6.142-.474-6.773-1.816.1-1.632 1.132a12.713 12.713 0 0 1-.175 3.413 12.054 12.054 0 0 1-.877 2.632 11.476 11.476 0 0 1-3.834 4.782l8.642 10.178 1.106-.746c4.273-2.9 8.283-4.018 10.6-5.352 4.308-2.492 4.1-2.887 3.738-3.352-.926-1.181-7.69 4.136-6.874 2.135z" class="cls-10" transform="translate(-22.811 -193.699)"/>
            <path id="Path_486" d="M182 239.107l2.8 18.171 10.95-.184.509-3.4s6.2 0 6.686-5.264-4.843-5.317-4.843-5.317l.807-4.747zm14.521 12.74l1.29-6.738s3.746-.061 3.457 2.966-4.791 3.746-4.791 3.746z" class="cls-5" transform="translate(-23.586 -193.455)"/>
            <path id="Path_487" d="M191.024 211.32a1.186 1.186 0 0 1 .2.158 2.878 2.878 0 0 1 .421.605 4.387 4.387 0 0 1 .263 2.685 14.163 14.163 0 0 1-1.439 3.711 9.749 9.749 0 0 0-.746 2.15 4.185 4.185 0 0 0 .193 2.343 12.994 12.994 0 0 0 2.773 3.825 7.765 7.765 0 0 1 2.018 3.457 3.808 3.808 0 0 1-.36 2.632 2.29 2.29 0 0 1-.465.579c-.132.105-.211.158-.219.14a6.963 6.963 0 0 0 .526-.8 3.825 3.825 0 0 0 .2-2.518 7.616 7.616 0 0 0-2.018-3.246 12.951 12.951 0 0 1-2.887-3.948 4.7 4.7 0 0 1-.2-2.58 9.652 9.652 0 0 1 .807-2.246 15.372 15.372 0 0 0 1.5-3.6 4.335 4.335 0 0 0-.105-2.544c-.243-.531-.497-.777-.462-.803z" class="cls-4" transform="translate(-24.468 -190.139)"/>
            <path id="Path_488" d="M187.744 211.37s.079 0 .2.167a2.448 2.448 0 0 1 .43.605 4.334 4.334 0 0 1 .263 2.685 14.476 14.476 0 0 1-1.439 3.711 8.924 8.924 0 0 0-.746 2.15 4.264 4.264 0 0 0 .184 2.343 13.109 13.109 0 0 0 2.773 3.808 7.686 7.686 0 0 1 2.018 3.448 3.781 3.781 0 0 1-.36 2.676 2.105 2.105 0 0 1-.465.57c-.132.114-.2.158-.211.149a3.694 3.694 0 0 0 .518-.807 3.825 3.825 0 0 0 .2-2.518 7.7 7.7 0 0 0-2.009-3.238 12.836 12.836 0 0 1-2.9-3.948 4.65 4.65 0 0 1-.193-2.632 9.266 9.266 0 0 1 .8-2.246 14.8 14.8 0 0 0 1.5-3.589 4.387 4.387 0 0 0-.105-2.553c-.265-.5-.529-.751-.458-.781z" class="cls-4" transform="translate(-24.065 -190.145)"/>
            <path id="Path_489" d="M183.17 247.561s0-.263.377-.553a2.044 2.044 0 0 1 1.755-.29 5.65 5.65 0 0 1 2.2 1.492 3.387 3.387 0 0 0 2.632 1.228 11.812 11.812 0 0 0 2.825-1.255 3.711 3.711 0 0 1 1.4-.377 2.948 2.948 0 0 1 1.255.254 2.878 2.878 0 0 1 1.342 1.2c.2.377.228.614.2.623s-.114-.2-.351-.526a2.974 2.974 0 0 0-1.316-1 2.851 2.851 0 0 0-1.114-.175 3.659 3.659 0 0 0-1.246.377 10.16 10.16 0 0 1-2.948 1.334 2.632 2.632 0 0 1-1.755-.395 6.291 6.291 0 0 1-1.228-.983 5.6 5.6 0 0 0-2-1.492 2.009 2.009 0 0 0-1.588.132c-.3.204-.405.423-.44.406z" class="cls-7" transform="translate(-23.73 -194.469)"/>
            <path id="Path_490" d="M182.72 244.864s0-.281.395-.57a2.22 2.22 0 0 1 1.886-.316 6.142 6.142 0 0 1 2.334 1.588 3.6 3.6 0 0 0 2.781 1.316 10.379 10.379 0 0 0 3-1.342 4 4 0 0 1 1.492-.395 3.106 3.106 0 0 1 2.755 1.535c.219.395.246.658.219.658s-.123-.219-.369-.562a3.194 3.194 0 0 0-1.4-1.07 3.019 3.019 0 0 0-1.184-.184 3.922 3.922 0 0 0-1.334.4 10.371 10.371 0 0 1-3.132 1.413 2.843 2.843 0 0 1-1.807-.412 7.169 7.169 0 0 1-1.307-1.053 6.142 6.142 0 0 0-2.132-1.579 2.115 2.115 0 0 0-1.693.14c-.364.24-.469.477-.504.433z" class="cls-7" transform="translate(-23.675 -194.132)"/>
            <path id="Path_491" d="M89.25 347.534l15.118 21.338 165.959-.079-.1-18.838-83.923-7.984-69.723-10.371z" class="cls-4" transform="translate(-12.215 -204.886)"/>
            <path id="Path_492" d="M119.66 323.342l11.783-16.267 33.2-40.992a21.637 21.637 0 0 1 18.145-6.8 21.628 21.628 0 0 1 18.136 14.345l21.935 66.893-29.042-4.562-14.757-41.378-23.269 32.464z" class="cls-4" transform="translate(-15.943 -196.004)"/>
            <path id="Path_493" d="M223.79 344.767h-.974l-2.9-.211-10.669-.877-35.2-2.957-19.382-1.685c-2.974-.281-5.808-.491-8.458-.781a62.127 62.127 0 0 1-7.3-1.228 22.859 22.859 0 0 1-5.773-2.044 13.942 13.942 0 0 1-3.641-2.834 9.652 9.652 0 0 1-1.641-2.422 5.122 5.122 0 0 1-.377-.939 12.107 12.107 0 0 0 2.15 3.238 13.66 13.66 0 0 0 3.632 2.729 22.729 22.729 0 0 0 5.721 1.957 63.7 63.7 0 0 0 7.274 1.167c2.632.272 5.475.474 8.458.737l19.373 1.65 35.192 3.088 10.66.991 2.9.29.755.088z" class="cls-5" transform="translate(-16.901 -204.541)"/>
            <path id="Path_494" d="M189.624 282.47a18.356 18.356 0 0 1-.676 2.141 32.956 32.956 0 0 0-1.588 10.608 16 16 0 0 1 0 2.246 8.3 8.3 0 0 1-.369-2.246 25.157 25.157 0 0 1 .228-5.449 25.445 25.445 0 0 1 1.386-5.264 8.044 8.044 0 0 1 1.018-2.036z" class="cls-5" transform="translate(-24.191 -198.862)"/>
            <path id="Path_495" d="M182.7 288.828a47.645 47.645 0 0 0 1.6 5.019 48.947 48.947 0 0 0 2.518 4.615 14.776 14.776 0 0 1-4.115-9.651z" class="cls-5" transform="translate(-23.672 -199.639)"/>
            <path id="Path_496" d="M290.442 359a27.26 27.26 0 0 0-1.132 13.319 6.49 6.49 0 0 1-.526-1.939 19.821 19.821 0 0 1-.193-4.834 19.347 19.347 0 0 1 1.009-4.729 6.019 6.019 0 0 1 .842-1.816z" class="cls-5" transform="translate(-36.647 -208.245)"/>
            <path id="Path_497" d="M93.726 249.4s0 .079-.14.193a3.194 3.194 0 0 1-.491.483 6.212 6.212 0 0 1-2.255 1.124c-2.071.641-5.063.483-8.239 0a35.361 35.361 0 0 1-7.9-2.272c-.974-.4-1.755-.79-2.264-1.062a3.44 3.44 0 0 1-.781-.491c0-.061 1.2.518 3.167 1.255a41.633 41.633 0 0 0 7.9 2.115c3.15.491 6.08.684 8.09.158a7.766 7.766 0 0 0 2.913-1.503z" class="cls-4" transform="translate(-10.058 -194.559)"/>
        </g>
        <g id="freepik--Plant--inject-18" transform="translate(510.957 208.906)">
            <path id="Path_498" d="M627.9 294.417a19.5 19.5 0 0 1 12.09-1.465c2.2.36 4.484 1.018 5.984 2.632s1.755 4.545.061 5.966a5.738 5.738 0 0 1-3.773.948c-3.194 0-6.747-.6-9.3 1.325-1.456 1.1-2.43 2.922-4.168 3.466a4.133 4.133 0 0 1-4.536-2.018 7.018 7.018 0 0 1-.509-5.194 7.9 7.9 0 0 1 4.151-5.66z" class="cls-9" transform="translate(-587.398 -244.782)"/>
            <path id="Path_499" d="M618.608 271.458c2.246 3.22 6.624 2.15 8.651.193s2.887-4.808 3.668-7.519c1.755-6.194 3.58-12.687 2.246-19a10.528 10.528 0 0 0-2.422-5.168 5.519 5.519 0 0 0-5.264-1.755c-2.2.588-3.571 2.746-4.562 4.8a45.3 45.3 0 0 0-4.475 19.434c0 3.132.36 6.414 2.123 8.993" class="cls-9" transform="translate(-586.537 -238.098)"/>
            <path id="Path_500" d="M608.252 277.52c2.439-2.9 2.9-7.124 1.816-10.757a20.82 20.82 0 0 0-6.37-9.248 34.218 34.218 0 0 0-11.406-6.73 11.942 11.942 0 0 0-5.133-.877 5.414 5.414 0 0 0-4.308 2.632c-1.193 2.29 0 5.071 1.2 7.335a86.9 86.9 0 0 0 7.493 11.406c2.246 2.9 4.817 5.756 8.247 7.019s6.975 1.158 8.774-1.22" class="cls-9" transform="translate(-582.357 -239.544)"/>
            <path id="Path_501" d="M618.728 327.241a8.19 8.19 0 0 0 .2-1.456c.105-1.07.228-2.4.386-3.992a56.889 56.889 0 0 1 .877-5.844 46.077 46.077 0 0 1 2.123-6.9 25.446 25.446 0 0 1 3.51-6.238 13.162 13.162 0 0 1 4.448-3.7 12.285 12.285 0 0 1 3.755-1.167 8.1 8.1 0 0 0 1.456-.211 7.023 7.023 0 0 0-1.483 0 11.477 11.477 0 0 0-3.913 1.018 13.162 13.162 0 0 0-4.694 3.738 24.8 24.8 0 0 0-3.65 6.361 42.535 42.535 0 0 0-2.115 7.019 49.706 49.706 0 0 0-.772 5.922c-.132 1.693-.176 3.062-.2 4.01a6.574 6.574 0 0 0 .072 1.44z" class="cls-4" transform="translate(-586.806 -245.405)"/>
            <path id="Path_502" d="M619 318.675a2.977 2.977 0 0 0 0-.684v-1.93c0-1.685 0-4.115.088-7.124.149-6.01.667-12.477 1.667-21.593.939-8.572 2.211-18.548 3.51-25.041.29-1.474.579-2.8.877-3.966s.483-2.167.693-2.983.333-1.386.456-1.878a2.939 2.939 0 0 0 .114-.676 4 4 0 0 0-.237.641c-.149.483-.333 1.1-.562 1.851s-.5 1.807-.8 2.966-.623 2.483-.939 3.957a220.791 220.791 0 0 0-3.738 23.225c-1 9.134-1.448 17.46-1.492 23.479 0 3.018 0 5.449.105 7.133.053.79.088 1.43.123 1.939a2.977 2.977 0 0 0 .135.684z" class="cls-4" transform="translate(-586.805 -239.901)"/>
            <path id="Path_503" d="M616.1 303.314a15.6 15.6 0 0 0 0-2.027c-.079-1.3-.254-3.176-.623-5.484a70.787 70.787 0 0 0-1.755-7.984 64.373 64.373 0 0 0-3.343-9.458 50.4 50.4 0 0 0-9.809-15.275 23.148 23.148 0 0 0-2.308-2.141c-.351-.3-.667-.605-.983-.834l-.877-.623a12.44 12.44 0 0 0-1.755-1.088 59.03 59.03 0 0 1 5.589 4.984 52.941 52.941 0 0 1 9.564 15.223 72.561 72.561 0 0 1 3.36 9.362q1.145 3.948 1.9 7.9c.421 2.272.667 4.133.807 5.422a13.054 13.054 0 0 0 .237 2.027z" class="cls-4" transform="translate(-583.864 -240.587)"/>
            <path id="Path_504" d="M601.42 341.85l1.606 22.023h28.3l1.614-22.023z" class="cls-4" transform="translate(-584.694 -250.819)"/>
            <path id="Rectangle_50" d="M0 0H37.623V8.686H0z" class="cls-4" transform="translate(13.988 82.345)"/>
            <path id="Path_505" d="M598.3 365.99v2.4h37.008v-2.4z" class="cls-5" transform="translate(-584.312 -253.778)"/>
            <path id="Path_506" d="M602.048 372.968l-1.728-4.238h33.885l-2.018 4.238z" class="cls-5" transform="translate(-584.559 -254.114)"/>
            <path id="Path_507" d="M632.476 349.62a1 1 0 0 1-.132.2l-.421.562-1.649 2.115-.079.088-.07-.1-4.045-5.6h.228l-3.983 5.642-.132.175-.132-.167-4.729-5.6h.272l-.263.325-4.229 5.264-.14.176-.132-.184-3.992-5.642h.237l-4.913 5.6-.088.105-.07-.114-1.535-2.588-.395-.684a2.142 2.142 0 0 1-.123-.246 1.448 1.448 0 0 1 .167.219l.439.658 1.614 2.544h-.158c1.263-1.474 2.9-3.4 4.834-5.668l.123-.14.114.158 4.027 5.615h-.272l4.22-5.308.254-.325.14-.167.132.158 4.72 5.642h-.263l4.027-5.615.114-.167.114.167 3.966 5.659h-.14l1.711-2.062.456-.526a.926.926 0 0 1 .176-.169z" class="cls-1" transform="translate(-584.76 -251.394)"/>
            <path id="Path_508" d="M633.376 341.655c0 .1-7.1.175-15.793.175s-15.793-.079-15.793-.175 7.089-.176 15.793-.176 15.793.08 15.793.176z" class="cls-5" transform="translate(-584.74 -250.773)"/>
            <path id="Path_509" d="M634.6 368.975c0 .1-7.7.175-17.206.175s-17.214-.079-17.214-.175 7.7-.176 17.214-.176 17.206.089 17.206.176z" class="cls-4" transform="translate(-584.542 -254.123)"/>
        </g>
    </g>
</svg>
