<svg xmlns="http://www.w3.org/2000/svg" width="166.045" height="135.719" viewBox="0 0 166.045 135.719">
  <g id="acces_denied" data-name="acces denied" transform="translate(24.953 -21.031) rotate(16)">
    <rect id="Rectangle_262" data-name="Rectangle 262" width="12.065" height="5.079" transform="translate(71.569 42.187) rotate(-76.9)" fill="#cfd1d2"/>
    <path id="Path_1120" data-name="Path 1120" d="M846.141,213.76h0a3.394,3.394,0,0,1,4.075-2.538l10.289,2.393a3.4,3.4,0,0,1,2.538,4.077h0a3.394,3.394,0,0,1-4.076,2.538l-10.289-2.393A3.394,3.394,0,0,1,846.141,213.76Z" transform="translate(-777.055 -188.027)" fill="#cfd1d2"/>
    <path id="Path_1121" data-name="Path 1121" d="M558.945,481.134l-4.715-.49,8.387-80.553,51.044,63.091-3.686,2.982-43.83-54.175Z" transform="translate(-489.804 -353.582)" fill="#59595b"/>
    <rect id="Rectangle_263" data-name="Rectangle 263" width="5.08" height="12.064" transform="translate(59.485 37.258) rotate(-51.5)" fill="#e5e5e6"/>
    <path id="Path_1122" data-name="Path 1122" d="M698.757,247.172h0a3.4,3.4,0,0,1-.543-4.766l6.576-8.268a3.394,3.394,0,0,1,4.766-.544h0a3.4,3.4,0,0,1,.543,4.772l-6.577,8.268A3.392,3.392,0,0,1,698.757,247.172Z" transform="translate(-645.752 -207.226)" fill="#e5e5e6"/>
    <rect id="Rectangle_264" data-name="Rectangle 264" width="5.079" height="13.952" transform="translate(65.793 30.751) rotate(-16.36)" fill="#919395"/>
    <path id="Path_1123" data-name="Path 1123" d="M761.529,218.047h0a3.4,3.4,0,0,1,2.3-4.214l10.135-2.976a3.394,3.394,0,0,1,4.214,2.3h0a3.4,3.4,0,0,1-2.3,4.218l-10.135,2.976A3.394,3.394,0,0,1,761.529,218.047Z" transform="translate(-702.236 -187.661)" fill="#919395"/>
    <ellipse id="Ellipse_29" data-name="Ellipse 29" cx="41.161" cy="41.171" rx="41.161" ry="41.171" transform="translate(41.237 37.133)" fill="#0067e0"/>
    <ellipse id="Ellipse_30" data-name="Ellipse 30" cx="41.161" cy="41.171" rx="41.161" ry="41.171" transform="translate(41.237 37.133)" fill="#9c0421"/>
    <path id="Path_1367" data-name="Path 1367" d="M39.311,0A39.322,39.322,0,1,1,0,39.322,39.316,39.316,0,0,1,39.311,0Z" transform="translate(43.087 38.982)" fill="#fc0f3b"/>
    <path id="Path_1124" data-name="Path 1124" d="M730.366,409.307a32.825,32.825,0,1,0,12.906,17.809A32.74,32.74,0,0,0,730.366,409.307Z" transform="translate(-629.386 -358.057)" fill="#fff"/>
    <path id="Path_1125" data-name="Path 1125" d="M802.393,453.25a32.822,32.822,0,0,1-41.932,50.122,32.822,32.822,0,1,0,41.932-50.122Z" transform="translate(-701.413 -401.999)" fill="#f0f1f1"/>
    <path id="Path_1126" data-name="Path 1126" d="M1042.49,214.356a18.836,18.836,0,0,0-32.84-18.457Z" transform="translate(-921.636 -166.166)" fill="#9c0421"/>
    <path id="Path_1127" data-name="Path 1127" d="M1037.236,219.363a16.23,16.23,0,0,0-28.3-15.9Z" transform="translate(-921.009 -174.01)" fill="#fc0f3b"/>
    <path id="Path_1128" data-name="Path 1128" d="M463.932,380.386A18.839,18.839,0,0,1,481.588,347.1Z" transform="translate(-430.609 -306.276)" fill="#9c0421"/>
    <path id="Path_1129" data-name="Path 1129" d="M495.232,378.029a16.244,16.244,0,0,1,15.224-28.7Z" transform="translate(-459.478 -308.505)" fill="#fc0f3b"/>
    <path id="Path_1130" data-name="Path 1130" d="M646.012,527.507l-6.242-21.271,4.549-1.336,4.907,16.723,13.4-3.934,1.336,4.549Z" transform="translate(-565.401 -446.209)" fill="#59595b"/>
    <ellipse id="Ellipse_32" data-name="Ellipse 32" cx="4.542" cy="4.543" rx="4.542" ry="4.543" transform="translate(77.866 73.766) rotate(-0.08)" fill="#fc0f3b"/>
    <path id="Path_1131" data-name="Path 1131" d="M728.15,731.535a2.325,2.325,0,1,1-1.117-1.39A2.325,2.325,0,0,1,728.15,731.535Z" transform="translate(-668.831 -646.455)" fill="#59595b"/>
    <ellipse id="Ellipse_33" data-name="Ellipse 33" cx="2.331" cy="2.33" rx="2.331" ry="2.33" transform="matrix(0.006, -1, 1, 0.006, 106.243, 72.93)" fill="#59595b"/>
    <path id="Path_1132" data-name="Path 1132" d="M883.1,447.861a2.325,2.325,0,1,1,1.39-1.118A2.325,2.325,0,0,1,883.1,447.861Z" transform="translate(-807.17 -393.209)" fill="#59595b"/>
    <path id="Path_1133" data-name="Path 1133" d="M1013.154,891.051a2.325,2.325,0,1,1,1.39-1.118A2.325,2.325,0,0,1,1013.154,891.051Z" transform="translate(-922.103 -784.881)" fill="#59595b"/>
    <path id="Path_1134" data-name="Path 1134" d="M1305.68,479.1a22.385,22.385,0,0,1,1.8,2.2c.561.76,1.081,1.552,1.579,2.356a41.593,41.593,0,0,1,2.627,5.045,42.862,42.862,0,0,1,1.929,5.381c.128.465.257.922.369,1.387l.322,1.395c.181.942.359,1.884.482,2.837l.093.715c.03.232.045.479.07.718.039.479.094.957.116,1.437l.05,1.444c.015.481,0,.964-.007,1.445a31.664,31.664,0,0,1-.636,5.733l-.142.707c-.045.232-.116.465-.176.7-.123.465-.243.93-.374,1.395-.151.456-.3.91-.465,1.361l-.24.674-.267.657c-.192.437-.372.878-.573,1.308-.221.423-.436.846-.662,1.264-.116.208-.219.418-.341.622l-.38.6c-.263.4-.513.794-.783,1.179.1-.465.232-.915.349-1.368l.184-.673.155-.68c.1-.453.209-.9.314-1.346l.256-1.353.133-.669.1-.678.2-1.344c.084-.906.221-1.794.26-2.7.083-.9.1-1.8.13-2.691.015-.448-.008-.9,0-1.344v-.672l-.042-.666c-.028-.448-.022-.9-.058-1.341l-.1-1.339c-.032-.446-.088-.892-.131-1.338-.024-.222-.041-.445-.072-.667l-.1-.666c-.1-.892-.263-1.776-.409-2.663l-.25-1.326-.278-1.328c-.388-1.763-.846-3.517-1.356-5.265A109.692,109.692,0,0,0,1305.68,479.1Z" transform="translate(-1183.254 -424.845)" fill="#cfd1d2"/>
    <path id="Path_1135" data-name="Path 1135" d="M1402.46,506.7a13.571,13.571,0,0,1,1.377,1.477c.43.52.824,1.064,1.2,1.62a26.6,26.6,0,0,1,1.987,3.519,27.4,27.4,0,0,1,1.441,3.8,25.594,25.594,0,0,1,.858,4,23.42,23.42,0,0,1,.209,4.108,20.98,20.98,0,0,1-.527,4.084c-.072.335-.151.668-.254,1s-.192.658-.3.982-.232.643-.361.96l-.191.473-.216.465c-.151.306-.292.613-.45.913s-.34.588-.519.875c-.09.143-.171.289-.266.429l-.3.413c-.2.272-.4.542-.616.8.223-1.339.513-2.6.659-3.877l.072-.472.049-.477.106-.943c.034-.633.116-1.253.116-1.881.065-1.247.049-2.49-.009-3.727s-.178-2.471-.341-3.7a59.777,59.777,0,0,0-1.5-7.371C1404.057,511.708,1403.288,509.253,1402.46,506.7Z" transform="translate(-1268.785 -449.236)" fill="#cfd1d2"/>
    <path id="Path_1136" data-name="Path 1136" d="M544.691,701.68a109.839,109.839,0,0,0,2.548,10.772c.515,1.744,1.078,3.47,1.7,5.163l.478,1.265.507,1.252c.356.825.7,1.658,1.094,2.462l.28.611c.094.2.2.4.3.6.2.4.4.8.611,1.2l.639,1.182c.212.4.458.767.677,1.162l.337.581.363.565c.249.372.472.763.727,1.131.513.735,1.01,1.484,1.562,2.193.522.737,1.117,1.411,1.676,2.127l.9,1.021.449.516.474.492.947,1c.329.318.663.636.99.964l.5.488.518.465c.341.32.69.631,1.03.965-.436-.178-.861-.378-1.3-.568l-.639-.3c-.212-.1-.414-.232-.622-.339-.416-.233-.826-.465-1.24-.7s-.792-.527-1.189-.79l-.592-.407-.566-.437c-.377-.294-.751-.594-1.124-.9s-.71-.642-1.065-.966c-.174-.165-.361-.32-.526-.493l-.5-.519a31.585,31.585,0,0,1-3.634-4.48c-.267-.4-.539-.8-.787-1.212l-.737-1.242c-.239-.417-.451-.85-.678-1.279-.109-.214-.225-.424-.329-.641l-.308-.652c-.412-.868-.772-1.757-1.128-2.648l-.486-1.353c-.157-.452-.3-.909-.438-1.366a42.873,42.873,0,0,1-1.279-5.57,41.591,41.591,0,0,1-.516-5.663c-.015-.947,0-1.892.056-2.836A22.447,22.447,0,0,1,544.691,701.68Z" transform="translate(-510.391 -621.551)" fill="#cfd1d2"/>
    <path id="Path_1137" data-name="Path 1137" d="M477.269,777.22c.682,2.6,1.36,5.072,2.152,7.492a59.612,59.612,0,0,0,2.722,7.012c.528,1.123,1.088,2.23,1.715,3.3a37.019,37.019,0,0,0,2.005,3.139c.349.525.744,1,1.115,1.519l.6.736.3.374.316.358c.814,1,1.744,1.9,2.65,2.906-.321-.1-.635-.221-.951-.339l-.473-.187c-.156-.066-.3-.144-.456-.217-.306-.145-.6-.3-.909-.457s-.581-.349-.872-.524l-.432-.273-.419-.294c-.277-.2-.55-.4-.823-.611s-.521-.442-.781-.666-.51-.458-.753-.7a21.009,21.009,0,0,1-2.641-3.155,23.464,23.464,0,0,1-2.044-3.57,26.871,26.871,0,0,1-2.279-7.806,26.5,26.5,0,0,1-.233-4.034c.019-.673.056-1.345.137-2.013A13.5,13.5,0,0,1,477.269,777.22Z" transform="translate(-450.7 -688.31)" fill="#cfd1d2"/>
    <path id="Path_1138" data-name="Path 1138" d="M721.09,0l.136,13.082,3.486-2.184,2.562,8.182.167-13.091L723.71,8.275Z" transform="translate(-637.268)" fill="#f1c40f"/>
    <path id="Path_1139" data-name="Path 1139" d="M840.146,12.54l-10.2,8.185,3.871,1.394-4.852,7.069,10.4-7.953-4.1-1.523Z" transform="translate(-732.599 -11.082)" fill="#f1c40f"/>
    <path id="Path_1140" data-name="Path 1140" d="M192.78,239.418l10.544,7.741.344-4.1,8.081,2.86-10.37-7.988-.409,4.357Z" transform="translate(-170.371 -210.272)" fill="#f1c40f"/>
    <path id="Path_1141" data-name="Path 1141" d="M325.27,94.94l.423,13.076,3.437-2.261,2.741,8.125-.121-13.093-3.679,2.368Z" transform="translate(-287.459 -83.904)" fill="#f1c40f"/>
    <path id="Path_1142" data-name="Path 1142" d="M1160.573,213.47l-9.5,8.994,3.972,1.072-4.257,7.443,9.711-8.779-4.213-1.182Z" transform="translate(-1017.018 -188.655)" fill="#f1c40f"/>
    <path id="Path_1143" data-name="Path 1143" d="M1213.91,357.1l-12.938-1.92,1.61,3.787-8.482,1.246,12.9,2.22-1.673-4.044Z" transform="translate(-1055.293 -313.893)" fill="#f1c40f"/>
    <path id="Path_1144" data-name="Path 1144" d="M23.51,569.15l12.852,2.432L33.6,574.631l7.6,3.96-12.913-2.135,2.9-3.272Z" transform="translate(-20.777 -502.99)" fill="#f1c40f"/>
    <path id="Path_1145" data-name="Path 1145" d="M0,706.86l9.847-8.61.693,4.057,7.809-3.537L8.7,707.612l-.779-4.307Z" transform="translate(0 -617.083)" fill="#f1c40f"/>
  </g>
</svg>
