<svg xmlns="http://www.w3.org/2000/svg" width="80.939" height="73.665" viewBox="0 0 80.939 73.665">
  <g id="warning-sign-svgrepo-com" transform="translate(0 -24.9)">
    <path id="Path_1368" data-name="Path 1368" d="M78.646,77.666,52.065,31.6a13.407,13.407,0,0,0-23.221,0L1.8,78.455a13.407,13.407,0,0,0,11.611,20.11H67.532a13.4,13.4,0,0,0,11.114-20.9ZM46.194,82.15a5.727,5.727,0,0,1-11.45,0v-.131a5.727,5.727,0,0,1,11.45,0Zm.131-37.709-2.833,24.74a3.026,3.026,0,0,1-6.046,0L34.613,44.426c-.19-1.913.847-3.359,2.629-3.359h6.441C45.464,41.082,46.516,42.528,46.326,44.441Z" fill="#f1c40f"/>
  </g>
</svg>
