<svg id="Iconly_Bulk_Profile" data-name="Iconly/Bulk/Profile" xmlns="http://www.w3.org/2000/svg" width="17.056" height="15.634" viewBox="0 0 17.056 15.634">
  <g id="Profile">
    <ellipse id="Ellipse_744" cx="3.997" cy="3.948" rx="3.997" ry="3.948" transform="translate(2.398 1.421)" fill="#f2f3f8" opacity="0.4"/>
    <path id="Path_34198" d="M12.785,2.375h0a1.318,1.318,0,0,0,0-.169,1.523,1.523,0,0,0-.173-.6,3.436,3.436,0,0,0-2.387-1.3A13.415,13.415,0,0,0,8.253.052L7.56,0H5.228L4.534.052a13.415,13.415,0,0,0-1.971.26A3.278,3.278,0,0,0,.176,1.61a1.523,1.523,0,0,0-.173.6,1.317,1.317,0,0,0,0,.169H0a1.427,1.427,0,0,0,0,.169,1.525,1.525,0,0,0,.18.591,3.436,3.436,0,0,0,2.387,1.3,15.426,15.426,0,0,0,1.971.26l.694.045H7.566l.694-.045a15.426,15.426,0,0,0,1.971-.26,3.3,3.3,0,0,0,2.387-1.3,1.683,1.683,0,0,0,.173-.6A1.27,1.27,0,0,0,12.785,2.375Z" transform="translate(0 10.897)" fill="#f2f3f8"/>
    <path id="Path_34201" d="M5.2,3.346H3.375V5.157a.533.533,0,0,1-1.065,0V3.346H.483a.533.533,0,0,1,0-1.062H2.3V.479a.539.539,0,0,1,1.071,0V2.284H5.2a.533.533,0,0,1,0,1.062Z" transform="translate(11.37)" fill="#f2f3f8"/>
  </g>
</svg>
