<svg xmlns="http://www.w3.org/2000/svg" width="17.462" height="18.329" viewBox="0 0 17.462 18.329">
    <g id="Iconly_Light-outline_Bag" data-name="Iconly/Light-outline/Bag" transform="translate(-2.037 -1.662)">
        <g id="Bag" transform="translate(2.084 1.667)">
            <path id="Bag-2" fill="#fff" d="M4.986 18.3a5.149 5.149 0 0 1-4.078-1.422 5.14 5.14 0 0 1-.8-4.238L.8 7.268a4.317 4.317 0 0 1 1.226-2.4 3.1 3.1 0 0 1 2.163-.858 4.512 4.512 0 0 1 8.969 0h.066c1.644 0 2.943 1.263 3.391 3.294l.719 5.551a4.933 4.933 0 0 1-.992 3.962A5.1 5.1 0 0 1 12.4 18.3zM2.119 7.474l-.692 5.349a3.912 3.912 0 0 0 .5 3.2c.563.655 1.535.96 3.058.96H12.4a3.743 3.743 0 0 0 2.964-1.06 3.775 3.775 0 0 0 .625-3.108L15.3 7.532c-.3-1.375-1.082-2.2-2.08-2.2H4.189c-1.045.003-1.819.802-2.07 2.142zm9.7-3.463a3.18 3.18 0 0 0-6.285 0zm-.543 5.108a.662.662 0 0 1-.092-1.319l.091-.006h.04a.662.662 0 0 1 .091 1.319l-.091.006zm-5.176 0A.662.662 0 0 1 6.009 7.8l.091-.006h.04a.662.662 0 0 1 .09 1.318l-.091.006z" data-name="Bag"/>
        </g>
    </g>
</svg>
