<svg xmlns="http://www.w3.org/2000/svg" width="20.034" height="22.896" viewBox="0 0 20.034 22.896">
    <path d="M19.5 21.465h-.9V1.073A1.073 1.073 0 0 0 17.529 0H2.5a1.073 1.073 0 0 0-1.069 1.073v20.392H.537A.537.537 0 0 0 0 22v.9h20.034V22a.537.537 0 0 0-.534-.535zM5.724 3.4a.537.537 0 0 1 .537-.537h1.788a.537.537 0 0 1 .537.537v1.787a.537.537 0 0 1-.537.537H6.26a.537.537 0 0 1-.537-.537zm0 4.293a.537.537 0 0 1 .537-.537h1.788a.537.537 0 0 1 .537.537V9.48a.537.537 0 0 1-.537.537H6.26a.537.537 0 0 1-.537-.537zm2.325 6.617H6.26a.537.537 0 0 1-.537-.537v-1.789a.537.537 0 0 1 .537-.537h1.789a.537.537 0 0 1 .537.537v1.789a.537.537 0 0 1-.537.537zm3.4 7.155H8.586v-3.757a.537.537 0 0 1 .537-.537h1.789a.537.537 0 0 1 .537.537zm2.862-7.691a.537.537 0 0 1-.537.537h-1.79a.537.537 0 0 1-.537-.537v-1.79a.537.537 0 0 1 .537-.537h1.789a.537.537 0 0 1 .537.537zm0-4.293a.537.537 0 0 1-.537.537h-1.79a.537.537 0 0 1-.537-.537v-1.79a.537.537 0 0 1 .537-.537h1.789a.537.537 0 0 1 .537.537zm0-4.293a.537.537 0 0 1-.537.537h-1.79a.537.537 0 0 1-.537-.537V3.4a.537.537 0 0 1 .537-.537h1.789a.537.537 0 0 1 .537.537z"/>
</svg>
