<svg xmlns="http://www.w3.org/2000/svg" width="23.192" height="18.492" viewBox="0 0 23.192 18.492">
    <path d="M18.55 7.03l-.3.518a.448.448 0 0 1-.547.2 4 4 0 0 1-1.163-.674.45.45 0 0 1-.1-.569l.3-.518a3.128 3.128 0 0 1-.576-.993h-.6a.447.447 0 0 1-.442-.373 4.083 4.083 0 0 1 0-1.345.451.451 0 0 1 .442-.377h.6a3.129 3.129 0 0 1 .576-.993l-.3-.518a.446.446 0 0 1 .1-.569 4.053 4.053 0 0 1 1.165-.678.448.448 0 0 1 .547.2l.3.518a3.22 3.22 0 0 1 1.149 0L20 .337a.448.448 0 0 1 .547-.2 4 4 0 0 1 1.163.674.45.45 0 0 1 .1.569l-.3.518a3.128 3.128 0 0 1 .576.993h.6a.447.447 0 0 1 .442.373 4.083 4.083 0 0 1 0 1.345.451.451 0 0 1-.442.377h-.6a3.128 3.128 0 0 1-.576.993l.3.518a.446.446 0 0 1-.1.569 4.053 4.053 0 0 1-1.163.674.448.448 0 0 1-.547-.2l-.3-.518a3.22 3.22 0 0 1-1.15.008zm-.381-2.13a1.354 1.354 0 0 0 1.913-1.913A1.354 1.354 0 0 0 18.169 4.9zm-4.178 5.577l1.221.609a.871.871 0 0 1 .381 1.055 8.555 8.555 0 0 1-1.544 2.385.866.866 0 0 1-1.1.192l-1.049-.61a6.225 6.225 0 0 1-1.99 1.149v1.218a.867.867 0 0 1-.714.855 8.15 8.15 0 0 1-2.751 0 .871.871 0 0 1-.725-.855v-1.218a6.294 6.294 0 0 1-1.99-1.149l-1.055.605a.867.867 0 0 1-1.1-.192 8.543 8.543 0 0 1-1.53-2.381.874.874 0 0 1 .381-1.055l1.207-.609a6.278 6.278 0 0 1 0-2.3L.426 7.567a.864.864 0 0 1-.381-1.051 8.509 8.509 0 0 1 1.53-2.385.866.866 0 0 1 1.1-.192l1.055.609A6.225 6.225 0 0 1 5.717 3.4V2.178a.863.863 0 0 1 .71-.852 8.265 8.265 0 0 1 2.754 0 .871.871 0 0 1 .725.855V3.4A6.293 6.293 0 0 1 11.9 4.544l1.055-.609a.867.867 0 0 1 1.1.192 8.5 8.5 0 0 1 1.526 2.385.866.866 0 0 1-.362 1.055l-1.221.609a6.3 6.3 0 0 1-.007 2.301zm-4.262.765A2.71 2.71 0 0 0 5.9 7.411a2.71 2.71 0 0 0 3.829 3.83zm8.821 6.621l-.3.518a.448.448 0 0 1-.547.2 4 4 0 0 1-1.163-.674.45.45 0 0 1-.1-.569l.3-.518a3.128 3.128 0 0 1-.576-.993h-.6a.447.447 0 0 1-.442-.373 4.083 4.083 0 0 1 0-1.345.451.451 0 0 1 .442-.377h.6a3.128 3.128 0 0 1 .576-.993l-.3-.518a.446.446 0 0 1 .1-.569 4.053 4.053 0 0 1 1.163-.674.448.448 0 0 1 .547.2l.3.518a3.22 3.22 0 0 1 1.149 0l.3-.518a.448.448 0 0 1 .547-.2 4 4 0 0 1 1.163.674.45.45 0 0 1 .1.569l-.3.518a3.128 3.128 0 0 1 .576.993h.6a.447.447 0 0 1 .442.373 4.083 4.083 0 0 1 0 1.345.451.451 0 0 1-.442.377h-.6a3.128 3.128 0 0 1-.576.993l.3.518a.446.446 0 0 1-.1.569 4.053 4.053 0 0 1-1.163.674.448.448 0 0 1-.547-.2l-.3-.518a3.22 3.22 0 0 1-1.149-.001zm-.381-2.135a1.354 1.354 0 0 0 1.913-1.913 1.354 1.354 0 0 0-1.913 1.913z" transform="translate(.009 -.112)"/>
</svg>
