<svg xmlns="http://www.w3.org/2000/svg" width="31.742" height="30.153" viewBox="0 0 31.742 30.153">
    <defs>
        <style>
            .cls-1{fill:#575757}
        </style>
    </defs>
    <g id="_002-contact" data-name="002-contact" transform="translate(-.001 -12.813)">
        <g id="Group_65" data-name="Group 65" transform="translate(.001 12.813)">
            <g id="Group_64" data-name="Group 64">
                <path id="Path_73" d="M30.394 12.813H8.222a1.351 1.351 0 0 0-1.349 1.349v6.116l-1.015-1.521a1.568 1.568 0 0 0-2.117-.476l-2.085 1.254a3.061 3.061 0 0 0-1.4 1.813C-.5 24.119.062 28.893 7.068 35.9c5.572 5.566 9.726 7.065 12.59 7.065a7.393 7.393 0 0 0 1.963-.256 3.066 3.066 0 0 0 1.814-1.4l1.253-2.088a1.568 1.568 0 0 0-.476-2.114l-4.995-3.33a1.576 1.576 0 0 0-2.11.342l-1.454 1.87a.506.506 0 0 1-.653.141l-.277-.152a16.635 16.635 0 0 1-4.333-3.4c-.248-.248-.472-.479-.683-.7h20.687a1.348 1.348 0 0 0 1.349-1.343V14.162a1.351 1.351 0 0 0-1.349-1.349zM14.221 36.907l.269.148a1.559 1.559 0 0 0 2-.412l1.454-1.87a.514.514 0 0 1 .688-.112l4.995 3.33a.511.511 0 0 1 .155.688l-1.253 2.088a2.011 2.011 0 0 1-1.186.921c-2.5.688-6.879.106-13.523-6.539S.594 24.128 1.28 21.628a2.011 2.011 0 0 1 .92-1.186l2.088-1.253a.512.512 0 0 1 .688.155l3.331 4.995a.514.514 0 0 1-.112.688l-1.87 1.455a1.558 1.558 0 0 0-.412 2l.148.269a17.542 17.542 0 0 0 3.585 4.575 17.577 17.577 0 0 0 4.575 3.581zm16.464-6.377a.289.289 0 0 1-.291.286H8.757a13.345 13.345 0 0 1-1.766-2.574l-.152-.278a.5.5 0 0 1 .137-.647l1.87-1.455a1.576 1.576 0 0 0 .342-2.11l-1.257-1.886v-7.7a.288.288 0 0 1 .291-.291h22.172a.288.288 0 0 1 .291.291V30.53z" class="cls-1" data-name="Path 73" transform="translate(-.001 -12.813)"/>
                <path id="Path_74" d="M167.687 50.7l-8.844 6.7a.714.714 0 0 1-.839 0l-8.841-6.7a.529.529 0 1 0-.64.843l8.842 6.707a1.781 1.781 0 0 0 2.117 0l8.844-6.707a.529.529 0 0 0-.639-.843z" class="cls-1" data-name="Path 74" transform="translate(-139.117 -48.245)"/>
                <path id="Path_75" d="M154.373 172.559l-5.421 5.8a.529.529 0 0 0 .774.722l5.421-5.808a.529.529 0 0 0-.774-.719z" class="cls-1" data-name="Path 75" transform="translate(-139.582 -162.514)"/>
                <path id="Path_76" d="M370.868 172.247a.529.529 0 0 0-.774.722l5.419 5.8a.529.529 0 1 0 .774-.722z" class="cls-1" data-name="Path 76" transform="translate(-347.01 -162.202)"/>
            </g>
        </g>
    </g>
</svg>
