<svg xmlns="http://www.w3.org/2000/svg" width="23.323" height="23.483" viewBox="0 0 23.323 23.483">
    <g>
        <g>
            <g>
                <path fill="#fff" d="M.14 16.741A3.155 3.155 0 0 1-3 13.579v-3.234A3.155 3.155 0 0 1 .14 7.183h3.208a3.155 3.155 0 0 1 3.141 3.162v3.233a3.155 3.155 0 0 1-3.141 3.162zm-1.668-6.4v3.233A1.68 1.68 0 0 0 .14 15.268h3.208a1.681 1.681 0 0 0 1.669-1.689v-3.234a1.681 1.681 0 0 0-1.669-1.691H.14a1.681 1.681 0 0 0-1.668 1.691zm14.213-6.783A3.155 3.155 0 0 1 9.542.4v-3.238A3.155 3.155 0 0 1 12.682-6h3.208a3.155 3.155 0 0 1 3.14 3.162V.4a3.154 3.154 0 0 1-3.14 3.162zm-1.669-6.4V.4a1.681 1.681 0 0 0 1.669 1.689h3.208A1.681 1.681 0 0 0 17.558.4v-3.238a1.681 1.681 0 0 0-1.668-1.69h-3.208a1.681 1.681 0 0 0-1.669 1.689zM.144 3.558A3.155 3.155 0 0 1-3 .4v-3.238A3.155 3.155 0 0 1 .14-6h3.208a3.155 3.155 0 0 1 3.141 3.162V.4a3.155 3.155 0 0 1-3.141 3.158zm-1.668-6.4V.4A1.681 1.681 0 0 0 .14 2.086h3.208A1.681 1.681 0 0 0 5.017.4v-3.238a1.681 1.681 0 0 0-1.669-1.69H.14a1.681 1.681 0 0 0-1.668 1.69z" transform="translate(3 6)"/>
            </g>
        </g>
        <g>
            <g fill="none" stroke="#fff" stroke-linecap="round" stroke-linejoin="round" stroke-miterlimit="10" stroke-width="1.5px" transform="translate(10.896 7.935)">
                <circle cx="3.678" cy="3.678" r="3.678" opacity="0.4" transform="translate(2.156)"/>
                <path d="M0 2.32a1.706 1.706 0 0 1 .169-.747A3.116 3.116 0 0 1 2.339.326 12.924 12.924 0 0 1 4.144.07a19.287 19.287 0 0 1 3.376 0 13.072 13.072 0 0 1 1.8.254 3 3 0 0 1 2.17 1.247 1.747 1.747 0 0 1 0 1.5 2.97 2.97 0 0 1-2.17 1.24 12.1 12.1 0 0 1-1.8.261 19.879 19.879 0 0 1-2.749.045 3.127 3.127 0 0 1-.628-.042 11.874 11.874 0 0 1-1.8-.261 2.978 2.978 0 0 1-2.174-1.24A1.755 1.755 0 0 1 0 2.32z" transform="translate(0 10.152)"/>
            </g>
        </g>
    </g>
</svg>
