<svg xmlns="http://www.w3.org/2000/svg" width="30.326" height="30.295" viewBox="0 0 30.326 30.295">
    <defs>
        <style>
            .cls-1{fill:#575757}
        </style>
    </defs>
    <g id="_003-credit-card" data-name="003-credit-card" transform="translate(0 -.243)">
        <g id="Group_67" data-name="Group 67" transform="translate(0 .243)">
            <g id="Group_66" data-name="Group 66">
                <path id="Path_77" d="M30.114 11.122l-3.388-8.809A3.232 3.232 0 0 0 22.549.46l-.072.029L5.545 7.507a3.216 3.216 0 0 0-1.787 4.116l.466 1.243H3.156A3.159 3.159 0 0 0 0 16.021v11.361a3.159 3.159 0 0 0 3.156 3.156h21.459a3.159 3.159 0 0 0 3.156-3.156V16.021a3.1 3.1 0 0 0-.045-.511l.586-.237a3.244 3.244 0 0 0 1.802-4.151zM3.156 13.875h21.459a2.143 2.143 0 0 1 2.133 2.02H1.022a2.143 2.143 0 0 1 2.134-2.02zm5.075-3.042l3.375-1.688.694 1.735-3.375 1.689zm18.53 16.549a2.148 2.148 0 0 1-2.146 2.146H3.156a2.148 2.148 0 0 1-2.146-2.146v-6.438h25.751zm0-7.448H1.01v-3.03h25.751zm1.172-5.595l-.528.214a3.157 3.157 0 0 0-2.79-1.688H10.589l2.578-1.289a.5.5 0 0 0 .243-.639l-1.071-2.676a.5.5 0 0 0-.656-.281l-.038.02-4.282 2.139a.5.5 0 0 0-.243.639l.835 2.087H5.3l-.6-1.595a2.211 2.211 0 0 1 1.232-2.827l16.931-7.018a2.219 2.219 0 0 1 2.9 1.2l.021.053 3.388 8.809a2.229 2.229 0 0 1-1.239 2.853z" class="cls-1" data-name="Path 77" transform="translate(0 -.243)"/>
                <path id="Path_78" d="M265.387 357.879a3.03 3.03 0 0 0 3.044 0 3.03 3.03 0 1 0 0-5.239 3.03 3.03 0 1 0-3.044 5.239zm3.888-4.516a2.02 2.02 0 1 1 0 3.793 3.017 3.017 0 0 0 0-3.793zm-.844.575a1.983 1.983 0 0 1 0 2.644 1.983 1.983 0 0 1 0-2.645zm-1.515-.7a2 2 0 0 1 .671.123 3.017 3.017 0 0 0 0 3.793 2.016 2.016 0 1 1-.671-3.916z" class="cls-1" data-name="Path 78" transform="translate(-247.224 -330.013)"/>
                <path id="Rectangle_1094" d="M0 0H1.01V5.271H0z" class="cls-1" data-name="Rectangle 1094" transform="rotate(-113.966 14.54 -1.382)"/>
                <path id="Rectangle_1095" d="M0 0H7.663V1.009H0z" class="cls-1" data-name="Rectangle 1095" transform="rotate(-24.77 30.336 -36.497)"/>
            </g>
        </g>
    </g>
</svg>
