<svg xmlns="http://www.w3.org/2000/svg" width="29.864" height="19.909" viewBox="0 0 29.864 19.909">
    <defs>
        <style>
            .cls-1,.cls-2{fill:#67809f}.cls-2{opacity:.4}
        </style>
    </defs>
    <g id="credit-card" transform="translate(0 -85.333)">
        <g id="Group_63" transform="translate(0 85.333)">
            <g id="Group_62">
                <path id="Path_400" d="M26.753 85.333H3.111A3.115 3.115 0 0 0 0 88.444v13.687a3.115 3.115 0 0 0 3.111 3.111h23.642a3.115 3.115 0 0 0 3.111-3.111V88.444a3.115 3.115 0 0 0-3.111-3.111zm1.866 16.8A1.869 1.869 0 0 1 26.753 104H3.111a1.869 1.869 0 0 1-1.866-1.866v-13.69a1.869 1.869 0 0 1 1.866-1.866h23.642a1.869 1.869 0 0 1 1.866 1.866v13.687z" class="cls-1" transform="translate(0 -85.333)"/>
            </g>
        </g>
        <g id="Group_65" transform="translate(0 89.066)">
            <g id="Group_64">
                <path id="Path_401" d="M29.241 149.333H.622a.622.622 0 0 0-.622.622v3.733a.622.622 0 0 0 .622.622h28.619a.622.622 0 0 0 .622-.622v-3.733a.623.623 0 0 0-.622-.622zm-.622 3.733H1.244v-2.489h27.375v2.489z" class="cls-1" transform="translate(0 -149.333)"/>
            </g>
        </g>
        <g id="Group_67" transform="translate(3.733 97.776)">
            <g id="Group_66">
                <path id="Path_402" d="M72.088 298.667h-7.466a.622.622 0 1 0 0 1.244h7.466a.622.622 0 1 0 0-1.244z" class="cls-2" transform="translate(-64 -298.667)"/>
            </g>
        </g>
        <g id="Group_69" transform="translate(3.733 100.265)">
            <g id="Group_68">
                <path id="Path_403" d="M72.088 341.333h-7.466a.622.622 0 0 0 0 1.244h7.466a.622.622 0 0 0 0-1.244z" class="cls-2" transform="translate(-64 -341.333)"/>
            </g>
        </g>
        <g id="Group_71" transform="translate(21.153 96.532)">
            <g id="Group_70">
                <path id="Path_404" d="M365.778 277.333h-1.244a1.869 1.869 0 0 0-1.866 1.866v1.244a1.869 1.869 0 0 0 1.866 1.866h1.244a1.869 1.869 0 0 0 1.867-1.866V279.2a1.869 1.869 0 0 0-1.867-1.867zm.622 3.111a.622.622 0 0 1-.622.622h-1.244a.622.622 0 0 1-.622-.622V279.2a.622.622 0 0 1 .622-.622h1.244a.622.622 0 0 1 .622.622z" class="cls-2" transform="translate(-362.667 -277.333)"/>
            </g>
        </g>
    </g>
</svg>
