<?xml version="1.0" encoding="UTF-8" standalone="no"?>
<svg
   xmlns:osb="http://www.openswatchbook.org/uri/2009/osb"
   xmlns:dc="http://purl.org/dc/elements/1.1/"
   xmlns:cc="http://creativecommons.org/ns#"
   xmlns:rdf="http://www.w3.org/1999/02/22-rdf-syntax-ns#"
   xmlns:svg="http://www.w3.org/2000/svg"
   xmlns="http://www.w3.org/2000/svg"
   xmlns:xlink="http://www.w3.org/1999/xlink"
   xmlns:sodipodi="http://sodipodi.sourceforge.net/DTD/sodipodi-0.dtd"
   xmlns:inkscape="http://www.inkscape.org/namespaces/inkscape"
   width="20.071"
   height="25.042"
   viewBox="0 0 20.071 25.042"
   version="1.1"
   id="svg10"
   sodipodi:docname="Customer.svg"
   inkscape:version="0.92.3 (2405546, 2018-03-11)">
  <metadata
     id="metadata16">
    <rdf:RDF>
      <cc:Work
         rdf:about="">
        <dc:format>image/svg+xml</dc:format>
        <dc:type
           rdf:resource="http://purl.org/dc/dcmitype/StillImage" />
      </cc:Work>
    </rdf:RDF>
  </metadata>
  <defs
     id="defs14">
    <linearGradient
       id="linearGradient4535"
       osb:paint="solid">
      <stop
         style="stop-color:#ffffff;stop-opacity:1;"
         offset="0"
         id="stop4533" />
    </linearGradient>
    <linearGradient
       id="linearGradient4529"
       osb:paint="solid">
      <stop
         style="stop-color:#0067e0;stop-opacity:1;"
         offset="0"
         id="stop4527" />
    </linearGradient>
    <linearGradient
       inkscape:collect="always"
       xlink:href="#linearGradient4535"
       id="linearGradient4531"
       x1="-0.75002712"
       y1="11.770739"
       x2="19.303299"
       y2="11.770739"
       gradientUnits="userSpaceOnUse" />
  </defs>
  <sodipodi:namedview
     pagecolor="#ffffff"
     bordercolor="#666666"
     borderopacity="1"
     objecttolerance="10"
     gridtolerance="10"
     guidetolerance="10"
     inkscape:pageopacity="0"
     inkscape:pageshadow="2"
     inkscape:window-width="1861"
     inkscape:window-height="1048"
     id="namedview12"
     showgrid="false"
     inkscape:zoom="9.4241675"
     inkscape:cx="-12.778187"
     inkscape:cy="16.765407"
     inkscape:window-x="1425"
     inkscape:window-y="0"
     inkscape:window-maximized="1"
     inkscape:current-layer="g8" />
  <g
     id="g8">
    <g
       fill="none"
       stroke="#0067e0"
       stroke-linecap="round"
       stroke-linejoin="round"
       stroke-miterlimit="10"
       stroke-width="1.5px"
       transform="translate(.75 .75)"
       id="g6"
       style="fill:none;stroke:url(#linearGradient4531);fill-opacity:1">
      <circle
         cx="5.851"
         cy="5.851"
         r="5.851"
         opacity="0.4"
         transform="translate(3.43)"
         id="circle2"
         style="fill:none;stroke:url(#linearGradient4531);fill-opacity:1" />
      <path
         d="M0 3.7a2.713 2.713 0 0 1 .269-1.19C.829 1.384 2.41.79 3.722.521a20.558 20.558 0 0 1 2.87-.4 30.681 30.681 0 0 1 5.37 0 20.794 20.794 0 0 1 2.87.4c1.312.269 2.892.807 3.452 1.984a2.78 2.78 0 0 1 0 2.388c-.561 1.177-2.141 1.715-3.452 1.973a19.247 19.247 0 0 1-2.87.415 31.624 31.624 0 0 1-4.372.068 4.979 4.979 0 0 1-.995-.068 18.888 18.888 0 0 1-2.858-.415C2.41 6.609.841 6.07.269 4.893A2.791 2.791 0 0 1 0 3.7z"
         transform="translate(0 16.147)"
         id="path4"
         style="fill:none;stroke:url(#linearGradient4531);fill-opacity:1" />
    </g>
  </g>
</svg>
