<svg xmlns="http://www.w3.org/2000/svg" width="24.004" height="25.321" viewBox="0 0 24.004 25.321">
    <g>
        <path fill="none" stroke="#fff" stroke-linecap="round" stroke-linejoin="round" stroke-miterlimit="10" stroke-width="1.5px" d="M7.888 22.233V18.6a1.689 1.689 0 0 1 1.687-1.68h3.418a1.689 1.689 0 0 1 1.7 1.681v3.643a1.451 1.451 0 0 0 1.421 1.444h2.279a4.093 4.093 0 0 0 4.107-4.073V9.283a2.889 2.889 0 0 0-1.137-2.256L13.573.811a3.766 3.766 0 0 0-4.673 0L1.137 7.035A2.867 2.867 0 0 0 0 9.294v10.32a4.093 4.093 0 0 0 4.113 4.072h2.279a1.463 1.463 0 0 0 1.47-1.455" transform="translate(.75 .883)"/>
    </g>
</svg>
