<svg xmlns="http://www.w3.org/2000/svg" width="12" height="9" viewBox="0 0 12 9">
    <path fill="#afb1b8" d="M11.773 66.972a.141.141 0 0 1 .227.11v4.793A1.125 1.125 0 0 1 10.875 73h-9.75A1.125 1.125 0 0 1 0 71.875v-4.791a.14.14 0 0 1 .227-.11c.525.408 1.221.926 3.612 2.662A4.193 4.193 0 0 0 6 70.752a4.2 4.2 0 0 0 2.163-1.116c2.391-1.736 3.085-2.256 3.61-2.664zM6 70c.544.009 1.327-.684 1.72-.97 3.11-2.257 3.347-2.454 4.064-3.016A.561.561 0 0 0 12 65.57v-.445A1.125 1.125 0 0 0 10.875 64h-9.75A1.125 1.125 0 0 0 0 65.125v.445a.564.564 0 0 0 .216.443c.717.56.954.759 4.064 3.016.393.287 1.176.98 1.72.971z" transform="translate(0 -64)"/>
</svg>
