<svg xmlns="http://www.w3.org/2000/svg" width="16.874" height="15" viewBox="0 0 16.874 15">
    <path fill="#fff" d="M16.724 12.891A1.407 1.407 0 0 1 15.5 15H1.448a1.408 1.408 0 0 1-1.219-2.109L7.258.7A1.408 1.408 0 0 1 9.7.7l7.028 12.188zm-6.868-3.63l2.071-2.071a.649.649 0 0 0 0-.92l-.46-.46a.649.649 0 0 0-.92 0L8.476 7.881 6.405 5.81a.649.649 0 0 0-.92 0l-.46.46a.649.649 0 0 0 0 .92L7.1 9.261l-2.075 2.071a.649.649 0 0 0 0 .92l.46.46a.649.649 0 0 0 .92 0l2.071-2.071 2.071 2.071a.649.649 0 0 0 .92 0l.46-.46a.649.649 0 0 0 0-.92z" transform="translate(-.04)"/>
</svg>
