<svg xmlns="http://www.w3.org/2000/svg" width="12.467" height="11.082" viewBox="0 0 12.467 11.082">
  <path id="file-export-solid" d="M8.312,2.639a.518.518,0,0,0-.152-.366L6.041.152A.519.519,0,0,0,5.673,0H5.541V2.771H8.312Zm4.048,4.028L10.288,4.58a.347.347,0,0,0-.593.245V6.234H8.31V7.619H9.695V9.03a.347.347,0,0,0,.593.245l2.071-2.089A.368.368,0,0,0,12.359,6.667Zm-8.2.606V6.58A.347.347,0,0,1,4.5,6.234h3.81V3.463H5.368a.521.521,0,0,1-.519-.519V0H.519A.518.518,0,0,0,0,.519V10.563a.518.518,0,0,0,.519.519H7.792a.518.518,0,0,0,.519-.519V7.619H4.5A.347.347,0,0,1,4.156,7.273Z"/>
</svg>
