<svg xmlns="http://www.w3.org/2000/svg" width="26.869" height="22.541" viewBox="0 0 26.869 22.541">
  <g id="gen_info" data-name="gen info" transform="translate(-1 -2.5)">
    <g id="Group_137" data-name="Group 137" transform="translate(1 2.5)">
      <circle id="Ellipse_90" data-name="Ellipse 90" cx="5.916" cy="5.916" r="5.916" transform="translate(3.451 0)" fill="none" opacity="0.4"/>
      <path id="Path_1234" data-name="Path 1234" d="M-3,16.892a4.379,4.379,0,0,1,.247-1.233A4.921,4.921,0,0,1,.7,13.687a11.946,11.946,0,0,1,2.835-.37,39.815,39.815,0,0,1,5.423,0c.986.123,1.972.247,2.835.37,1.356.247,2.958.863,3.451,1.972a2.611,2.611,0,0,1,0,2.342c-.616,1.233-2.1,1.726-3.451,1.972a11.946,11.946,0,0,1-2.835.37c-1.479.123-2.958.123-4.437.123a2.714,2.714,0,0,1-.986-.123A7.6,7.6,0,0,1,.7,20.1c-1.356-.247-2.958-.74-3.451-1.972A4.379,4.379,0,0,1-3,16.892Z" transform="translate(3 2.075)" fill="none"/>
    </g>
    <g id="Group_139" data-name="Group 139" transform="translate(18.871 4.349)">
      <g id="Group_138" data-name="Group 138">
        <path id="Path_1235" data-name="Path 1235" d="M21.474,8.9h0Z" transform="translate(-12.477 -0.396)" fill="none"/>
        <line id="Line_66" data-name="Line 66" x1="8.997" transform="translate(0 5.67)" fill="none"/>
        <line id="Line_67" data-name="Line 67" x1="8.997" transform="translate(0 2.958)" fill="none"/>
        <line id="Line_68" data-name="Line 68" x1="8.997" transform="translate(0)" fill="none"/>
      </g>
    </g>
  </g>
</svg>
