<svg xmlns="http://www.w3.org/2000/svg" width="25.301" height="30" viewBox="0 0 25.301 30">
    <defs>
        <style>
            .cls-1{fill:#0091ea}
        </style>
    </defs>
    <g id="_001-file" data-name="001-file" transform="translate(-40.097)">
        <g id="Group_55" data-name="Group 55" transform="translate(40.097)">
            <g id="Group_54" data-name="Group 54">
                <path id="Path_68" d="M63.952 3.976h-2.53v-2.53A1.45 1.45 0 0 0 59.977 0H41.543A1.45 1.45 0 0 0 40.1 1.446v23.132a1.45 1.45 0 0 0 1.446 1.446h2.53v2.53A1.45 1.45 0 0 0 45.519 30h12.289a4.219 4.219 0 0 0 2.5-.991l4.039-3.8a3.839 3.839 0 0 0 1.053-2.438V5.422a1.45 1.45 0 0 0-1.448-1.446zM44.073 5.422V24.94h-2.53a.366.366 0 0 1-.361-.361V1.446a.366.366 0 0 1 .361-.361h18.434a.367.367 0 0 1 .361.361v2.53H45.519a1.45 1.45 0 0 0-1.446 1.446zm19.529 19l-4.039 3.8a1.918 1.918 0 0 1-.309.227V25.12a.906.906 0 0 1 .9-.9h3.616a1.518 1.518 0 0 1-.17.198zm.712-1.647a1.686 1.686 0 0 1-.049.361h-4.108a1.992 1.992 0 0 0-1.988 1.988v3.751a1.89 1.89 0 0 1-.361.044H45.519a.366.366 0 0 1-.361-.361V5.422a.366.366 0 0 1 .361-.361h18.433a.366.366 0 0 1 .361.361z" class="cls-1" data-name="Path 68" transform="translate(-40.097)"/>
            </g>
        </g>
        <g id="Group_57" data-name="Group 57" transform="translate(48.953 9.036)">
            <g id="Group_56" data-name="Group 56">
                <path id="Path_69" d="M202.259 154.216h-10.482a.542.542 0 1 0 0 1.084h10.482a.542.542 0 0 0 0-1.084z" class="cls-1" data-name="Path 69" transform="translate(-191.235 -154.216)"/>
            </g>
        </g>
        <g id="Group_59" data-name="Group 59" transform="translate(48.953 16.265)">
            <g id="Group_58" data-name="Group 58">
                <path id="Path_70" d="M202.259 277.59h-10.482a.542.542 0 1 0 0 1.084h10.482a.542.542 0 1 0 0-1.084z" class="cls-1" data-name="Path 70" transform="translate(-191.235 -277.59)"/>
            </g>
        </g>
        <g id="Group_61" data-name="Group 61" transform="translate(48.953 19.879)">
            <g id="Group_60" data-name="Group 60">
                <path id="Path_71" d="M197.561 339.277h-5.783a.542.542 0 1 0 0 1.084h5.783a.542.542 0 0 0 0-1.084z" class="cls-1" data-name="Path 71" transform="translate(-191.236 -339.277)"/>
            </g>
        </g>
        <g id="Group_63" data-name="Group 63" transform="translate(48.953 12.651)">
            <g id="Group_62" data-name="Group 62">
                <path id="Path_72" d="M202.259 215.9h-10.482a.542.542 0 1 0 0 1.084h10.482a.542.542 0 0 0 0-1.084z" class="cls-1" data-name="Path 72" transform="translate(-191.235 -215.903)"/>
            </g>
        </g>
    </g>
</svg>
