<svg xmlns="http://www.w3.org/2000/svg" width="13.667" height="17" viewBox="0 0 13.667 17">
  <g id="tabler-icon-file" transform="translate(1 1)">
    <path id="Path_1316" data-name="Path 1316" d="M14,3V7a1,1,0,0,0,1,1h4" transform="translate(-7.333 -3)" fill="none" stroke="#000" stroke-linecap="round" stroke-linejoin="bevel" stroke-width="1"/>
    <g id="Path_1317" data-name="Path 1317" transform="translate(-5 -3)" fill="none" stroke-linecap="round" stroke-linejoin="bevel">
      <path d="M15,18H6.667A1.667,1.667,0,0,1,5,16.333V4.667A1.667,1.667,0,0,1,6.667,3H12.5l4.167,4.167v9.167A1.667,1.667,0,0,1,15,18Z" stroke="none"/>
      <path d="M 15.00000286102295 18 C 15.92047309875488 18 16.66666221618652 17.25381088256836 16.66666221618652 16.33333015441895 L 16.66666221618652 7.166669845581055 L 12.50000286102295 3 L 6.66666316986084 3 C 5.746192932128906 3 5.000002861022949 3.746190071105957 5.000002861022949 4.666669845581055 L 5.000002861022949 16.33333015441895 C 5.000002861022949 17.25381088256836 5.746192932128906 18 6.66666316986084 18 L 15.00000286102295 18 M 15.00000286102295 19 L 6.66666316986084 19 C 5.196262836456299 19 4.000002861022949 17.80373954772949 4.000002861022949 16.33333015441895 L 4.000002861022949 4.666669845581055 C 4.000002861022949 3.19625997543335 5.196262836456299 2 6.66666316986084 2 L 12.50000286102295 2 L 13.20711326599121 2.292890071868896 L 17.3737735748291 6.459559917449951 L 17.66666221618652 7.166669845581055 L 17.66666221618652 16.33333015441895 C 17.66666221618652 17.80373954772949 16.47040367126465 19 15.00000286102295 19 Z" stroke="none" fill="#000"/>
    </g>
  </g>
</svg>
