<svg xmlns="http://www.w3.org/2000/svg" width="9.044" height="13.099" viewBox="0 0 9.044 13.099">
  <path id="Indeed_logo_small" data-name="Indeed_logo small" d="M330.234,14.333V9.551q.21.02.41.02a3.663,3.663,0,0,0,1.83-.483v5.249a1.4,1.4,0,0,1-.313,1,1.075,1.075,0,0,1-.816.33,1.023,1.023,0,0,1-.8-.337A1.465,1.465,0,0,1,330.234,14.333Zm.013-11.457a4.183,4.183,0,0,1,4.156.539,1.915,1.915,0,0,1,.57.756c.123.373-.417-.037-.5-.093a5.306,5.306,0,0,0-1.21-.6c-2.333-.7-4.542.563-5.915,2.536A10.713,10.713,0,0,0,326.1,8.8a1.284,1.284,0,0,1-.123.35c-.06.11-.023-.293-.023-.313a9.4,9.4,0,0,1,.24-1.22,7.168,7.168,0,0,1,4.05-4.745Zm2.689,3.852a1.646,1.646,0,1,1-1.646-1.65A1.646,1.646,0,0,1,332.937,6.729Z" transform="translate(-325.947 -2.568)" fill="#003a9b" fill-rule="evenodd"/>
</svg>
