<svg xmlns="http://www.w3.org/2000/svg" width="28.299" height="28.299" viewBox="0 0 28.299 28.299">
    <path fill="#afb1b8" d="M14.149 42.78a3.369 3.369 0 1 0 3.371 3.37 3.369 3.369 0 0 0-3.371-3.37zm7.878-2.59a3.411 3.411 0 0 0-1.921-1.921c-1.327-.524-4.485-.406-5.957-.406s-4.627-.122-5.957.406a3.411 3.411 0 0 0-1.921 1.921c-.523 1.327-.406 4.488-.406 5.959s-.117 4.628.409 5.959a3.411 3.411 0 0 0 1.921 1.921c1.327.524 4.485.406 5.957.406s4.626.122 5.957-.406a3.411 3.411 0 0 0 1.921-1.921c.527-1.327.406-4.488.406-5.959s.121-4.628-.406-5.959zm-7.878 11.139a5.173 5.173 0 1 1 3.664-1.515 5.18 5.18 0 0 1-3.664 1.515zm5.393-9.368a1.2 1.2 0 1 1 .857-.353 1.209 1.209 0 0 1-.857.353zM25.267 32H3.032A3.032 3.032 0 0 0 0 35.032v22.235A3.032 3.032 0 0 0 3.032 60.3h22.235a3.032 3.032 0 0 0 3.033-3.033V35.032A3.032 3.032 0 0 0 25.267 32zm-1.082 18.318a6.01 6.01 0 0 1-1.633 4.232 6.013 6.013 0 0 1-4.232 1.633c-1.668.094-6.67.094-8.338 0a6.021 6.021 0 0 1-4.232-1.632 5.992 5.992 0 0 1-1.633-4.232c-.094-1.669-.094-6.671 0-8.338a5.991 5.991 0 0 1 1.633-4.233 6.024 6.024 0 0 1 4.232-1.628c1.668-.094 6.67-.094 8.338 0a6.014 6.014 0 0 1 4.232 1.633 6.014 6.014 0 0 1 1.633 4.235c.095 1.663.095 6.66 0 8.33z" transform="translate(0 -32)"/>
</svg>
