<svg xmlns="http://www.w3.org/2000/svg" width="15" height="15" viewBox="0 0 15 15">
    <path d="M13.929 32H1.068A1.076 1.076 0 0 0 0 33.081v12.838A1.076 1.076 0 0 0 1.068 47h12.86A1.079 1.079 0 0 0 15 45.919V33.081A1.079 1.079 0 0 0 13.929 32zm-9.4 12.857H2.31V37.7h2.227v7.158zm-1.107-8.136a1.289 1.289 0 1 1 1.289-1.289 1.29 1.29 0 0 1-1.289 1.289zm9.445 8.136h-2.223v-3.482c0-.83-.017-1.9-1.155-1.9-1.158 0-1.336.9-1.336 1.838v3.542H5.93V37.7h2.133v.978h.03a2.342 2.342 0 0 1 2.107-1.157c2.25 0 2.669 1.483 2.669 3.412z" transform="translate(0 -32)"/>
</svg>
