<svg xmlns="http://www.w3.org/2000/svg" width="28.299" height="28.299" viewBox="0 0 28.299 28.299">
    <path fill="#afb1b8" d="M18.052 10.246a8.4 8.4 0 0 1 .02 11.861l-.02.02-3.714 3.714a8.4 8.4 0 0 1-11.882-11.88l2.051-2.051a.884.884 0 0 1 1.509.586 10.185 10.185 0 0 0 .536 2.914.89.89 0 0 1-.209.918l-.723.723a3.98 3.98 0 1 0 5.592 5.664L14.925 19a3.979 3.979 0 0 0 0-5.628 4.14 4.14 0 0 0-.572-.474.886.886 0 0 1-.384-.7 2.2 2.2 0 0 1 .647-1.647l1.164-1.16a.888.888 0 0 1 1.138-.1 8.428 8.428 0 0 1 1.134.95zm7.79-7.79a8.411 8.411 0 0 0-11.881 0l-3.715 3.715-.02.02A8.4 8.4 0 0 0 11.38 19a.888.888 0 0 0 1.138-.1l1.164-1.164a2.2 2.2 0 0 0 .647-1.647.886.886 0 0 0-.384-.7 4.14 4.14 0 0 1-.572-.474 3.979 3.979 0 0 1 0-5.628l3.714-3.714a3.98 3.98 0 1 1 5.592 5.664l-.723.723a.89.89 0 0 0-.209.918 10.185 10.185 0 0 1 .536 2.914.884.884 0 0 0 1.509.586l2.051-2.051a8.41 8.41 0 0 0 0-11.881z" transform="translate(.001 .001)"/>
</svg>
