<svg id="tabler-icon-phone-call" xmlns="http://www.w3.org/2000/svg" width="24.048" height="24.048" viewBox="0 0 24.048 24.048">
  <path id="Path_1363" data-name="Path 1363" d="M0,0H24.048V24.048H0Z" fill="none"/>
  <path id="Path_1364" data-name="Path 1364" d="M4.787,4H8.361l1.787,4.467L7.914,9.807a9.828,9.828,0,0,0,4.467,4.467l1.34-2.234,4.467,1.787V17.4A1.787,1.787,0,0,1,16.4,19.188,14.3,14.3,0,0,1,3,5.787,1.787,1.787,0,0,1,4.787,4" transform="translate(0.797 1.063)" fill="none" stroke="#2b2b2b" stroke-linecap="round" stroke-linejoin="round" stroke-width="1"/>
  <path id="Path_1365" data-name="Path 1365" d="M15,7a2.531,2.531,0,0,1,2.531,2.531" transform="translate(-0.33 -0.154)" fill="none" stroke="#2b2b2b" stroke-linecap="round" stroke-linejoin="round" stroke-width="1"/>
  <path id="Path_1366" data-name="Path 1366" d="M15,3a7.594,7.594,0,0,1,7.594,7.594" transform="translate(-2.343 0.797)" fill="none" stroke="#2b2b2b" stroke-linecap="round" stroke-linejoin="round" stroke-width="1"/>
</svg>
