<svg xmlns="http://www.w3.org/2000/svg" id="tabler-icon-printer" width="21" height="21" viewBox="0 0 21 21">
    <defs>
        <style>
            .cls-2{fill:none;stroke:#405e84;stroke-linecap:round;stroke-linejoin:round}
        </style>
    </defs>
    <path id="Path_1149" fill="none" d="M0 0h21v21H0z"/>
    <path id="Path_1150" d="M15.25 16H17a1.75 1.75 0 0 0 1.75-1.75v-3.5A1.75 1.75 0 0 0 17 9H4.75A1.75 1.75 0 0 0 3 10.75v3.5A1.75 1.75 0 0 0 4.75 16H6.5" class="cls-2" transform="translate(-.375 -1.125)"/>
    <path id="Path_1151" d="M15.75 8.25v-3.5A1.75 1.75 0 0 0 14 3H8.75A1.75 1.75 0 0 0 7 4.75v3.5" class="cls-2" transform="translate(-.875 -.375)"/>
    <rect id="Rectangle_267" width="9" height="7" class="cls-2" rx="2" transform="translate(6 11)"/>
</svg>
