<svg id="tabler-icon-briefcase" xmlns="http://www.w3.org/2000/svg" width="31.221" height="31.221" viewBox="0 0 31.221 31.221">
  <path id="Path_1236" data-name="Path 1236" d="M0,0H31.221V31.221H0Z" fill="none"/>
  <path id="Path_1237" data-name="Path 1237" d="M5.6,7H23.814a2.609,2.609,0,0,1,2.6,2.6V21.31a2.609,2.609,0,0,1-2.6,2.6H5.6A2.609,2.609,0,0,1,3,21.31V9.6A2.609,2.609,0,0,1,5.6,7Z" transform="translate(0.903 2.106)" fill="none" stroke="#f2f3f8" stroke-linecap="round" stroke-linejoin="round" stroke-width="1.5"/>
  <path id="Path_1238" data-name="Path 1238" d="M8,8.2V7.033A4.053,4.053,0,0,1,12.033,3h2.342a4.053,4.053,0,0,1,4.033,4.033V8.2" transform="translate(2.407 0.903)" fill="none" stroke="#f2f3f8" stroke-linecap="round" stroke-linejoin="round" stroke-width="1.5"/>
  <line id="Line_69" data-name="Line 69" transform="translate(15.161 15.161)" fill="none" stroke="#f2f3f8" stroke-linecap="round" stroke-linejoin="round" stroke-width="1.5" opacity="0.4"/>
  <path id="Path_1239" data-name="Path 1239" d="M3,13a25.638,25.638,0,0,0,23.416,0" transform="translate(0.903 3.911)" fill="none" stroke="#f2f3f8" stroke-linecap="round" stroke-linejoin="round" stroke-width="1.5" opacity="0.4"/>
</svg>
