<svg xmlns="http://www.w3.org/2000/svg" width="22.211" height="22.211" viewBox="0 0 22.211 22.211">
  <g id="tabler-icon-section" transform="translate(-5.553 -5.553)">
    <path id="Path_1255" data-name="Path 1255" d="M20,20h0" transform="translate(7.764 7.764)" fill="none" opacity="0.4"/>
    <path id="Path_1256" data-name="Path 1256" d="M4,20H4" transform="translate(1.553 7.764)" fill="none" opacity="0.4"/>
    <path id="Path_1257" data-name="Path 1257" d="M8,20H8" transform="translate(3.106 7.764)" fill="none" opacity="0.4"/>
    <path id="Path_1258" data-name="Path 1258" d="M12,20h0" transform="translate(4.658 7.764)" fill="none" opacity="0.4"/>
    <path id="Path_1259" data-name="Path 1259" d="M16,20h0" transform="translate(6.211 7.764)" fill="none" opacity="0.4"/>
    <path id="Path_1260" data-name="Path 1260" d="M20,4h0" transform="translate(7.764 1.553)" fill="none" opacity="0.4"/>
    <path id="Path_1261" data-name="Path 1261" d="M4,4H4" transform="translate(1.553 1.553)" fill="none" opacity="0.4"/>
    <path id="Path_1262" data-name="Path 1262" d="M8,4H8" transform="translate(3.106 1.553)" fill="none" opacity="0.4"/>
    <path id="Path_1263" data-name="Path 1263" d="M12,4h0" transform="translate(4.658 1.553)" fill="none" opacity="0.4"/>
    <path id="Path_1264" data-name="Path 1264" d="M16,4h0" transform="translate(6.211 1.553)" fill="none" opacity="0.4"/>
    <path id="Path_1265" data-name="Path 1265" d="M5.388,8H24.823a1.312,1.312,0,0,1,1.388,1.388v8.329a1.312,1.312,0,0,1-1.388,1.388H5.388A1.312,1.312,0,0,1,4,17.717V9.388A1.312,1.312,0,0,1,5.388,8Z" transform="translate(1.553 3.106)" fill="none"/>
  </g>
</svg>
