<svg xmlns="http://www.w3.org/2000/svg" width="20.034" height="15.267" viewBox="0 0 20.034 15.267">
    <path fill="#0d66d0" d="M19.756 72.288l-6.678 6.678a.956.956 0 0 1-1.63-.676v-3.816H6.042a.952.952 0 0 1-.954-.954V69.7a.952.952 0 0 1 .954-.954h5.406v-3.812a.956.956 0 0 1 1.63-.676l6.678 6.678a.962.962 0 0 1 0 1.352zM7.632 78.767v-1.59a.478.478 0 0 0-.477-.477H3.816a1.271 1.271 0 0 1-1.272-1.272V67.8a1.271 1.271 0 0 1 1.272-1.272h3.339a.478.478 0 0 0 .477-.477v-1.59a.478.478 0 0 0-.477-.477H3.816A3.817 3.817 0 0 0 0 67.8v7.632a3.817 3.817 0 0 0 3.816 3.816h3.339a.478.478 0 0 0 .477-.481z" transform="translate(0 -63.979)"/>
</svg>
