<svg xmlns="http://www.w3.org/2000/svg" width="28.299" height="28.299" viewBox="0 0 28.299 28.299">
    <path fill="#afb1b8" d="M26.833 48.92a13.751 13.751 0 0 0 .3-2.767 12.966 12.966 0 0 0-12.974-12.972 13.355 13.355 0 0 0-2.767.3 7.067 7.067 0 0 0-9.919 9.907 13.75 13.75 0 0 0-.3 2.767 12.966 12.966 0 0 0 12.973 12.969 13.355 13.355 0 0 0 2.767-.3 7.068 7.068 0 0 0 11.385-5.6 6.97 6.97 0 0 0-1.466-4.3zM14.538 54.7c-4.145 0-7.613-1.845-7.613-4.107a1.775 1.775 0 0 1 1.864-1.933c1.971 0 2.154 2.837 5.566 2.837 1.624 0 2.673-.72 2.673-1.662 0-1.181-1.011-1.365-2.654-1.769-3.949-.973-7.443-1.39-7.443-5.509 0-3.74 3.7-5.124 6.893-5.124 3.481 0 7 1.384 7 3.5a1.9 1.9 0 0 1-1.914 2.009c-1.788 0-1.845-2.117-4.739-2.117-1.624 0-2.654.442-2.654 1.422 0 1.251 1.314 1.377 4.366 2.085 2.616.588 5.731 1.693 5.731 4.9 0 3.734-3.608 5.465-7.076 5.465z" transform="translate(0 -32)"/>
</svg>
