<svg xmlns="http://www.w3.org/2000/svg" width="27.153" height="26.024" viewBox="0 0 27.153 26.024">
  <path id="star-solid-_empty" data-name="star-solid- empty" d="M32.158.857,28.97,7.321l-7.133,1.04a1.563,1.563,0,0,0-.864,2.666l5.16,5.029-1.221,7.1A1.561,1.561,0,0,0,27.178,24.8l6.381-3.354L39.941,24.8a1.563,1.563,0,0,0,2.265-1.645l-1.221-7.1,5.16-5.029a1.563,1.563,0,0,0-.864-2.666l-7.133-1.04L34.961.857A1.564,1.564,0,0,0,32.158.857Z" transform="translate(-19.983 0.513)" fill="#f3f6f9" stroke="#afb1b8" stroke-width="1"/>
</svg>
