<svg id="tabler-icon-trash_1_" data-name="tabler-icon-trash (1)" xmlns="http://www.w3.org/2000/svg" width="17.135" height="17.135" viewBox="0 0 17.135 17.135">
  <path id="Path_1276" data-name="Path 1276" d="M0,0H17.135V17.135H0Z" fill="none"/>
  <line id="Line_84" data-name="Line 84" x2="11" transform="translate(3 5.01)" fill="none" stroke="#fff" stroke-linecap="round" stroke-linejoin="round" stroke-width="1.5"/>
  <line id="Line_85" data-name="Line 85" y2="4" transform="translate(7 8.01)" fill="none" stroke="#fff" stroke-linecap="round" stroke-linejoin="round" stroke-width="1.5"/>
  <line id="Line_86" data-name="Line 86" y2="4" transform="translate(10 8.01)" fill="none" stroke="#fff" stroke-linecap="round" stroke-linejoin="round" stroke-width="1.5"/>
  <path id="Path_1277" data-name="Path 1277" d="M5,7l.714,8.567A1.428,1.428,0,0,0,7.142,17h5.712a1.428,1.428,0,0,0,1.428-1.428L15,7" transform="translate(-1.43 -2.002)" fill="none" stroke="#fff" stroke-linecap="round" stroke-linejoin="round" stroke-width="1.5"/>
  <path id="Path_1278" data-name="Path 1278" d="M9,5.856V3.714A.714.714,0,0,1,9.714,3H12.57a.714.714,0,0,1,.714.714V5.856" transform="translate(-2.574 -0.858)" fill="none" stroke="#fff" stroke-linecap="round" stroke-linejoin="round" stroke-width="1.5"/>
</svg>