<svg xmlns="http://www.w3.org/2000/svg" width="15" height="15" viewBox="0 0 15 15">
    <path d="M13.393 32H1.607A1.608 1.608 0 0 0 0 33.607v11.786A1.608 1.608 0 0 0 1.607 47h11.786A1.608 1.608 0 0 0 15 45.393V33.607A1.608 1.608 0 0 0 13.393 32zm-1.637 5.317c.007.094.007.191.007.285a6.205 6.205 0 0 1-6.248 6.248 6.219 6.219 0 0 1-3.372-.984 4.626 4.626 0 0 0 .529.027 4.4 4.4 0 0 0 2.728-.939 2.2 2.2 0 0 1-2.052-1.523 2.367 2.367 0 0 0 .991-.04 2.2 2.2 0 0 1-1.758-2.156v-.027a2.194 2.194 0 0 0 .991.278 2.191 2.191 0 0 1-.978-1.828 2.169 2.169 0 0 1 .3-1.108 6.235 6.235 0 0 0 4.527 2.3 2.2 2.2 0 0 1 3.747-2.006 4.3 4.3 0 0 0 1.393-.529 2.19 2.19 0 0 1-.964 1.209 4.37 4.37 0 0 0 1.266-.342 4.622 4.622 0 0 1-1.107 1.135z" transform="translate(0 -32)"/>
</svg>
