<svg xmlns="http://www.w3.org/2000/svg" width="20.071" height="25.042" viewBox="0 0 20.071 25.042">
    <g>
        <g fill="none" stroke="#f3f6f9" stroke-linecap="round" stroke-linejoin="round" stroke-miterlimit="10" stroke-width="1.5px" transform="translate(.75 .75)">
            <circle cx="5.851" cy="5.851" r="5.851" opacity="0.4" transform="translate(3.43)"/>
            <path d="M0 3.7a2.713 2.713 0 0 1 .269-1.19C.829 1.384 2.41.79 3.722.521a20.558 20.558 0 0 1 2.87-.4 30.681 30.681 0 0 1 5.37 0 20.794 20.794 0 0 1 2.87.4c1.312.269 2.892.807 3.452 1.984a2.78 2.78 0 0 1 0 2.388c-.561 1.177-2.141 1.715-3.452 1.973a19.247 19.247 0 0 1-2.87.415 31.624 31.624 0 0 1-4.372.068 4.979 4.979 0 0 1-.995-.068 18.888 18.888 0 0 1-2.858-.415C2.41 6.609.841 6.07.269 4.893A2.791 2.791 0 0 1 0 3.7z" transform="translate(0 16.147)"/>
        </g>
    </g>
</svg>
