<svg xmlns="http://www.w3.org/2000/svg" width="28.299" height="29.843" viewBox="0 0 28.299 29.843">
    <path fill="#afb1b8" d="M38.3 2.944C37.557 2.262 34.562.088 27.883.059c0 0-7.874-.472-11.708 3.048-2.133 2.133-2.885 5.263-2.966 9.138s-.181 11.137 6.819 13.107h.006l-.006 3.007s-.047 1.218.758 1.463c.967.3 1.539-.624 2.465-1.62.507-.548 1.206-1.352 1.737-1.964a27.081 27.081 0 0 0 8.888-.653c.967-.315 6.44-1.014 7.326-8.276.921-7.495-.443-12.227-2.9-14.366zm.81 13.818c-.752 6.061-5.187 6.446-6 6.708a25.056 25.056 0 0 1-7.646.653s-3.031 3.654-3.975 4.6c-.309.309-.647.28-.641-.332 0-.4.023-4.995.023-4.995-5.933-1.643-5.583-7.827-5.519-11.062s.676-5.886 2.483-7.67c3.246-2.943 9.931-2.506 9.931-2.506 5.647.023 8.352 1.725 8.981 2.3 2.081 1.783 3.141 6.049 2.366 12.3zm-8.1-4.709a.376.376 0 1 1-.752.035 1.8 1.8 0 0 0-1.9-1.976.376.376 0 0 1 .042-.752 2.534 2.534 0 0 1 2.606 2.693zm1.183.659a4.354 4.354 0 0 0-4.421-4.622.377.377 0 0 1 .052-.752 5.1 5.1 0 0 1 5.117 5.391.376.376 0 0 1-.752-.017zm2.739.781a.376.376 0 0 1-.752.006c-.035-4.75-3.2-7.337-7.04-7.367a.376.376 0 0 1 0-.752c4.292.029 7.748 2.995 7.789 8.112zm-.662 5.717v.012c-.629 1.107-1.807 2.331-3.019 1.941l-.012-.017a22.4 22.4 0 0 1-5.956-3.293 15.236 15.236 0 0 1-2.471-2.471 18.912 18.912 0 0 1-1.8-2.716A17.414 17.414 0 0 1 19.5 9.419c-.39-1.212.828-2.389 1.941-3.019h.012a1.061 1.061 0 0 1 1.393.227s.723.863 1.032 1.288c.291.4.682 1.032.886 1.387a1.217 1.217 0 0 1-.216 1.55l-.7.559a1.025 1.025 0 0 0-.309.816 7.3 7.3 0 0 0 4.913 4.913 1.025 1.025 0 0 0 .816-.309l.559-.7a1.217 1.217 0 0 1 1.55-.216 15.1 15.1 0 0 1 2.669 1.917 1.041 1.041 0 0 1 .221 1.375z" transform="translate(-13.19 -.038)"/>
</svg>
