<svg xmlns="http://www.w3.org/2000/svg" width="15" height="15" viewBox="0 0 15 15">
    <path d="M7.5 35.04a4.412 4.412 0 0 0-3.74 6.76l.1.167-.445 1.627 1.671-.439.161.1a4.4 4.4 0 0 0 2.247.616 4.379 4.379 0 0 0 3.121-7.533A4.379 4.379 0 0 0 7.5 35.04zm2.595 6.308a1.353 1.353 0 0 1-.894.629 2.588 2.588 0 0 1-1.59-.331 5.96 5.96 0 0 1-2.267-2 2.571 2.571 0 0 1-.544-1.375 1.486 1.486 0 0 1 .465-1.108.483.483 0 0 1 .357-.163h.254c.077 0 .191-.03.3.228s.375.917.408.984a.234.234 0 0 1 .01.231c-.254.509-.526.489-.388.723a3.615 3.615 0 0 0 1.8 1.577c.134.067.211.057.288-.033s.331-.388.419-.519.177-.11.3-.067.773.365.907.432.221.1.254.154a1.178 1.178 0 0 1-.079.638zM13.393 32H1.607A1.608 1.608 0 0 0 0 33.607v11.786A1.608 1.608 0 0 0 1.607 47h11.786A1.608 1.608 0 0 0 15 45.393V33.607A1.608 1.608 0 0 0 13.393 32zM7.5 44.763a5.3 5.3 0 0 1-2.538-.646l-2.816.74L2.9 42.1a5.319 5.319 0 1 1 9.961-2.648A5.359 5.359 0 0 1 7.5 44.763z" transform="translate(0 -32)"/>
</svg>
