<svg xmlns="http://www.w3.org/2000/svg" width="23.19" height="23.19" viewBox="0 0 23.19 23.19">
    <path fill="#0d66d0" d="M9.265.193A11.534 11.534 0 0 0 .247 9.179c-1.676 8.47 5.965 14.784 11.722 13.892a2.859 2.859 0 0 0 1.925-4.153 3.065 3.065 0 0 1 2.758-4.457h3.61A2.964 2.964 0 0 0 23.2 11.5 11.6 11.6 0 0 0 9.265.193zM4.36 14.461a1.449 1.449 0 1 1 1.449-1.449 1.448 1.448 0 0 1-1.449 1.449zm1.449-5.8a1.449 1.449 0 1 1 1.45-1.447 1.448 1.448 0 0 1-1.45 1.449zm5.8-2.9a1.449 1.449 0 1 1 1.449-1.449 1.448 1.448 0 0 1-1.451 1.452zm5.8 2.9a1.449 1.449 0 1 1 1.449-1.449A1.448 1.448 0 0 1 17.4 8.663z" transform="translate(-.012 .035)"/>
</svg>
