<svg xmlns="http://www.w3.org/2000/svg" width="15" height="15" viewBox="0 0 15 15">
    <path d="M6.254 37.7l3.188 1.811-3.188 1.807zM15 33.607v11.786A1.608 1.608 0 0 1 13.393 47H1.607A1.608 1.608 0 0 1 0 45.393V33.607A1.608 1.608 0 0 1 1.607 32h11.786A1.608 1.608 0 0 1 15 33.607zm-1.406 5.9a16.088 16.088 0 0 0-.254-2.953 1.528 1.528 0 0 0-1.078-1.085 35.954 35.954 0 0 0-4.762-.255 35.955 35.955 0 0 0-4.761.258 1.528 1.528 0 0 0-1.078 1.085 17.263 17.263 0 0 0 0 5.906 1.506 1.506 0 0 0 1.078 1.068 36.423 36.423 0 0 0 4.761.254 35.955 35.955 0 0 0 4.761-.258 1.506 1.506 0 0 0 1.078-1.068 16.039 16.039 0 0 0 .254-2.95z" transform="translate(0 -32)"/>
</svg>
